SplineFontDB: 3.0
FontName: SpurceSans-BlackItalic
FullName: Spurce Sans Black Italic
FamilyName: Spurce Sans
Weight: Black
Copyright: Copyright 2020 Nicholas Auler, with font name 'Spurce'\n\nBased on Source Sans, Copyright 2010, 2012, 2014 Adobe Systems Incorporated (http://www.adobe.com/), with Reserved Font Name `Source'.
UComments: "This font is still in beta. If you find any issues, contact me at nicholas.auler@gmail.com"
Version: 0.6
ItalicAngle: -11
UnderlinePosition: -100
UnderlineWidth: 50
Ascent: 750
Descent: 250
InvalidEm: 0
sfntRevision: 0x0000999a
LayerCount: 2
Layer: 0 1 "Back" 1
Layer: 1 1 "Fore" 0
XUID: [1021 316 771282308 28671]
StyleMap: 0x0001
FSType: 0
OS2Version: 3
OS2_WeightWidthSlopeOnly: 0
OS2_UseTypoMetrics: 0
CreationTime: 1441032394
ModificationTime: 1588185784
PfmFamily: 33
TTFWeight: 900
TTFWidth: 5
LineGap: 0
VLineGap: 0
Panose: 2 11 8 3 3 4 3 9 2 4
OS2TypoAscent: 750
OS2TypoAOffset: 0
OS2TypoDescent: -250
OS2TypoDOffset: 0
OS2TypoLinegap: 0
OS2WinAscent: 984
OS2WinAOffset: 0
OS2WinDescent: 273
OS2WinDOffset: 0
HheadAscent: 984
HheadAOffset: 0
HheadDescent: -273
HheadDOffset: 0
OS2SubXSize: 650
OS2SubYSize: 600
OS2SubXOff: -15
OS2SubYOff: 75
OS2SupXSize: 650
OS2SupYSize: 600
OS2SupXOff: 68
OS2SupYOff: 350
OS2StrikeYSize: 50
OS2StrikeYPos: 300
OS2CapHeight: 660
OS2XHeight: 500
OS2Vendor: 'ADBO'
OS2CodePages: 20000193.00000000
OS2UnicodeRanges: 20000007.00000001.00000000.00000000
Lookup: 1 0 0 "'aalt' Access All Alternates in Latin lookup 0" { "'aalt' Access All Alternates in Latin lookup 0 subtable"  } ['aalt' ('DFLT' <'dflt' > 'latn' <'dflt' > ) ]
Lookup: 3 0 0 "'aalt' Access All Alternates in Latin lookup 1" { "'aalt' Access All Alternates in Latin lookup 1 subtable"  } ['aalt' ('DFLT' <'dflt' > 'latn' <'dflt' > ) ]
Lookup: 2 0 0 "Multiple Substitution lookup 2" { "Multiple Substitution lookup 2 subtable"  } []

StartChar: .notdef
Encoding: 65536 -1 0
Width: 676
Flags: W
LayerCount: 2
Fore
SplineSet
26 0 m 1,0,-1
 156 660 l 1,1,-1
 680 660 l 1,2,-1
 550 0 l 1,3,-1
 26 0 l 1,0,-1
370 418 m 1,4,-1
 374 418 l 1,5,-1
 432 514 l 1,6,-1
 460 562 l 1,7,-1
 338 562 l 1,8,-1
 350 514 l 1,9,-1
 370 418 l 1,4,-1
242 98 m 1,10,-1
 372 98 l 1,11,-1
 358 164 l 1,12,-1
 342 260 l 1,13,-1
 338 260 l 1,14,-1
 284 164 l 1,15,-1
 242 98 l 1,10,-1
162 162 m 1,16,-1
 280 340 l 1,17,-1
 234 516 l 1,18,-1
 162 162 l 1,16,-1
478 162 m 1,19,-1
 550 516 l 1,20,-1
 432 340 l 1,21,-1
 478 162 l 1,19,-1
EndSplineSet
Validated: 1
EndChar

StartChar: A
Encoding: 65 65 2
Width: 562
GlyphClass: 2
Flags: W
AnchorPoint: "Anchor-6" 432 0 basechar 0
AnchorPoint: "Anchor-3" 242 -22 basechar 0
AnchorPoint: "Anchor-1" 380 682 basechar 0
LayerCount: 2
Fore
SplineSet
266 344 m 2,0,-1
 232 268 l 1,1,-1
 352 268 l 1,2,-1
 350 344 l 2,3,4
 348 391 348 391 347 435.5 c 128,-1,5
 346 480 346 480 346 530 c 1,6,-1
 342 530 l 1,7,8
 322 482 322 482 304.5 436.5 c 128,-1,9
 287 391 287 391 266 344 c 2,0,-1
-66 0 m 1,10,-1
 274 650 l 1,11,-1
 466 650 l 1,12,-1
 528 0 l 1,13,-1
 360 0 l 1,14,-1
 356 148 l 1,15,-1
 177 148 l 1,16,-1
 110 0 l 1,17,-1
 -66 0 l 1,10,-1
EndSplineSet
Validated: 1
EndChar

StartChar: B
Encoding: 66 66 3
Width: 612
GlyphClass: 2
Flags: W
AnchorPoint: "Anchor-3" 272 -22 basechar 0
AnchorPoint: "Anchor-1" 360 682 basechar 0
LayerCount: 2
Fore
SplineSet
26 0 m 1,0,-1
 156 650 l 1,1,-1
 364 650 l 2,2,3
 413 650 413 650 454.5 641.5 c 128,-1,4
 496 633 496 633 526 615 c 128,-1,5
 556 597 556 597 573 568.5 c 128,-1,6
 590 540 590 540 590 500 c 0,7,8
 590 447 590 447 554 403 c 128,-1,9
 518 359 518 359 450 338 c 1,10,-1
 448 334 l 1,11,12
 558 307 558 307 558 216 c 0,13,14
 558 157 558 157 534.5 116 c 128,-1,15
 511 75 511 75 472 49.5 c 128,-1,16
 433 24 433 24 381 12 c 128,-1,17
 329 0 329 0 272 0 c 2,18,-1
 26 0 l 1,0,-1
264 390 m 1,19,-1
 318 390 l 2,20,21
 377 390 377 390 401.5 412 c 128,-1,22
 426 434 426 434 426 472 c 0,23,24
 426 528 426 528 338 528 c 2,25,-1
 292 528 l 1,26,-1
 264 390 l 1,19,-1
210 122 m 1,27,-1
 284 122 l 2,28,29
 344 122 344 122 374 145.5 c 128,-1,30
 404 169 404 169 404 210 c 0,31,32
 404 282 404 282 316 282 c 2,33,-1
 242 282 l 1,34,-1
 210 122 l 1,27,-1
EndSplineSet
Validated: 1
EndChar

StartChar: C
Encoding: 67 67 4
Width: 574
GlyphClass: 2
Flags: W
AnchorPoint: "Anchor-3" 288 -22 basechar 0
AnchorPoint: "Anchor-2" 294 0 basechar 0
AnchorPoint: "Anchor-1" 450 682 basechar 0
LayerCount: 2
Fore
SplineSet
310 -12 m 0,0,1
 253 -12 253 -12 206 6.5 c 128,-1,2
 159 25 159 25 126 60 c 128,-1,3
 93 95 93 95 74.5 146.5 c 128,-1,4
 56 198 56 198 56 264 c 0,5,6
 56 351 56 351 83.5 424 c 128,-1,7
 111 497 111 497 159 550 c 128,-1,8
 207 603 207 603 270.5 632.5 c 128,-1,9
 334 662 334 662 406 662 c 0,10,11
 463 662 463 662 509 634.5 c 128,-1,12
 555 607 555 607 584 556 c 1,13,-1
 476 472 l 1,14,15
 441 524 441 524 398 524 c 0,16,17
 363 524 363 524 330.5 504.5 c 128,-1,18
 298 485 298 485 273.5 451.5 c 128,-1,19
 249 418 249 418 234.5 372 c 128,-1,20
 220 326 220 326 220 274 c 0,21,22
 220 203 220 203 249 164.5 c 128,-1,23
 278 126 278 126 344 126 c 0,24,25
 370 126 370 126 395.5 139 c 128,-1,26
 421 152 421 152 444 172 c 1,27,-1
 510 70 l 1,28,29
 496 57 496 57 476 42.5 c 128,-1,30
 456 28 456 28 430.5 16 c 128,-1,31
 405 4 405 4 374.5 -4 c 128,-1,32
 344 -12 344 -12 310 -12 c 0,0,1
EndSplineSet
Validated: 1
EndChar

StartChar: D
Encoding: 68 68 5
Width: 626
GlyphClass: 2
Flags: W
AnchorPoint: "Anchor-3" 296 -22 basechar 0
AnchorPoint: "Anchor-1" 410 682 basechar 0
LayerCount: 2
Fore
SplineSet
26 0 m 1,0,-1
 156 650 l 1,1,-1
 308 650 l 2,2,3
 376 650 376 650 430.5 634.5 c 128,-1,4
 485 619 485 619 522.5 587.5 c 128,-1,5
 560 556 560 556 580 508 c 128,-1,6
 600 460 600 460 600 394 c 0,7,8
 600 295 600 295 572.5 221 c 128,-1,9
 545 147 545 147 496.5 98 c 128,-1,10
 448 49 448 49 382 24.5 c 128,-1,11
 316 0 316 0 240 0 c 2,12,-1
 26 0 l 1,0,-1
212 128 m 1,13,-1
 236 128 l 2,14,15
 276 128 276 128 312.5 141.5 c 128,-1,16
 349 155 349 155 376.5 185.5 c 128,-1,17
 404 216 404 216 420 264.5 c 128,-1,18
 436 313 436 313 436 384 c 0,19,20
 436 422 436 422 426 448.5 c 128,-1,21
 416 475 416 475 398.5 491.5 c 128,-1,22
 381 508 381 508 356.5 515 c 128,-1,23
 332 522 332 522 304 522 c 2,24,-1
 290 522 l 1,25,-1
 212 128 l 1,13,-1
EndSplineSet
Validated: 1
EndChar

StartChar: E
Encoding: 69 69 6
Width: 536
GlyphClass: 2
Flags: W
AnchorPoint: "Anchor-6" 348 0 basechar 0
AnchorPoint: "Anchor-3" 250 -22 basechar 0
AnchorPoint: "Anchor-1" 380 682 basechar 0
LayerCount: 2
Fore
SplineSet
26 0 m 1,0,-1
 156 650 l 1,1,-1
 552 650 l 1,2,-1
 526 516 l 1,3,-1
 288 516 l 1,4,-1
 266 402 l 1,5,-1
 468 402 l 1,6,-1
 442 268 l 1,7,-1
 240 268 l 1,8,-1
 212 134 l 1,9,-1
 458 134 l 1,10,-1
 432 0 l 1,11,-1
 26 0 l 1,0,-1
EndSplineSet
Validated: 1
EndChar

StartChar: F
Encoding: 70 70 7
Width: 516
GlyphClass: 2
Flags: W
AnchorPoint: "Anchor-3" 110 -22 basechar 0
AnchorPoint: "Anchor-1" 378 682 basechar 0
LayerCount: 2
Fore
SplineSet
26 0 m 1,0,-1
 156 650 l 1,1,-1
 552 650 l 1,2,-1
 526 516 l 1,3,-1
 288 516 l 1,4,-1
 262 382 l 1,5,-1
 464 382 l 1,6,-1
 438 248 l 1,7,-1
 236 248 l 1,8,-1
 186 0 l 1,9,-1
 26 0 l 1,0,-1
EndSplineSet
Validated: 1
EndChar

StartChar: G
Encoding: 71 71 8
Width: 620
GlyphClass: 2
Flags: W
AnchorPoint: "Anchor-3" 322 -22 basechar 0
AnchorPoint: "Anchor-1" 444 682 basechar 0
LayerCount: 2
Fore
SplineSet
320 -12 m 0,0,1
 259 -12 259 -12 210.5 6.5 c 128,-1,2
 162 25 162 25 127.5 60 c 128,-1,3
 93 95 93 95 74.5 146.5 c 128,-1,4
 56 198 56 198 56 264 c 0,5,6
 56 351 56 351 84 424 c 128,-1,7
 112 497 112 497 160.5 550 c 128,-1,8
 209 603 209 603 274.5 632.5 c 128,-1,9
 340 662 340 662 416 662 c 0,10,11
 481 662 481 662 528 634.5 c 128,-1,12
 575 607 575 607 604 556 c 1,13,-1
 496 472 l 1,14,15
 478 499 478 499 457.5 511.5 c 128,-1,16
 437 524 437 524 408 524 c 0,17,18
 369 524 369 524 334.5 504.5 c 128,-1,19
 300 485 300 485 274.5 451.5 c 128,-1,20
 249 418 249 418 234.5 372 c 128,-1,21
 220 326 220 326 220 274 c 0,22,23
 220 203 220 203 249.5 163.5 c 128,-1,24
 279 124 279 124 348 124 c 0,25,26
 362 124 362 124 377.5 128 c 128,-1,27
 393 132 393 132 404 140 c 1,28,-1
 428 248 l 1,29,-1
 332 248 l 1,30,-1
 356 378 l 1,31,-1
 592 378 l 1,32,-1
 530 56 l 1,33,34
 492 27 492 27 437.5 7.5 c 128,-1,35
 383 -12 383 -12 320 -12 c 0,0,1
EndSplineSet
Validated: 1
EndChar

StartChar: H
Encoding: 72 72 9
Width: 664
GlyphClass: 2
Flags: W
AnchorPoint: "Anchor-3" 290 -22 basechar 0
AnchorPoint: "Anchor-1" 420 682 basechar 0
LayerCount: 2
Fore
SplineSet
26 0 m 1,0,-1
 156 650 l 1,1,-1
 316 650 l 1,2,-1
 266 406 l 1,3,-1
 460 406 l 1,4,-1
 508 650 l 1,5,-1
 668 650 l 1,6,-1
 538 0 l 1,7,-1
 378 0 l 1,8,-1
 432 266 l 1,9,-1
 238 266 l 1,10,-1
 186 0 l 1,11,-1
 26 0 l 1,0,-1
EndSplineSet
Validated: 1
EndChar

StartChar: I
Encoding: 73 73 10
Width: 382
GlyphClass: 2
Flags: W
LayerCount: 2
Fore
SplineSet
-6 0 m 1,0,-1
 22 134 l 1,1,-1
 86 134 l 1,2,-1
 164 516 l 1,3,-1
 98 516 l 1,4,-1
 126 650 l 1,5,-1
 416 650 l 1,6,-1
 388 516 l 1,7,-1
 324 516 l 1,8,-1
 246 134 l 1,9,-1
 314 134 l 1,10,-1
 286 0 l 1,11,-1
 -6 0 l 1,0,-1
EndSplineSet
Validated: 1
Substitution2: "'ss04' Style Set 4 in Latin lookup 23 subtable" I.a
Substitution2: "'aalt' Access All Alternates in Latin lookup 0 subtable" I.a
EndChar

StartChar: J
Encoding: 74 74 11
Width: 504
GlyphClass: 2
Flags: W
AnchorPoint: "Anchor-3" 168 -30 basechar 0
AnchorPoint: "Anchor-1" 444 682 basechar 0
LayerCount: 2
Fore
SplineSet
182 -12 m 0,0,1
 126 -12 126 -12 74 13 c 128,-1,2
 22 38 22 38 -10 86 c 1,3,-1
 86 184 l 1,4,5
 101 163 101 163 125.5 144.5 c 128,-1,6
 150 126 150 126 182 126 c 0,7,8
 217 126 217 126 238.5 152.5 c 128,-1,9
 260 179 260 179 272 239 c 2,10,-1
 354 650 l 1,11,-1
 514 650 l 1,12,-1
 426 211 l 2,13,14
 417 166 417 166 398.5 126 c 128,-1,15
 380 86 380 86 350.5 55 c 128,-1,16
 321 24 321 24 279 6 c 128,-1,17
 237 -12 237 -12 182 -12 c 0,0,1
EndSplineSet
Validated: 1
EndChar

StartChar: K
Encoding: 75 75 12
Width: 622
GlyphClass: 2
Flags: W
AnchorPoint: "Anchor-3" 298 -22 basechar 0
AnchorPoint: "Anchor-1" 430 682 basechar 0
LayerCount: 2
Fore
SplineSet
26 0 m 1,0,-1
 156 650 l 1,1,-1
 316 650 l 1,2,-1
 267 404 l 1,3,-1
 271 404 l 1,4,-1
 484 650 l 1,5,-1
 658 650 l 1,6,-1
 424 376 l 1,7,-1
 568 0 l 1,8,-1
 402 0 l 1,9,-1
 306 276 l 1,10,-1
 222 180 l 1,11,-1
 186 0 l 1,12,-1
 26 0 l 1,0,-1
EndSplineSet
Validated: 1
EndChar

StartChar: L
Encoding: 76 76 13
Width: 514
GlyphClass: 2
Flags: W
AnchorPoint: "Anchor-3" 240 -22 basechar 0
AnchorPoint: "Anchor-1" 266 682 basechar 0
LayerCount: 2
Fore
SplineSet
26 0 m 1,0,-1
 156 650 l 1,1,-1
 316 650 l 1,2,-1
 212 134 l 1,3,-1
 448 134 l 1,4,-1
 422 0 l 1,5,-1
 26 0 l 1,0,-1
EndSplineSet
Validated: 1
EndChar

StartChar: M
Encoding: 77 77 14
Width: 754
GlyphClass: 2
Flags: W
AnchorPoint: "Anchor-3" 334 -30 basechar 0
AnchorPoint: "Anchor-1" 454 682 basechar 0
LayerCount: 2
Fore
SplineSet
26 0 m 1,0,-1
 156 650 l 1,1,-1
 322 650 l 1,2,-1
 364 370 l 1,3,-1
 379 260 l 1,4,-1
 383 260 l 1,5,-1
 440 370 l 1,6,-1
 592 650 l 1,7,-1
 758 650 l 1,8,-1
 628 0 l 1,9,-1
 478 0 l 1,10,-1
 524 216 l 2,11,12
 529 241 529 241 536.5 271 c 128,-1,13
 544 301 544 301 553 331 c 128,-1,14
 562 361 562 361 571 390 c 128,-1,15
 580 419 580 419 588 444 c 1,16,-1
 585 444 l 1,17,-1
 504 292 l 1,18,-1
 366 56 l 1,19,-1
 306 56 l 1,20,-1
 264 292 l 1,21,-1
 244 444 l 1,22,-1
 241 444 l 1,23,24
 239 419 239 419 236.5 389.5 c 128,-1,25
 234 360 234 360 231 330 c 128,-1,26
 228 300 228 300 224.5 270.5 c 128,-1,27
 221 241 221 241 216 216 c 2,28,-1
 172 0 l 1,29,-1
 26 0 l 1,0,-1
EndSplineSet
Validated: 1
EndChar

StartChar: N
Encoding: 78 78 15
Width: 652
GlyphClass: 2
Flags: W
AnchorPoint: "Anchor-3" 308 -30 basechar 0
AnchorPoint: "Anchor-1" 432 682 basechar 0
LayerCount: 2
Fore
SplineSet
26 0 m 1,0,-1
 156 650 l 1,1,-1
 310 650 l 1,2,-1
 400 342 l 1,3,-1
 432 196 l 1,4,-1
 436 196 l 1,5,6
 438 222 438 222 440 253 c 128,-1,7
 442 284 442 284 445 316 c 128,-1,8
 448 348 448 348 452 380.5 c 128,-1,9
 456 413 456 413 462 442 c 2,10,-1
 504 650 l 1,11,-1
 656 650 l 1,12,-1
 526 0 l 1,13,-1
 372 0 l 1,14,-1
 282 308 l 1,15,-1
 252 454 l 1,16,-1
 248 454 l 1,17,18
 243 398 243 398 237.5 333.5 c 128,-1,19
 232 269 232 269 220 210 c 2,20,-1
 178 0 l 1,21,-1
 26 0 l 1,0,-1
EndSplineSet
Validated: 1
EndChar

StartChar: O
Encoding: 79 79 16
Width: 670
GlyphClass: 2
Flags: W
AnchorPoint: "Anchor-6" 304 0 basechar 0
AnchorPoint: "Anchor-4" 534 644 basechar 0
AnchorPoint: "Anchor-3" 298 -22 basechar 0
AnchorPoint: "Anchor-1" 434 682 basechar 0
LayerCount: 2
Fore
SplineSet
308 -12 m 0,0,1
 252 -12 252 -12 205.5 6.5 c 128,-1,2
 159 25 159 25 126 60 c 128,-1,3
 93 95 93 95 74.5 146.5 c 128,-1,4
 56 198 56 198 56 264 c 0,5,6
 56 355 56 355 84.5 428.5 c 128,-1,7
 113 502 113 502 159.5 554 c 128,-1,8
 206 606 206 606 266.5 634 c 128,-1,9
 327 662 327 662 392 662 c 0,10,11
 448 662 448 662 494.5 643.5 c 128,-1,12
 541 625 541 625 574 590 c 128,-1,13
 607 555 607 555 625.5 503.5 c 128,-1,14
 644 452 644 452 644 386 c 0,15,16
 644 295 644 295 615.5 221.5 c 128,-1,17
 587 148 587 148 540.5 96 c 128,-1,18
 494 44 494 44 433 16 c 128,-1,19
 372 -12 372 -12 308 -12 c 0,0,1
316 126 m 0,20,21
 344 126 344 126 373 144 c 128,-1,22
 402 162 402 162 426 195 c 128,-1,23
 450 228 450 228 465 274 c 128,-1,24
 480 320 480 320 480 376 c 0,25,26
 480 447 480 447 454.5 485.5 c 128,-1,27
 429 524 429 524 384 524 c 0,28,29
 356 524 356 524 327 506 c 128,-1,30
 298 488 298 488 274 455 c 128,-1,31
 250 422 250 422 235 376 c 128,-1,32
 220 330 220 330 220 274 c 0,33,34
 220 203 220 203 245.5 164.5 c 128,-1,35
 271 126 271 126 316 126 c 0,20,21
EndSplineSet
Validated: 1
EndChar

StartChar: P
Encoding: 80 80 17
Width: 596
GlyphClass: 2
Flags: W
AnchorPoint: "Anchor-3" 110 -30 basechar 0
AnchorPoint: "Anchor-1" 398 682 basechar 0
LayerCount: 2
Fore
SplineSet
26 0 m 1,0,-1
 156 650 l 1,1,-1
 370 650 l 2,2,3
 418 650 418 650 460 640.5 c 128,-1,4
 502 631 502 631 533 610 c 128,-1,5
 564 589 564 589 582 555 c 128,-1,6
 600 521 600 521 600 472 c 0,7,8
 600 401 600 401 575 351.5 c 128,-1,9
 550 302 550 302 508 271 c 128,-1,10
 466 240 466 240 410.5 226 c 128,-1,11
 355 212 355 212 294 212 c 2,12,-1
 228 212 l 1,13,-1
 186 0 l 1,14,-1
 26 0 l 1,0,-1
254 338 m 1,15,-1
 313 338 l 2,16,17
 375 338 375 338 408.5 366 c 128,-1,18
 442 394 442 394 442 448 c 0,19,20
 442 487 442 487 417.5 505.5 c 128,-1,21
 393 524 393 524 348 524 c 2,22,-1
 290 524 l 1,23,-1
 254 338 l 1,15,-1
EndSplineSet
Validated: 1
EndChar

StartChar: Q
Encoding: 81 81 18
Width: 670
GlyphClass: 2
Flags: W
AnchorPoint: "Anchor-1" 434 682 basechar 0
LayerCount: 2
Fore
SplineSet
316 126 m 0,0,1
 344 126 344 126 373 144 c 128,-1,2
 402 162 402 162 426 195 c 128,-1,3
 450 228 450 228 465 274 c 128,-1,4
 480 320 480 320 480 376 c 0,5,6
 480 447 480 447 454.5 485.5 c 128,-1,7
 429 524 429 524 384 524 c 0,8,9
 356 524 356 524 327 506 c 128,-1,10
 298 488 298 488 274 455 c 128,-1,11
 250 422 250 422 235 376 c 128,-1,12
 220 330 220 330 220 274 c 0,13,14
 220 203 220 203 245.5 164.5 c 128,-1,15
 271 126 271 126 316 126 c 0,0,1
492 -182 m 0,16,17
 279 -182 279 -182 203 7 c 1,18,19
 134 35 134 35 95 100 c 128,-1,20
 56 165 56 165 56 264 c 0,21,22
 56 355 56 355 84.5 428.5 c 128,-1,23
 113 502 113 502 159.5 554 c 128,-1,24
 206 606 206 606 266.5 634 c 128,-1,25
 327 662 327 662 392 662 c 0,26,27
 448 662 448 662 494.5 643.5 c 128,-1,28
 541 625 541 625 574 590 c 128,-1,29
 607 555 607 555 625.5 503.5 c 128,-1,30
 644 452 644 452 644 386 c 0,31,32
 644 307 644 307 622.5 241 c 128,-1,33
 601 175 601 175 564 125 c 128,-1,34
 527 75 527 75 478 42 c 128,-1,35
 429 9 429 9 374 -4 c 1,36,37
 395 -30 395 -30 430 -42 c 128,-1,38
 465 -54 465 -54 502 -54 c 0,39,40
 523 -54 523 -54 539 -51.5 c 128,-1,41
 555 -49 555 -49 572 -44 c 1,42,-1
 578 -164 l 1,43,44
 560 -172 560 -172 535 -177 c 128,-1,45
 510 -182 510 -182 492 -182 c 0,16,17
EndSplineSet
Validated: 1
EndChar

StartChar: R
Encoding: 82 82 19
Width: 612
GlyphClass: 2
Flags: W
AnchorPoint: "Anchor-3" 292 -30 basechar 0
AnchorPoint: "Anchor-1" 400 682 basechar 0
LayerCount: 2
Fore
SplineSet
26 0 m 1,0,-1
 156 650 l 1,1,-1
 370 650 l 2,2,3
 419 650 419 650 461 641 c 128,-1,4
 503 632 503 632 534 611.5 c 128,-1,5
 565 591 565 591 582.5 558 c 128,-1,6
 600 525 600 525 600 478 c 0,7,8
 600 433 600 433 588.5 396.5 c 128,-1,9
 577 360 577 360 556 331.5 c 128,-1,10
 535 303 535 303 506 282.5 c 128,-1,11
 477 262 477 262 443 249 c 1,12,-1
 540 0 l 1,13,-1
 372 0 l 1,14,-1
 297 224 l 1,15,-1
 230 224 l 1,16,-1
 186 0 l 1,17,-1
 26 0 l 1,0,-1
256 350 m 1,18,-1
 314 350 l 2,19,20
 379 350 379 350 410.5 378.5 c 128,-1,21
 442 407 442 407 442 454 c 0,22,23
 442 490 442 490 417.5 507 c 128,-1,24
 393 524 393 524 348 524 c 2,25,-1
 290 524 l 1,26,-1
 256 350 l 1,18,-1
EndSplineSet
Validated: 1
EndChar

StartChar: S
Encoding: 83 83 20
Width: 538
GlyphClass: 2
Flags: W
AnchorPoint: "Anchor-3" 248 -30 basechar 0
AnchorPoint: "Anchor-2" 254 0 basechar 0
AnchorPoint: "Anchor-1" 376 690 basechar 0
LayerCount: 2
Fore
SplineSet
240 -12 m 0,0,1
 178 -12 178 -12 115.5 16.5 c 128,-1,2
 53 45 53 45 2 113 c 1,3,-1
 116 203 l 1,4,5
 142 168 142 168 178 146 c 128,-1,6
 214 124 214 124 252 124 c 0,7,8
 287 124 287 124 307.5 139 c 128,-1,9
 328 154 328 154 328 181 c 0,10,11
 328 203 328 203 308 216.5 c 128,-1,12
 288 230 288 230 254 251 c 2,13,-1
 198 286 l 2,14,15
 153 315 153 315 127.5 353 c 128,-1,16
 102 391 102 391 102 452 c 0,17,18
 102 496 102 496 121 534 c 128,-1,19
 140 572 140 572 172 600.5 c 128,-1,20
 204 629 204 629 247.5 645.5 c 128,-1,21
 291 662 291 662 341 662 c 0,22,23
 398 662 398 662 450.5 635.5 c 128,-1,24
 503 609 503 609 543 561 c 1,25,-1
 443 467 l 1,26,27
 418 492 418 492 392.5 508 c 128,-1,28
 367 524 367 524 335 524 c 0,29,30
 300 524 300 524 283 507.5 c 128,-1,31
 266 491 266 491 266 468 c 0,32,33
 266 448 266 448 286.5 434.5 c 128,-1,34
 307 421 307 421 346 396 c 2,35,-1
 406 359 l 2,36,37
 453 330 453 330 473.5 295.5 c 128,-1,38
 494 261 494 261 494 204 c 0,39,40
 494 159 494 159 476 120 c 128,-1,41
 458 81 458 81 425 51.5 c 128,-1,42
 392 22 392 22 345 5 c 128,-1,43
 298 -12 298 -12 240 -12 c 0,0,1
EndSplineSet
Validated: 1
EndChar

StartChar: T
Encoding: 84 84 21
Width: 540
GlyphClass: 2
Flags: W
AnchorPoint: "Anchor-3" 220 -22 basechar 0
AnchorPoint: "Anchor-2" 226 0 basechar 0
AnchorPoint: "Anchor-1" 366 682 basechar 0
LayerCount: 2
Fore
SplineSet
142 0 m 1,0,-1
 244 516 l 1,1,-1
 80 516 l 1,2,-1
 106 650 l 1,3,-1
 594 650 l 1,4,-1
 568 516 l 1,5,-1
 404 516 l 1,6,-1
 302 0 l 1,7,-1
 142 0 l 1,0,-1
EndSplineSet
Validated: 1
EndChar

StartChar: U
Encoding: 85 85 22
Width: 654
GlyphClass: 2
Flags: W
AnchorPoint: "Anchor-6" 296 0 basechar 0
AnchorPoint: "Anchor-4" 620 660 basechar 0
AnchorPoint: "Anchor-3" 290 -22 basechar 0
AnchorPoint: "Anchor-1" 428 682 basechar 0
LayerCount: 2
Fore
SplineSet
88 332 m 2,0,-1
 152 650 l 1,1,-1
 312 650 l 1,2,-1
 242 300 l 2,3,4
 239 280 239 280 236.5 262 c 128,-1,5
 234 244 234 244 234 226 c 0,6,7
 234 176 234 176 252 151 c 128,-1,8
 270 126 270 126 320 126 c 0,9,10
 363 126 363 126 389 162 c 128,-1,11
 415 198 415 198 432 282 c 2,12,-1
 506 650 l 1,13,-1
 662 650 l 1,14,-1
 588 286 l 2,15,16
 558 132 558 132 493 60 c 128,-1,17
 428 -12 428 -12 316 -12 c 0,18,19
 194 -12 194 -12 134 44.5 c 128,-1,20
 74 101 74 101 74 222 c 0,21,22
 74 245 74 245 78.5 275.5 c 128,-1,23
 83 306 83 306 88 332 c 2,0,-1
EndSplineSet
Validated: 1
EndChar

StartChar: V
Encoding: 86 86 23
Width: 576
GlyphClass: 2
Flags: W
AnchorPoint: "Anchor-3" 248 -30 basechar 0
AnchorPoint: "Anchor-1" 390 682 basechar 0
LayerCount: 2
Fore
SplineSet
132 0 m 1,0,-1
 78 650 l 1,1,-1
 246 650 l 1,2,-1
 258 346 l 2,3,4
 260 295 260 295 261 243.5 c 128,-1,5
 262 192 262 192 262 140 c 1,6,-1
 266 140 l 1,7,8
 288 192 288 192 309 243 c 128,-1,9
 330 294 330 294 352 346 c 2,10,-1
 484 650 l 1,11,-1
 660 650 l 1,12,-1
 326 0 l 1,13,-1
 132 0 l 1,0,-1
EndSplineSet
Validated: 1
EndChar

StartChar: W
Encoding: 87 87 24
Width: 808
GlyphClass: 2
Flags: W
AnchorPoint: "Anchor-3" 346 -30 basechar 0
AnchorPoint: "Anchor-1" 498 682 basechar 0
LayerCount: 2
Fore
SplineSet
70 0 m 1,0,-1
 98 650 l 1,1,-1
 262 650 l 1,2,-1
 236 356 l 2,3,4
 231 305 231 305 225.5 252.5 c 128,-1,5
 220 200 220 200 212 148 c 1,6,-1
 216 148 l 1,7,8
 236 200 236 200 257.5 252.5 c 128,-1,9
 279 305 279 305 298 356 c 2,10,-1
 421 650 l 1,11,-1
 554 650 l 1,12,-1
 554 356 l 2,13,14
 552 306 552 306 549.5 253.5 c 128,-1,15
 547 201 547 201 544 148 c 1,16,-1
 548 148 l 1,17,18
 565 201 565 201 583 253 c 128,-1,19
 601 305 601 305 616 356 c 2,20,-1
 714 650 l 1,21,-1
 866 650 l 1,22,-1
 620 0 l 1,23,-1
 418 0 l 1,24,-1
 426 278 l 2,25,26
 426 293 426 293 427 311.5 c 128,-1,27
 428 330 428 330 429.5 350 c 128,-1,28
 431 370 431 370 433 390.5 c 128,-1,29
 435 411 435 411 437 429 c 1,30,-1
 433 429 l 1,31,32
 420 393 420 393 405 354.5 c 128,-1,33
 390 316 390 316 376 278 c 2,34,-1
 268 0 l 1,35,-1
 70 0 l 1,0,-1
EndSplineSet
Validated: 1
EndChar

StartChar: X
Encoding: 88 88 25
Width: 576
GlyphClass: 2
Flags: W
AnchorPoint: "Anchor-3" 290 -30 basechar 0
AnchorPoint: "Anchor-1" 386 682 basechar 0
LayerCount: 2
Fore
SplineSet
-36 0 m 1,0,-1
 202 334 l 1,1,-1
 104 650 l 1,2,-1
 282 650 l 1,3,-1
 306 536 l 2,4,5
 311 513 311 513 316 487 c 128,-1,6
 321 461 321 461 328 430 c 1,7,-1
 332 430 l 1,8,9
 349 461 349 461 364 487 c 128,-1,10
 379 513 379 513 392 536 c 2,11,-1
 456 650 l 1,12,-1
 626 650 l 1,13,-1
 400 328 l 1,14,-1
 506 0 l 1,15,-1
 328 0 l 1,16,-1
 300 126 l 2,17,18
 294 152 294 152 288 177.5 c 128,-1,19
 282 203 282 203 276 232 c 1,20,-1
 272 232 l 1,21,22
 255 203 255 203 240 177.5 c 128,-1,23
 225 152 225 152 210 126 c 2,24,-1
 134 0 l 1,25,-1
 -36 0 l 1,0,-1
EndSplineSet
Validated: 1
EndChar

StartChar: Y
Encoding: 89 89 26
Width: 528
GlyphClass: 2
Flags: W
AnchorPoint: "Anchor-3" 214 -30 basechar 0
AnchorPoint: "Anchor-1" 356 682 basechar 0
LayerCount: 2
Fore
SplineSet
137 0 m 1,0,-1
 182 228 l 1,1,-1
 79 650 l 1,2,-1
 245 650 l 1,3,-1
 266 506 l 2,4,5
 272 468 272 468 277 434.5 c 128,-1,6
 282 401 282 401 288 362 c 1,7,-1
 292 362 l 1,8,9
 312 401 312 401 329.5 435.5 c 128,-1,10
 347 470 347 470 368 508 c 2,11,-1
 446 650 l 1,12,-1
 618 650 l 1,13,-1
 342 228 l 1,14,-1
 296 0 l 1,15,-1
 137 0 l 1,0,-1
EndSplineSet
Validated: 1
EndChar

StartChar: Z
Encoding: 90 90 27
Width: 530
GlyphClass: 2
Flags: W
AnchorPoint: "Anchor-3" 218 -30 basechar 0
AnchorPoint: "Anchor-1" 368 682 basechar 0
LayerCount: 2
Fore
SplineSet
-6 0 m 1,0,-1
 14 96 l 1,1,-1
 344 516 l 1,2,-1
 104 516 l 1,3,-1
 130 650 l 1,4,-1
 562 650 l 1,5,-1
 542 554 l 1,6,-1
 216 134 l 1,7,-1
 480 134 l 1,8,-1
 452 0 l 1,9,-1
 -6 0 l 1,0,-1
EndSplineSet
Validated: 1
EndChar

StartChar: a
Encoding: 97 97 28
Width: 558
GlyphClass: 2
Flags: W
AnchorPoint: "Anchor-5" 356 0 basechar 0
AnchorPoint: "Anchor-3" 250 -22 basechar 0
AnchorPoint: "Anchor-0" 334 522 basechar 0
LayerCount: 2
Fore
SplineSet
168 -12 m 0,0,1
 102 -12 102 -12 65 35.5 c 128,-1,2
 28 83 28 83 28 172 c 0,3,4
 28 243 28 243 50 305 c 128,-1,5
 72 367 72 367 109 413 c 128,-1,6
 146 459 146 459 194 485.5 c 128,-1,7
 242 512 242 512 294 512 c 0,8,9
 326 512 326 512 355 495.5 c 128,-1,10
 384 479 384 479 398 450 c 1,11,-1
 400 450 l 1,12,-1
 422 500 l 1,13,-1
 550 500 l 1,14,-1
 450 0 l 1,15,-1
 320 0 l 1,16,-1
 320 62 l 1,17,-1
 318 62 l 1,18,19
 285 27 285 27 244.5 7.5 c 128,-1,20
 204 -12 204 -12 168 -12 c 0,0,1
240 118 m 0,21,22
 260 118 260 118 284 130.5 c 128,-1,23
 308 143 308 143 328 184 c 1,24,-1
 360 344 l 1,25,26
 351 364 351 364 335.5 373 c 128,-1,27
 320 382 320 382 306 382 c 0,28,29
 284 382 284 382 264 368 c 128,-1,30
 244 354 244 354 228.5 329 c 128,-1,31
 213 304 213 304 203.5 269 c 128,-1,32
 194 234 194 234 194 192 c 0,33,34
 194 153 194 153 206.5 135.5 c 128,-1,35
 219 118 219 118 240 118 c 0,21,22
EndSplineSet
Validated: 1
Substitution2: "'ss02' Style Set 2 in Latin lookup 21 subtable" a.a
Substitution2: "'sups' Superscript in Latin lookup 12 subtable" a.sups
AlternateSubs2: "'aalt' Access All Alternates in Latin lookup 1 subtable" a.sups a.a
EndChar

StartChar: b
Encoding: 98 98 29
Width: 560
GlyphClass: 2
Flags: W
AnchorPoint: "Anchor-3" 244 -22 basechar 0
AnchorPoint: "Anchor-0" 238 730 basechar 0
LayerCount: 2
Fore
SplineSet
140 0 m 1,0,-1
 8 0 l 1,1,-1
 148 696 l 1,2,-1
 308 696 l 1,3,-1
 278 550 l 1,4,-1
 252 458 l 1,5,-1
 254 458 l 1,6,7
 286 484 286 484 320.5 498 c 128,-1,8
 355 512 355 512 390 512 c 0,9,10
 456 512 456 512 493 464.5 c 128,-1,11
 530 417 530 417 530 328 c 0,12,13
 530 257 530 257 508 195 c 128,-1,14
 486 133 486 133 449 87 c 128,-1,15
 412 41 412 41 364 14.5 c 128,-1,16
 316 -12 316 -12 264 -12 c 0,17,18
 232 -12 232 -12 205 4.5 c 128,-1,19
 178 21 178 21 164 50 c 1,20,-1
 162 50 l 1,21,-1
 140 0 l 1,0,-1
318 382 m 0,22,23
 298 382 298 382 275 370.5 c 128,-1,24
 252 359 252 359 234 326 c 1,25,-1
 200 156 l 1,26,27
 208 136 208 136 222.5 127 c 128,-1,28
 237 118 237 118 252 118 c 0,29,30
 274 118 274 118 294 132 c 128,-1,31
 314 146 314 146 329.5 171 c 128,-1,32
 345 196 345 196 354.5 231 c 128,-1,33
 364 266 364 266 364 308 c 0,34,35
 364 347 364 347 351.5 364.5 c 128,-1,36
 339 382 339 382 318 382 c 0,22,23
EndSplineSet
Validated: 1
Substitution2: "'sups' Superscript in Latin lookup 12 subtable" b.sups
Substitution2: "'aalt' Access All Alternates in Latin lookup 0 subtable" b.sups
EndChar

StartChar: c
Encoding: 99 99 30
Width: 446
GlyphClass: 2
Flags: W
AnchorPoint: "Anchor-3" 224 -22 basechar 0
AnchorPoint: "Anchor-2" 208 0 basechar 0
AnchorPoint: "Anchor-0" 324 522 basechar 0
LayerCount: 2
Fore
SplineSet
226 -12 m 0,0,1
 184 -12 184 -12 147.5 2 c 128,-1,2
 111 16 111 16 84 42.5 c 128,-1,3
 57 69 57 69 41.5 107.5 c 128,-1,4
 26 146 26 146 26 196 c 0,5,6
 26 259 26 259 48.5 316 c 128,-1,7
 71 373 71 373 111.5 416.5 c 128,-1,8
 152 460 152 460 206.5 486 c 128,-1,9
 261 512 261 512 326 512 c 0,10,11
 374 512 374 512 409 492.5 c 128,-1,12
 444 473 444 473 462 450 c 1,13,-1
 374 356 l 1,14,15
 360 370 360 370 347 377 c 128,-1,16
 334 384 334 384 316 384 c 0,17,18
 289 384 289 384 266 369.5 c 128,-1,19
 243 355 243 355 226 329.5 c 128,-1,20
 209 304 209 304 199.5 270 c 128,-1,21
 190 236 190 236 190 198 c 256,22,23
 190 160 190 160 208 138 c 128,-1,24
 226 116 226 116 262 116 c 0,25,26
 285 116 285 116 300.5 124.5 c 128,-1,27
 316 133 316 133 330 144 c 1,28,-1
 396 46 l 1,29,30
 367 25 367 25 326.5 6.5 c 128,-1,31
 286 -12 286 -12 226 -12 c 0,0,1
EndSplineSet
Validated: 1
Substitution2: "'sups' Superscript in Latin lookup 12 subtable" c.sups
Substitution2: "'aalt' Access All Alternates in Latin lookup 0 subtable" c.sups
EndChar

StartChar: d
Encoding: 100 100 31
Width: 550
GlyphClass: 2
Flags: W
AnchorPoint: "Anchor-3" 242 -22 basechar 0
AnchorPoint: "Anchor-0" 522 730 basechar 0
LayerCount: 2
Fore
SplineSet
392 456 m 1,0,-1
 402 550 l 1,1,-1
 430 696 l 1,2,-1
 590 696 l 1,3,-1
 450 0 l 1,4,-1
 320 0 l 1,5,-1
 320 62 l 1,6,-1
 318 62 l 1,7,8
 285 27 285 27 244.5 7.5 c 128,-1,9
 204 -12 204 -12 168 -12 c 0,10,11
 102 -12 102 -12 65 35.5 c 128,-1,12
 28 83 28 83 28 172 c 0,13,14
 28 243 28 243 50 305 c 128,-1,15
 72 367 72 367 109 413 c 128,-1,16
 146 459 146 459 194 485.5 c 128,-1,17
 242 512 242 512 294 512 c 0,18,19
 326 512 326 512 351 497 c 128,-1,20
 376 482 376 482 390 456 c 1,21,-1
 392 456 l 1,0,-1
240 118 m 0,22,23
 259 118 259 118 283 130.5 c 128,-1,24
 307 143 307 143 328 184 c 1,25,-1
 360 344 l 1,26,27
 351 364 351 364 335.5 373 c 128,-1,28
 320 382 320 382 306 382 c 0,29,30
 284 382 284 382 264 368 c 128,-1,31
 244 354 244 354 228.5 329 c 128,-1,32
 213 304 213 304 203.5 269 c 128,-1,33
 194 234 194 234 194 192 c 0,34,35
 194 153 194 153 206.5 135.5 c 128,-1,36
 219 118 219 118 240 118 c 0,22,23
EndSplineSet
Validated: 1
Substitution2: "'sups' Superscript in Latin lookup 12 subtable" d.sups
Substitution2: "'aalt' Access All Alternates in Latin lookup 0 subtable" d.sups
EndChar

StartChar: e
Encoding: 101 101 32
Width: 502
GlyphClass: 2
Flags: W
AnchorPoint: "Anchor-5" 290 0 basechar 0
AnchorPoint: "Anchor-3" 224 -22 basechar 0
AnchorPoint: "Anchor-0" 326 522 basechar 0
LayerCount: 2
Fore
SplineSet
26 204 m 0,0,1
 26 273 26 273 51 329.5 c 128,-1,2
 76 386 76 386 116.5 426.5 c 128,-1,3
 157 467 157 467 207.5 489.5 c 128,-1,4
 258 512 258 512 308 512 c 0,5,6
 354 512 354 512 385.5 497 c 128,-1,7
 417 482 417 482 436.5 456 c 128,-1,8
 456 430 456 430 465 395.5 c 128,-1,9
 474 361 474 361 474 322 c 0,10,11
 474 303 474 303 470.5 284 c 128,-1,12
 467 265 467 265 462.5 248.5 c 128,-1,13
 458 232 458 232 453.5 219.5 c 128,-1,14
 449 207 449 207 446 202 c 1,15,-1
 176 202 l 1,16,17
 178 152 178 152 207 130 c 128,-1,18
 236 108 236 108 280 108 c 0,19,20
 301 108 301 108 324 118 c 128,-1,21
 347 128 347 128 364 140 c 1,22,-1
 420 40 l 1,23,24
 390 19 390 19 343 3.5 c 128,-1,25
 296 -12 296 -12 234 -12 c 0,26,27
 188 -12 188 -12 150 3 c 128,-1,28
 112 18 112 18 84.5 46 c 128,-1,29
 57 74 57 74 41.5 114 c 128,-1,30
 26 154 26 154 26 204 c 0,0,1
188 298 m 1,31,-1
 340 298 l 1,32,33
 342 304 342 304 343 312.5 c 128,-1,34
 344 321 344 321 344 330 c 0,35,36
 344 356 344 356 332 373 c 128,-1,37
 320 390 320 390 288 390 c 0,38,39
 259 390 259 390 232 368 c 128,-1,40
 205 346 205 346 188 298 c 1,31,-1
EndSplineSet
Validated: 1
Substitution2: "'sups' Superscript in Latin lookup 12 subtable" e.sups
Substitution2: "'aalt' Access All Alternates in Latin lookup 0 subtable" e.sups
EndChar

StartChar: f
Encoding: 102 102 33
Width: 344
GlyphClass: 2
Flags: W
AnchorPoint: "Anchor-3" 122 -22 basechar 0
AnchorPoint: "Anchor-0" 324 740 basechar 0
LayerCount: 2
Fore
SplineSet
46 376 m 1,0,-1
 70 494 l 1,1,-1
 136 500 l 1,2,-1
 138 514 l 2,3,4
 145 553 145 553 160.5 588 c 128,-1,5
 176 623 176 623 201 650 c 128,-1,6
 226 677 226 677 261.5 692.5 c 128,-1,7
 297 708 297 708 344 708 c 0,8,9
 405 708 405 708 458 680 c 1,10,-1
 408 568 l 1,11,12
 400 573 400 573 387 577.5 c 128,-1,13
 374 582 374 582 362 582 c 0,14,15
 349 582 349 582 339 580 c 128,-1,16
 329 578 329 578 321 571.5 c 128,-1,17
 313 565 313 565 307.5 552.5 c 128,-1,18
 302 540 302 540 298 520 c 2,19,-1
 294 500 l 1,20,-1
 376 500 l 1,21,-1
 352 376 l 1,22,-1
 268 376 l 1,23,-1
 194 0 l 1,24,-1
 34 0 l 1,25,-1
 110 376 l 1,26,-1
 46 376 l 1,0,-1
EndSplineSet
Validated: 1
Substitution2: "'sups' Superscript in Latin lookup 12 subtable" f.sups
Substitution2: "'aalt' Access All Alternates in Latin lookup 0 subtable" f.sups
EndChar

StartChar: g
Encoding: 103 103 34
Width: 552
GlyphClass: 2
Flags: W
AnchorPoint: "Anchor-3" 170 -228 basechar 0
AnchorPoint: "Anchor-0" 324 522 basechar 0
LayerCount: 2
Fore
SplineSet
172 -208 m 0,0,1
 130 -208 130 -208 79.5 -191 c 128,-1,2
 29 -174 29 -174 -16 -138 c 1,3,-1
 52 -32 l 1,4,5
 81 -53 81 -53 112 -67.5 c 128,-1,6
 143 -82 143 -82 176 -82 c 0,7,8
 220 -82 220 -82 250 -60.5 c 128,-1,9
 280 -39 280 -39 294 6 c 2,10,-1
 320 88 l 1,11,12
 288 55 288 55 250.5 37.5 c 128,-1,13
 213 20 213 20 174 20 c 0,14,15
 111 20 111 20 69.5 62.5 c 128,-1,16
 28 105 28 105 28 194 c 0,17,18
 28 261 28 261 49 319 c 128,-1,19
 70 377 70 377 106 420 c 128,-1,20
 142 463 142 463 189 487.5 c 128,-1,21
 236 512 236 512 288 512 c 0,22,23
 320 512 320 512 348 495.5 c 128,-1,24
 376 479 376 479 390 450 c 1,25,-1
 392 450 l 1,26,-1
 414 500 l 1,27,-1
 544 500 l 1,28,-1
 448 20 l 2,29,30
 425 -96 425 -96 353.5 -152 c 128,-1,31
 282 -208 282 -208 172 -208 c 0,0,1
238 150 m 0,32,33
 259 150 259 150 282.5 160.5 c 128,-1,34
 306 171 306 171 326 206 c 1,35,-1
 352 344 l 1,36,37
 343 364 343 364 328.5 373 c 128,-1,38
 314 382 314 382 300 382 c 0,39,40
 278 382 278 382 259 370 c 128,-1,41
 240 358 240 358 225.5 335.5 c 128,-1,42
 211 313 211 313 202.5 282 c 128,-1,43
 194 251 194 251 194 214 c 0,44,45
 194 181 194 181 206 165.5 c 128,-1,46
 218 150 218 150 238 150 c 0,32,33
EndSplineSet
Validated: 1
Substitution2: "'ss03' Style Set 3 in Latin lookup 22 subtable" g.a
Substitution2: "'sups' Superscript in Latin lookup 12 subtable" g.sups
AlternateSubs2: "'aalt' Access All Alternates in Latin lookup 1 subtable" g.sups g.a
EndChar

StartChar: h
Encoding: 104 104 35
Width: 556
GlyphClass: 2
Flags: W
AnchorPoint: "Anchor-3" 238 -22 basechar 0
AnchorPoint: "Anchor-0" 234 730 basechar 0
LayerCount: 2
Fore
SplineSet
8 0 m 1,0,-1
 148 696 l 1,1,-1
 308 696 l 1,2,-1
 274 534 l 1,3,-1
 250 446 l 1,4,-1
 254 446 l 1,5,6
 284 473 284 473 322.5 492.5 c 128,-1,7
 361 512 361 512 406 512 c 0,8,9
 468 512 468 512 496 479.5 c 128,-1,10
 524 447 524 447 524 382 c 0,11,12
 524 365 524 365 522.5 346.5 c 128,-1,13
 521 328 521 328 516 310 c 2,14,-1
 454 0 l 1,15,-1
 294 0 l 1,16,-1
 352 290 l 2,17,18
 355 304 355 304 357.5 314.5 c 128,-1,19
 360 325 360 325 360 334 c 0,20,21
 360 355 360 355 349 365.5 c 128,-1,22
 338 376 338 376 318 376 c 0,23,24
 297 376 297 376 277 362.5 c 128,-1,25
 257 349 257 349 230 320 c 1,26,-1
 168 0 l 1,27,-1
 8 0 l 1,0,-1
EndSplineSet
Validated: 1
Substitution2: "'sups' Superscript in Latin lookup 12 subtable" h.sups
Substitution2: "'aalt' Access All Alternates in Latin lookup 0 subtable" h.sups
EndChar

StartChar: i
Encoding: 105 105 36
Width: 276
GlyphClass: 2
Flags: W
AnchorPoint: "Anchor-5" 88 0 basechar 0
AnchorPoint: "Anchor-3" 94 -22 basechar 0
AnchorPoint: "Anchor-0" 240 732 basechar 0
LayerCount: 2
Fore
SplineSet
8 0 m 1,0,-1
 108 500 l 1,1,-1
 268 500 l 1,2,-1
 168 0 l 1,3,-1
 8 0 l 1,0,-1
214 564 m 0,4,5
 198 564 198 564 183 568.5 c 128,-1,6
 168 573 168 573 156 582 c 128,-1,7
 144 591 144 591 137 605 c 128,-1,8
 130 619 130 619 130 638 c 0,9,10
 130 656 130 656 137.5 672.5 c 128,-1,11
 145 689 145 689 158 701 c 128,-1,12
 171 713 171 713 188.5 720.5 c 128,-1,13
 206 728 206 728 226 728 c 0,14,15
 242 728 242 728 257 723 c 128,-1,16
 272 718 272 718 284 709 c 128,-1,17
 296 700 296 700 303 686 c 128,-1,18
 310 672 310 672 310 654 c 0,19,20
 310 615 310 615 282.5 589.5 c 128,-1,21
 255 564 255 564 214 564 c 0,4,5
EndSplineSet
Validated: 1
Substitution2: "'sups' Superscript in Latin lookup 12 subtable" i.sups
Substitution2: "'aalt' Access All Alternates in Latin lookup 0 subtable" i.sups
EndChar

StartChar: j
Encoding: 106 106 37
Width: 278
GlyphClass: 2
Flags: W
AnchorPoint: "Anchor-3" -8 -238 basechar 0
AnchorPoint: "Anchor-0" 240 732 basechar 0
LayerCount: 2
Fore
SplineSet
-30 -188 m 0,0,1
 -57 -188 -57 -188 -82 -183 c 128,-1,2
 -107 -178 -107 -178 -134 -164 c 1,3,-1
 -86 -50 l 1,4,5
 -65 -62 -65 -62 -44 -62 c 0,6,7
 -20 -62 -20 -62 -8.5 -45.5 c 128,-1,8
 3 -29 3 -29 12 10 c 2,9,-1
 110 500 l 1,10,-1
 270 500 l 1,11,-1
 170 2 l 2,12,13
 162 -37 162 -37 147 -71.5 c 128,-1,14
 132 -106 132 -106 108 -132 c 128,-1,15
 84 -158 84 -158 50 -173 c 128,-1,16
 16 -188 16 -188 -30 -188 c 0,0,1
216 564 m 0,17,18
 200 564 200 564 185 568.5 c 128,-1,19
 170 573 170 573 158 582 c 128,-1,20
 146 591 146 591 139 605 c 128,-1,21
 132 619 132 619 132 638 c 0,22,23
 132 656 132 656 139.5 672.5 c 128,-1,24
 147 689 147 689 160 701 c 128,-1,25
 173 713 173 713 190.5 720.5 c 128,-1,26
 208 728 208 728 228 728 c 0,27,28
 244 728 244 728 259 723 c 128,-1,29
 274 718 274 718 286 709 c 128,-1,30
 298 700 298 700 305 686 c 128,-1,31
 312 672 312 672 312 654 c 0,32,33
 312 615 312 615 284.5 589.5 c 128,-1,34
 257 564 257 564 216 564 c 0,17,18
EndSplineSet
Validated: 1
Substitution2: "'sups' Superscript in Latin lookup 12 subtable" j.sups
Substitution2: "'aalt' Access All Alternates in Latin lookup 0 subtable" j.sups
EndChar

StartChar: k
Encoding: 107 107 38
Width: 544
GlyphClass: 2
Flags: W
AnchorPoint: "Anchor-3" 246 -22 basechar 0
AnchorPoint: "Anchor-0" 238 730 basechar 0
LayerCount: 2
Fore
SplineSet
8 0 m 1,0,-1
 148 696 l 1,1,-1
 308 696 l 1,2,-1
 232 320 l 1,3,-1
 236 320 l 1,4,-1
 400 500 l 1,5,-1
 576 500 l 1,6,-1
 370 278 l 1,7,-1
 488 0 l 1,8,-1
 328 0 l 1,9,-1
 260 186 l 1,10,-1
 192 118 l 1,11,-1
 168 0 l 1,12,-1
 8 0 l 1,0,-1
EndSplineSet
Validated: 1
Substitution2: "'sups' Superscript in Latin lookup 12 subtable" k.sups
Substitution2: "'aalt' Access All Alternates in Latin lookup 0 subtable" k.sups
EndChar

StartChar: l
Encoding: 108 108 39
Width: 286
GlyphClass: 2
Flags: W
AnchorPoint: "Anchor-3" 90 -22 basechar 0
AnchorPoint: "Anchor-0" 240 730 basechar 0
LayerCount: 2
Fore
SplineSet
148 -12 m 0,0,1
 86 -12 86 -12 60 17.5 c 128,-1,2
 34 47 34 47 34 98 c 0,3,4
 34 113 34 113 35.5 129 c 128,-1,5
 37 145 37 145 42 166 c 2,6,-1
 148 696 l 1,7,-1
 308 696 l 1,8,-1
 200 160 l 2,9,10
 198 152 198 152 198 148.5 c 128,-1,11
 198 145 198 145 198 141 c 0,12,13
 198 127 198 127 204 121.5 c 128,-1,14
 210 116 210 116 218 116 c 0,15,16
 223 116 223 116 226.5 116 c 128,-1,17
 230 116 230 116 236 118 c 1,18,-1
 230 0 l 1,19,20
 216 -5 216 -5 195.5 -8.5 c 128,-1,21
 175 -12 175 -12 148 -12 c 0,0,1
EndSplineSet
Validated: 1
Substitution2: "'ss01' Style Set 1 in Latin lookup 20 subtable" l.a
Substitution2: "'sups' Superscript in Latin lookup 12 subtable" l.sups
AlternateSubs2: "'aalt' Access All Alternates in Latin lookup 1 subtable" l.sups l.a
EndChar

StartChar: m
Encoding: 109 109 40
Width: 838
GlyphClass: 2
Flags: W
AnchorPoint: "Anchor-3" 378 -22 basechar 0
AnchorPoint: "Anchor-0" 503 522 basechar 0
LayerCount: 2
Fore
SplineSet
8 0 m 1,0,-1
 106 500 l 1,1,-1
 236 500 l 1,2,-1
 236 436 l 1,3,-1
 240 436 l 1,4,5
 275 466 275 466 315.5 489 c 128,-1,6
 356 512 356 512 400 512 c 0,7,8
 454 512 454 512 479 489.5 c 128,-1,9
 504 467 504 467 516 428 c 1,10,11
 555 464 555 464 596.5 488 c 128,-1,12
 638 512 638 512 682 512 c 0,13,14
 744 512 744 512 772 479.5 c 128,-1,15
 800 447 800 447 800 382 c 0,16,17
 800 348 800 348 792 310 c 2,18,-1
 730 0 l 1,19,-1
 570 0 l 1,20,-1
 628 290 l 2,21,22
 631 304 631 304 633.5 314.5 c 128,-1,23
 636 325 636 325 636 334 c 0,24,25
 636 355 636 355 625 365.5 c 128,-1,26
 614 376 614 376 594 376 c 0,27,28
 565 376 565 376 512 320 c 1,29,-1
 448 0 l 1,30,-1
 288 0 l 1,31,-1
 346 290 l 2,32,33
 349 304 349 304 351.5 314.5 c 128,-1,34
 354 325 354 325 354 334 c 0,35,36
 354 355 354 355 343 365.5 c 128,-1,37
 332 376 332 376 314 376 c 0,38,39
 283 376 283 376 230 320 c 1,40,-1
 168 0 l 1,41,-1
 8 0 l 1,0,-1
EndSplineSet
Validated: 1
Substitution2: "'sups' Superscript in Latin lookup 12 subtable" m.sups
Substitution2: "'aalt' Access All Alternates in Latin lookup 0 subtable" m.sups
EndChar

StartChar: n
Encoding: 110 110 41
Width: 562
GlyphClass: 2
Flags: W
AnchorPoint: "Anchor-3" 242 -22 basechar 0
AnchorPoint: "Anchor-0" 366 522 basechar 0
LayerCount: 2
Fore
SplineSet
8 0 m 1,0,-1
 106 500 l 1,1,-1
 236 500 l 1,2,-1
 236 436 l 1,3,-1
 240 436 l 1,4,5
 275 466 275 466 316.5 489 c 128,-1,6
 358 512 358 512 406 512 c 0,7,8
 468 512 468 512 496 479.5 c 128,-1,9
 524 447 524 447 524 382 c 0,10,11
 524 348 524 348 516 310 c 2,12,-1
 454 0 l 1,13,-1
 294 0 l 1,14,-1
 352 290 l 2,15,16
 355 304 355 304 357.5 314.5 c 128,-1,17
 360 325 360 325 360 334 c 0,18,19
 360 355 360 355 349 365.5 c 128,-1,20
 338 376 338 376 318 376 c 0,21,22
 297 376 297 376 277 362.5 c 128,-1,23
 257 349 257 349 230 320 c 1,24,-1
 168 0 l 1,25,-1
 8 0 l 1,0,-1
EndSplineSet
Validated: 1
Substitution2: "'sups' Superscript in Latin lookup 12 subtable" n.sups
Substitution2: "'aalt' Access All Alternates in Latin lookup 0 subtable" n.sups
EndChar

StartChar: o
Encoding: 111 111 42
Width: 540
GlyphClass: 2
Flags: W
AnchorPoint: "Anchor-5" 216 0 basechar 0
AnchorPoint: "Anchor-4" 420 500 basechar 0
AnchorPoint: "Anchor-3" 202 -22 basechar 0
AnchorPoint: "Anchor-0" 334 522 basechar 0
LayerCount: 2
Fore
SplineSet
226 -12 m 0,0,1
 181 -12 181 -12 144 3 c 128,-1,2
 107 18 107 18 81 45.5 c 128,-1,3
 55 73 55 73 40.5 111 c 128,-1,4
 26 149 26 149 26 196 c 0,5,6
 26 269 26 269 51 327.5 c 128,-1,7
 76 386 76 386 116.5 427 c 128,-1,8
 157 468 157 468 207.5 490 c 128,-1,9
 258 512 258 512 310 512 c 0,10,11
 355 512 355 512 392 497 c 128,-1,12
 429 482 429 482 455 454.5 c 128,-1,13
 481 427 481 427 495.5 388.5 c 128,-1,14
 510 350 510 350 510 304 c 0,15,16
 510 231 510 231 485 172.5 c 128,-1,17
 460 114 460 114 419.5 73 c 128,-1,18
 379 32 379 32 328.5 10 c 128,-1,19
 278 -12 278 -12 226 -12 c 0,0,1
244 116 m 0,20,21
 266 116 266 116 285 130 c 128,-1,22
 304 144 304 144 318 168.5 c 128,-1,23
 332 193 332 193 340 227 c 128,-1,24
 348 261 348 261 348 302 c 0,25,26
 348 340 348 340 334.5 362 c 128,-1,27
 321 384 321 384 292 384 c 0,28,29
 270 384 270 384 251 370 c 128,-1,30
 232 356 232 356 218 331.5 c 128,-1,31
 204 307 204 307 196 272.5 c 128,-1,32
 188 238 188 238 188 198 c 0,33,34
 188 160 188 160 201.5 138 c 128,-1,35
 215 116 215 116 244 116 c 0,20,21
EndSplineSet
Validated: 1
Substitution2: "'sups' Superscript in Latin lookup 12 subtable" o.sups
Substitution2: "'aalt' Access All Alternates in Latin lookup 0 subtable" o.sups
EndChar

StartChar: p
Encoding: 112 112 43
Width: 560
GlyphClass: 2
Flags: W
AnchorPoint: "Anchor-3" 44 -218 basechar 0
AnchorPoint: "Anchor-0" 366 522 basechar 0
LayerCount: 2
Fore
SplineSet
168 42 m 1,0,-1
 156 -52 l 1,1,-1
 132 -176 l 1,2,-1
 -28 -176 l 1,3,-1
 108 500 l 1,4,-1
 238 500 l 1,5,-1
 242 446 l 1,6,-1
 244 446 l 1,7,8
 277 476 277 476 315.5 494 c 128,-1,9
 354 512 354 512 390 512 c 0,10,11
 456 512 456 512 493 464.5 c 128,-1,12
 530 417 530 417 530 328 c 0,13,14
 530 257 530 257 508 195 c 128,-1,15
 486 133 486 133 449 87 c 128,-1,16
 412 41 412 41 364 14.5 c 128,-1,17
 316 -12 316 -12 264 -12 c 0,18,19
 235 -12 235 -12 210 2 c 128,-1,20
 185 16 185 16 170 42 c 1,21,-1
 168 42 l 1,0,-1
318 382 m 0,22,23
 298 382 298 382 275 370.5 c 128,-1,24
 252 359 252 359 234 326 c 1,25,-1
 200 156 l 1,26,27
 208 136 208 136 222.5 127 c 128,-1,28
 237 118 237 118 252 118 c 0,29,30
 274 118 274 118 294 132 c 128,-1,31
 314 146 314 146 329.5 171 c 128,-1,32
 345 196 345 196 354.5 231 c 128,-1,33
 364 266 364 266 364 308 c 0,34,35
 364 347 364 347 351.5 364.5 c 128,-1,36
 339 382 339 382 318 382 c 0,22,23
EndSplineSet
Validated: 1
Substitution2: "'sups' Superscript in Latin lookup 12 subtable" p.sups
Substitution2: "'aalt' Access All Alternates in Latin lookup 0 subtable" p.sups
EndChar

StartChar: q
Encoding: 113 113 44
Width: 558
GlyphClass: 2
Flags: W
AnchorPoint: "Anchor-3" 342 -218 basechar 0
AnchorPoint: "Anchor-0" 350 522 basechar 0
LayerCount: 2
Fore
SplineSet
280 -52 m 1,0,-1
 320 62 l 1,1,-1
 318 62 l 1,2,3
 285 27 285 27 244.5 7.5 c 128,-1,4
 204 -12 204 -12 168 -12 c 0,5,6
 102 -12 102 -12 65 35.5 c 128,-1,7
 28 83 28 83 28 172 c 0,8,9
 28 243 28 243 50 305 c 128,-1,10
 72 367 72 367 109 413 c 128,-1,11
 146 459 146 459 194 485.5 c 128,-1,12
 242 512 242 512 294 512 c 0,13,14
 326 512 326 512 355 495.5 c 128,-1,15
 384 479 384 479 398 450 c 1,16,-1
 400 450 l 1,17,-1
 422 500 l 1,18,-1
 550 500 l 1,19,-1
 414 -176 l 1,20,-1
 254 -176 l 1,21,-1
 280 -52 l 1,0,-1
240 118 m 0,22,23
 259 118 259 118 283 130.5 c 128,-1,24
 307 143 307 143 328 184 c 1,25,-1
 360 344 l 1,26,27
 351 364 351 364 335.5 373 c 128,-1,28
 320 382 320 382 306 382 c 0,29,30
 284 382 284 382 264 368 c 128,-1,31
 244 354 244 354 228.5 329 c 128,-1,32
 213 304 213 304 203.5 269 c 128,-1,33
 194 234 194 234 194 192 c 0,34,35
 194 153 194 153 206.5 135.5 c 128,-1,36
 219 118 219 118 240 118 c 0,22,23
EndSplineSet
Validated: 1
Substitution2: "'sups' Superscript in Latin lookup 12 subtable" q.sups
Substitution2: "'aalt' Access All Alternates in Latin lookup 0 subtable" q.sups
EndChar

StartChar: r
Encoding: 114 114 45
Width: 400
GlyphClass: 2
Flags: W
AnchorPoint: "Anchor-3" 92 -22 basechar 0
AnchorPoint: "Anchor-0" 290 522 basechar 0
LayerCount: 2
Fore
SplineSet
8 0 m 1,0,-1
 106 500 l 1,1,-1
 236 500 l 1,2,-1
 232 402 l 1,3,-1
 236 402 l 1,4,5
 265 450 265 450 305.5 481 c 128,-1,6
 346 512 346 512 388 512 c 0,7,8
 409 512 409 512 421.5 509.5 c 128,-1,9
 434 507 434 507 442 502 c 1,10,-1
 390 364 l 1,11,12
 379 370 379 370 364.5 371 c 128,-1,13
 350 372 350 372 338 372 c 0,14,15
 306 372 306 372 278.5 351 c 128,-1,16
 251 330 251 330 222 280 c 1,17,-1
 168 0 l 1,18,-1
 8 0 l 1,0,-1
EndSplineSet
Validated: 1
Substitution2: "'sups' Superscript in Latin lookup 12 subtable" r.sups
Substitution2: "'aalt' Access All Alternates in Latin lookup 0 subtable" r.sups
EndChar

StartChar: s
Encoding: 115 115 46
Width: 432
GlyphClass: 2
Flags: W
AnchorPoint: "Anchor-3" 184 -22 basechar 0
AnchorPoint: "Anchor-2" 170 0 basechar 0
AnchorPoint: "Anchor-0" 284 522 basechar 0
LayerCount: 2
Fore
SplineSet
172 -12 m 0,0,1
 150 -12 150 -12 125 -6 c 128,-1,2
 100 0 100 0 75.5 12 c 128,-1,3
 51 24 51 24 28.5 42.5 c 128,-1,4
 6 61 6 61 -10 86 c 1,5,-1
 82 162 l 1,6,7
 109 130 109 130 134 117 c 128,-1,8
 159 104 159 104 182 104 c 256,9,10
 205 104 205 104 221.5 113.5 c 128,-1,11
 238 123 238 123 238 138 c 0,12,13
 238 148 238 148 232 155 c 128,-1,14
 226 162 226 162 215.5 169.5 c 128,-1,15
 205 177 205 177 189 185 c 128,-1,16
 173 193 173 193 154 204 c 0,17,18
 136 214 136 214 118.5 228 c 128,-1,19
 101 242 101 242 87.5 259.5 c 128,-1,20
 74 277 74 277 66 298 c 128,-1,21
 58 319 58 319 58 344 c 0,22,23
 58 380 58 380 74 410.5 c 128,-1,24
 90 441 90 441 117 463.5 c 128,-1,25
 144 486 144 486 181 499 c 128,-1,26
 218 512 218 512 260 512 c 0,27,28
 314 512 314 512 356 488.5 c 128,-1,29
 398 465 398 465 430 432 c 1,30,-1
 344 350 l 1,31,32
 326 368 326 368 305 381 c 128,-1,33
 284 394 284 394 260 394 c 256,34,35
 236 394 236 394 222 383.5 c 128,-1,36
 208 373 208 373 208 358 c 0,37,38
 208 347 208 347 215 339.5 c 128,-1,39
 222 332 222 332 233.5 325 c 128,-1,40
 245 318 245 318 259.5 311 c 128,-1,41
 274 304 274 304 288 296 c 0,42,43
 306 286 306 286 324 273.5 c 128,-1,44
 342 261 342 261 356 244 c 128,-1,45
 370 227 370 227 379 205.5 c 128,-1,46
 388 184 388 184 388 156 c 0,47,48
 388 118 388 118 372 87.5 c 128,-1,49
 356 57 356 57 327.5 34.5 c 128,-1,50
 299 12 299 12 259 0 c 128,-1,51
 219 -12 219 -12 172 -12 c 0,0,1
EndSplineSet
Validated: 1
Substitution2: "'sups' Superscript in Latin lookup 12 subtable" s.sups
Substitution2: "'aalt' Access All Alternates in Latin lookup 0 subtable" s.sups
EndChar

StartChar: t
Encoding: 116 116 47
Width: 384
GlyphClass: 2
Flags: W
AnchorPoint: "Anchor-3" 183 -22 basechar 0
AnchorPoint: "Anchor-2" 186 0 basechar 0
AnchorPoint: "Anchor-0" 258 664 basechar 0
LayerCount: 2
Fore
SplineSet
210 -12 m 0,0,1
 170 -12 170 -12 141.5 -1.5 c 128,-1,2
 113 9 113 9 95 27.5 c 128,-1,3
 77 46 77 46 68.5 71.5 c 128,-1,4
 60 97 60 97 60 128 c 0,5,6
 60 145 60 145 62.5 161 c 128,-1,7
 65 177 65 177 68 194 c 2,8,-1
 106 376 l 1,9,-1
 42 376 l 1,10,-1
 66 494 l 1,11,-1
 138 500 l 1,12,-1
 182 628 l 1,13,-1
 316 628 l 1,14,-1
 292 500 l 1,15,-1
 400 500 l 1,16,-1
 376 376 l 1,17,-1
 264 376 l 1,18,-1
 226 188 l 2,19,20
 224 179 224 179 224 171.5 c 128,-1,21
 224 164 224 164 224 156 c 0,22,23
 224 112 224 112 272 112 c 0,24,25
 288 112 288 112 308 122 c 1,26,-1
 336 10 l 1,27,28
 315 2 315 2 283.5 -5 c 128,-1,29
 252 -12 252 -12 210 -12 c 0,0,1
EndSplineSet
Validated: 1
Substitution2: "'sups' Superscript in Latin lookup 12 subtable" t.sups
Substitution2: "'aalt' Access All Alternates in Latin lookup 0 subtable" t.sups
EndChar

StartChar: u
Encoding: 117 117 48
Width: 552
GlyphClass: 2
Flags: W
AnchorPoint: "Anchor-5" 350 0 basechar 0
AnchorPoint: "Anchor-4" 474 510 basechar 0
AnchorPoint: "Anchor-3" 250 -30 basechar 0
AnchorPoint: "Anchor-0" 332 522 basechar 0
LayerCount: 2
Fore
SplineSet
542 500 m 1,0,-1
 444 0 l 1,1,-1
 314 0 l 1,2,-1
 314 64 l 1,3,-1
 310 64 l 1,4,5
 278 34 278 34 236.5 11 c 128,-1,6
 195 -12 195 -12 150 -12 c 0,7,8
 88 -12 88 -12 60 20.5 c 128,-1,9
 32 53 32 53 32 118 c 0,10,11
 32 152 32 152 40 190 c 2,12,-1
 102 500 l 1,13,-1
 262 500 l 1,14,-1
 204 210 l 2,15,16
 201 196 201 196 198.5 185.5 c 128,-1,17
 196 175 196 175 196 166 c 0,18,19
 196 145 196 145 207 134.5 c 128,-1,20
 218 124 218 124 238 124 c 256,21,22
 258 124 258 124 277 137.5 c 128,-1,23
 296 151 296 151 320 180 c 1,24,-1
 382 500 l 1,25,-1
 542 500 l 1,0,-1
EndSplineSet
Validated: 1
Substitution2: "'sups' Superscript in Latin lookup 12 subtable" u.sups
Substitution2: "'aalt' Access All Alternates in Latin lookup 0 subtable" u.sups
EndChar

StartChar: v
Encoding: 118 118 49
Width: 518
GlyphClass: 2
Flags: W
AnchorPoint: "Anchor-3" 222 -22 basechar 0
AnchorPoint: "Anchor-0" 326 522 basechar 0
LayerCount: 2
Fore
SplineSet
120 0 m 1,0,-1
 60 500 l 1,1,-1
 220 500 l 1,2,-1
 230 272 l 2,3,4
 232 234 232 234 232 196 c 128,-1,5
 232 158 232 158 232 118 c 1,6,-1
 236 118 l 1,7,8
 253 157 253 157 268 195 c 128,-1,9
 283 233 283 233 300 272 c 2,10,-1
 398 500 l 1,11,-1
 554 500 l 1,12,-1
 304 0 l 1,13,-1
 120 0 l 1,0,-1
EndSplineSet
Validated: 1
Substitution2: "'sups' Superscript in Latin lookup 12 subtable" v.sups
Substitution2: "'aalt' Access All Alternates in Latin lookup 0 subtable" v.sups
EndChar

StartChar: w
Encoding: 119 119 50
Width: 764
GlyphClass: 2
Flags: W
AnchorPoint: "Anchor-3" 344 -22 basechar 0
AnchorPoint: "Anchor-0" 440 522 basechar 0
LayerCount: 2
Fore
SplineSet
92 0 m 1,0,-1
 73 500 l 1,1,-1
 231 500 l 1,2,-1
 226 278 l 2,3,4
 224 241 224 241 221 203.5 c 128,-1,5
 218 166 218 166 216 128 c 1,6,-1
 220 128 l 1,7,8
 234 166 234 166 247 204 c 128,-1,9
 260 242 260 242 276 278 c 2,10,-1
 367 500 l 1,11,-1
 503 500 l 1,12,-1
 508 278 l 2,13,14
 509 241 509 241 507.5 203.5 c 128,-1,15
 506 166 506 166 506 128 c 1,16,-1
 510 128 l 1,17,18
 524 166 524 166 535 203.5 c 128,-1,19
 546 241 546 241 560 278 c 2,20,-1
 640 500 l 1,21,-1
 788 500 l 1,22,-1
 580 0 l 1,23,-1
 394 0 l 1,24,-1
 394 186 l 2,25,26
 396 221 396 221 396 256 c 128,-1,27
 396 291 396 291 398 332 c 1,28,-1
 394 332 l 1,29,30
 380 291 380 291 368.5 256 c 128,-1,31
 357 221 357 221 344 186 c 2,32,-1
 272 0 l 1,33,-1
 92 0 l 1,0,-1
EndSplineSet
Validated: 33
Substitution2: "'sups' Superscript in Latin lookup 12 subtable" w.sups
Substitution2: "'aalt' Access All Alternates in Latin lookup 0 subtable" w.sups
EndChar

StartChar: x
Encoding: 120 120 51
Width: 514
GlyphClass: 2
Flags: W
AnchorPoint: "Anchor-3" 218 -22 basechar 0
AnchorPoint: "Anchor-0" 322 522 basechar 0
LayerCount: 2
Fore
SplineSet
-38 0 m 1,0,-1
 168 268 l 1,1,-1
 84 500 l 1,2,-1
 246 500 l 1,3,-1
 271 423 l 2,4,5
 276 402 276 402 282 380.5 c 128,-1,6
 288 359 288 359 293 338 c 1,7,-1
 297 338 l 1,8,9
 308 359 308 359 320.5 380.5 c 128,-1,10
 333 402 333 402 344 423 c 2,11,-1
 382 500 l 1,12,-1
 552 500 l 1,13,-1
 360 232 l 1,14,-1
 450 0 l 1,15,-1
 286 0 l 1,16,-1
 260 76 l 2,17,18
 253 97 253 97 247 119 c 128,-1,19
 241 141 241 141 234 162 c 1,20,-1
 230 162 l 1,21,22
 218 141 218 141 205 119.5 c 128,-1,23
 192 98 192 98 179 76 c 2,24,-1
 133 0 l 1,25,-1
 -38 0 l 1,0,-1
EndSplineSet
Validated: 1
Substitution2: "'sups' Superscript in Latin lookup 12 subtable" x.sups
Substitution2: "'aalt' Access All Alternates in Latin lookup 0 subtable" x.sups
EndChar

StartChar: y
Encoding: 121 121 52
Width: 518
GlyphClass: 2
Flags: W
AnchorPoint: "Anchor-3" 142 -242 basechar 0
AnchorPoint: "Anchor-0" 308 522 basechar 0
LayerCount: 2
Fore
SplineSet
52 -188 m 0,0,1
 37 -188 37 -188 14 -181.5 c 128,-1,2
 -9 -175 -9 -175 -24 -166 c 1,3,-1
 24 -52 l 1,4,5
 41 -62 41 -62 62 -62 c 0,6,7
 85 -62 85 -62 107 -46.5 c 128,-1,8
 129 -31 129 -31 143 -5 c 2,9,-1
 153 15 l 1,10,-1
 65 500 l 1,11,-1
 224 500 l 1,12,-1
 242 295 l 2,13,14
 245 263 245 263 246.5 221.5 c 128,-1,15
 248 180 248 180 248 144 c 1,16,-1
 252 144 l 1,17,18
 267 179 267 179 284 220 c 128,-1,19
 301 261 301 261 316 295 c 2,20,-1
 406 500 l 1,21,-1
 560 500 l 1,22,-1
 299 1 l 2,23,24
 271 -47 271 -47 243.5 -83 c 128,-1,25
 216 -119 216 -119 187 -142 c 128,-1,26
 158 -165 158 -165 125 -176.5 c 128,-1,27
 92 -188 92 -188 52 -188 c 0,0,1
EndSplineSet
Validated: 1
Substitution2: "'sups' Superscript in Latin lookup 12 subtable" y.sups
Substitution2: "'aalt' Access All Alternates in Latin lookup 0 subtable" y.sups
EndChar

StartChar: z
Encoding: 122 122 53
Width: 456
GlyphClass: 2
Flags: W
AnchorPoint: "Anchor-3" 190 -22 basechar 0
AnchorPoint: "Anchor-0" 296 522 basechar 0
LayerCount: 2
Fore
SplineSet
-10 0 m 1,0,-1
 8 90 l 1,1,-1
 248 376 l 1,2,-1
 84 376 l 1,3,-1
 108 500 l 1,4,-1
 472 500 l 1,5,-1
 454 408 l 1,6,-1
 214 124 l 1,7,-1
 404 124 l 1,8,-1
 380 0 l 1,9,-1
 -10 0 l 1,0,-1
EndSplineSet
Validated: 1
Substitution2: "'sups' Superscript in Latin lookup 12 subtable" z.sups
Substitution2: "'aalt' Access All Alternates in Latin lookup 0 subtable" z.sups
EndChar

StartChar: Aogonek
Encoding: 260 260 75
Width: 562
GlyphClass: 2
Flags: W
AnchorPoint: "Anchor-1" 380 682 basechar 0
LayerCount: 2
Fore
SplineSet
394 -226 m 0,0,1
 350 -226 350 -226 323 -205 c 128,-1,2
 296 -184 296 -184 296 -146 c 0,3,4
 296 -121 296 -121 306 -98 c 128,-1,5
 316 -75 316 -75 331 -56.5 c 128,-1,6
 346 -38 346 -38 362.5 -23.5 c 128,-1,7
 379 -9 379 -9 392 0 c 1,8,-1
 360 0 l 1,9,-1
 356 148 l 1,10,-1
 177 148 l 1,11,-1
 110 0 l 1,12,-1
 -66 0 l 1,13,-1
 274 650 l 1,14,-1
 466 650 l 1,15,-1
 528 0 l 1,16,17
 465 -21 465 -21 442.5 -47 c 128,-1,18
 420 -73 420 -73 420 -94 c 0,19,20
 420 -109 420 -109 430 -116.5 c 128,-1,21
 440 -124 440 -124 454 -124 c 0,22,23
 465 -124 465 -124 478 -116 c 1,24,-1
 508 -192 l 1,25,26
 485 -207 485 -207 453 -216.5 c 128,-1,27
 421 -226 421 -226 394 -226 c 0,0,1
266 344 m 2,28,-1
 232 268 l 1,29,-1
 352 268 l 1,30,-1
 350 344 l 2,31,32
 348 391 348 391 347 435.5 c 128,-1,33
 346 480 346 480 346 530 c 1,34,-1
 342 530 l 1,35,36
 322 482 322 482 304.5 436.5 c 128,-1,37
 287 391 287 391 266 344 c 2,28,-1
EndSplineSet
Validated: 1
Ligature2: "'ccmp' Glyph Composition/Decomposition in Latin lookup 6 subtable" A uni0328
EndChar

StartChar: AE
Encoding: 198 198 76
Width: 852
GlyphClass: 2
Flags: W
AnchorPoint: "Anchor-1" 592 694 basechar 0
LayerCount: 2
Fore
SplineSet
350 360 m 2,0,-1
 295 264 l 1,1,-1
 403 264 l 1,2,-1
 457 536 l 1,3,-1
 454 536 l 1,4,5
 427 489 427 489 401.5 447 c 128,-1,6
 376 405 376 405 350 360 c 2,0,-1
-36 0 m 1,7,-1
 372 650 l 1,8,-1
 868 650 l 1,9,-1
 842 516 l 1,10,-1
 612 516 l 1,11,-1
 590 402 l 1,12,-1
 784 402 l 1,13,-1
 758 268 l 1,14,-1
 564 268 l 1,15,-1
 536 134 l 1,16,-1
 774 134 l 1,17,-1
 748 0 l 1,18,-1
 350 0 l 1,19,-1
 378 140 l 1,20,-1
 224 140 l 1,21,-1
 144 0 l 1,22,-1
 -36 0 l 1,7,-1
EndSplineSet
Validated: 1
EndChar

StartChar: Eogonek
Encoding: 280 280 102
Width: 536
GlyphClass: 2
Flags: W
AnchorPoint: "Anchor-1" 380 682 basechar 0
LayerCount: 2
Fore
SplineSet
26 0 m 1,0,-1
 156 650 l 1,1,-1
 552 650 l 1,2,-1
 526 516 l 1,3,-1
 288 516 l 1,4,-1
 266 402 l 1,5,-1
 468 402 l 1,6,-1
 442 268 l 1,7,-1
 240 268 l 1,8,-1
 212 134 l 1,9,-1
 458 134 l 1,10,-1
 432 0 l 1,11,12
 409 -4 409 -4 391.5 -15 c 128,-1,13
 374 -26 374 -26 361.5 -40 c 128,-1,14
 349 -54 349 -54 342.5 -69 c 128,-1,15
 336 -84 336 -84 336 -94 c 0,16,17
 336 -109 336 -109 346 -116.5 c 128,-1,18
 356 -124 356 -124 370 -124 c 0,19,20
 381 -124 381 -124 394 -116 c 1,21,-1
 424 -192 l 1,22,23
 401 -207 401 -207 369 -216.5 c 128,-1,24
 337 -226 337 -226 310 -226 c 0,25,26
 266 -226 266 -226 239 -205 c 128,-1,27
 212 -184 212 -184 212 -146 c 0,28,29
 212 -120 212 -120 223 -96.5 c 128,-1,30
 234 -73 234 -73 249.5 -53.5 c 128,-1,31
 265 -34 265 -34 281 -20.5 c 128,-1,32
 297 -7 297 -7 308 0 c 1,33,-1
 26 0 l 1,0,-1
EndSplineSet
Validated: 1
Ligature2: "'ccmp' Glyph Composition/Decomposition in Latin lookup 6 subtable" E uni0328
EndChar

StartChar: Hbar
Encoding: 294 294 113
Width: 664
Flags: W
LayerCount: 2
Fore
SplineSet
68 488 m 1,0,-1
 82 558 l 1,1,-1
 139 563 l 1,2,-1
 156 650 l 1,3,-1
 316 650 l 1,4,-1
 298 564 l 1,5,-1
 491 564 l 1,6,-1
 508 650 l 1,7,-1
 668 650 l 1,8,-1
 651 564 l 1,9,-1
 750 564 l 1,10,-1
 736 488 l 1,11,-1
 636 488 l 1,12,-1
 538 0 l 1,13,-1
 378 0 l 1,14,-1
 432 266 l 1,15,-1
 238 266 l 1,16,-1
 186 0 l 1,17,-1
 26 0 l 1,18,-1
 124 488 l 1,19,-1
 68 488 l 1,0,-1
266 406 m 1,20,-1
 460 406 l 1,21,-1
 476 488 l 1,22,-1
 283 488 l 1,23,-1
 266 406 l 1,20,-1
EndSplineSet
Validated: 1
EndChar

StartChar: Iogonek
Encoding: 302 302 124
Width: 382
GlyphClass: 2
Flags: W
AnchorPoint: "Anchor-1" 248 682 basechar 0
LayerCount: 2
Fore
SplineSet
98 -226 m 0,0,1
 54 -226 54 -226 27 -205 c 128,-1,2
 0 -184 0 -184 0 -146 c 0,3,4
 0 -120 0 -120 11 -96.5 c 128,-1,5
 22 -73 22 -73 37.5 -53.5 c 128,-1,6
 53 -34 53 -34 70 -20.5 c 128,-1,7
 87 -7 87 -7 98 0 c 1,8,-1
 -6 0 l 1,9,-1
 22 134 l 1,10,-1
 86 134 l 1,11,-1
 164 516 l 1,12,-1
 98 516 l 1,13,-1
 126 650 l 1,14,-1
 416 650 l 1,15,-1
 388 516 l 1,16,-1
 324 516 l 1,17,-1
 246 134 l 1,18,-1
 314 134 l 1,19,-1
 286 0 l 1,20,-1
 220 0 l 1,21,22
 169 -17 169 -17 146.5 -45 c 128,-1,23
 124 -73 124 -73 124 -94 c 0,24,25
 124 -109 124 -109 134 -116.5 c 128,-1,26
 144 -124 144 -124 158 -124 c 0,27,28
 169 -124 169 -124 182 -116 c 1,29,-1
 212 -192 l 1,30,31
 189 -207 189 -207 157 -216.5 c 128,-1,32
 125 -226 125 -226 98 -226 c 0,0,1
EndSplineSet
Validated: 1
Substitution2: "'ss04' Style Set 4 in Latin lookup 23 subtable" Iogonek.a
Ligature2: "'ccmp' Glyph Composition/Decomposition in Latin lookup 6 subtable" I uni0328
Substitution2: "'aalt' Access All Alternates in Latin lookup 0 subtable" Iogonek.a
EndChar

StartChar: Lslash
Encoding: 321 321 134
Width: 514
Flags: W
LayerCount: 2
Fore
SplineSet
17 168 m 1,0,-1
 -21 270 l 1,1,-1
 91 326 l 1,2,-1
 156 650 l 1,3,-1
 316 650 l 1,4,-1
 267 409 l 1,5,-1
 411 482 l 1,6,-1
 449 380 l 1,7,-1
 241 276 l 1,8,-1
 212 134 l 1,9,-1
 448 134 l 1,10,-1
 422 0 l 1,11,-1
 26 0 l 1,12,-1
 64 192 l 1,13,-1
 17 168 l 1,0,-1
EndSplineSet
Validated: 1
EndChar

StartChar: Oslash
Encoding: 216 216 158
Width: 670
GlyphClass: 2
Flags: W
AnchorPoint: "Anchor-1" 440 682 basechar 0
LayerCount: 2
Fore
SplineSet
308 -12 m 0,0,1
 209 -12 209 -12 143 43 c 1,2,-1
 58 -44 l 1,3,-1
 -12 20 l 1,4,-1
 85 119 l 1,5,6
 56 180 56 180 56 264 c 0,7,8
 56 355 56 355 84.5 428.5 c 128,-1,9
 113 502 113 502 159.5 554 c 128,-1,10
 206 606 206 606 266.5 634 c 128,-1,11
 327 662 327 662 392 662 c 0,12,13
 494 662 494 662 560 604 c 1,14,-1
 656 702 l 1,15,-1
 726 638 l 1,16,-1
 617 526 l 1,17,18
 630 497 630 497 637 462 c 128,-1,19
 644 427 644 427 644 386 c 0,20,21
 644 295 644 295 615.5 221.5 c 128,-1,22
 587 148 587 148 540.5 96 c 128,-1,23
 494 44 494 44 433 16 c 128,-1,24
 372 -12 372 -12 308 -12 c 0,0,1
220 274 m 2,25,-1
 220 257 l 1,26,-1
 450 492 l 1,27,28
 426 524 426 524 384 524 c 0,29,30
 356 524 356 524 327 506 c 128,-1,31
 298 488 298 488 274 455 c 128,-1,32
 250 422 250 422 235 376 c 128,-1,33
 220 330 220 330 220 274 c 2,25,-1
316 126 m 0,34,35
 344 126 344 126 373 144 c 128,-1,36
 402 162 402 162 426 195 c 128,-1,37
 450 228 450 228 465 274 c 128,-1,38
 480 320 480 320 480 376 c 2,39,-1
 480 387 l 1,40,-1
 253 155 l 1,41,42
 277 126 277 126 316 126 c 0,34,35
EndSplineSet
Validated: 1
EndChar

StartChar: OE
Encoding: 338 338 159
Width: 840
GlyphClass: 2
Flags: W
AnchorPoint: "Anchor-1" 580 682 basechar 0
LayerCount: 2
Fore
SplineSet
348 0 m 2,0,1
 211 0 211 0 133.5 62 c 128,-1,2
 56 124 56 124 56 256 c 0,3,4
 56 355 56 355 83.5 429 c 128,-1,5
 111 503 111 503 159.5 552 c 128,-1,6
 208 601 208 601 273.5 625.5 c 128,-1,7
 339 650 339 650 416 650 c 2,8,-1
 856 650 l 1,9,-1
 830 516 l 1,10,-1
 602 516 l 1,11,-1
 580 402 l 1,12,-1
 772 402 l 1,13,-1
 746 268 l 1,14,-1
 554 268 l 1,15,-1
 526 134 l 1,16,-1
 762 134 l 1,17,-1
 736 0 l 1,18,-1
 348 0 l 2,0,1
352 128 m 2,19,-1
 366 128 l 1,20,-1
 444 522 l 1,21,-1
 420 522 l 2,22,23
 379 522 379 522 343 508.5 c 128,-1,24
 307 495 307 495 279.5 464.5 c 128,-1,25
 252 434 252 434 236 385 c 128,-1,26
 220 336 220 336 220 266 c 0,27,28
 220 228 220 228 230 201.5 c 128,-1,29
 240 175 240 175 257.5 158.5 c 128,-1,30
 275 142 275 142 299 135 c 128,-1,31
 323 128 323 128 352 128 c 2,19,-1
EndSplineSet
Validated: 1
EndChar

StartChar: Ohorn
Encoding: 416 416 160
Width: 670
GlyphClass: 2
Flags: W
AnchorPoint: "Anchor-3" 304 -22 basechar 0
AnchorPoint: "Anchor-1" 420 682 basechar 0
LayerCount: 2
Fore
SplineSet
308 -12 m 0,0,1
 252 -12 252 -12 205.5 6.5 c 128,-1,2
 159 25 159 25 126 60 c 128,-1,3
 93 95 93 95 74.5 146.5 c 128,-1,4
 56 198 56 198 56 264 c 0,5,6
 56 355 56 355 84.5 428.5 c 128,-1,7
 113 502 113 502 159.5 554 c 128,-1,8
 206 606 206 606 266.5 634 c 128,-1,9
 327 662 327 662 392 662 c 0,10,11
 462 662 462 662 516 634 c 1,12,13
 555 640 555 640 572.5 666 c 128,-1,14
 590 692 590 692 590 722 c 0,15,16
 590 734 590 734 586.5 746.5 c 128,-1,17
 583 759 583 759 578 772 c 1,18,-1
 696 808 l 1,19,20
 714 767 714 767 714 730 c 0,21,22
 714 673 714 673 680.5 632.5 c 128,-1,23
 647 592 647 592 583 580 c 1,24,25
 612 545 612 545 628 496.5 c 128,-1,26
 644 448 644 448 644 386 c 0,27,28
 644 295 644 295 615.5 221.5 c 128,-1,29
 587 148 587 148 540.5 96 c 128,-1,30
 494 44 494 44 433 16 c 128,-1,31
 372 -12 372 -12 308 -12 c 0,0,1
316 126 m 0,32,33
 344 126 344 126 373 144 c 128,-1,34
 402 162 402 162 426 195 c 128,-1,35
 450 228 450 228 465 274 c 128,-1,36
 480 320 480 320 480 376 c 0,37,38
 480 447 480 447 454.5 485.5 c 128,-1,39
 429 524 429 524 384 524 c 0,40,41
 356 524 356 524 327 506 c 128,-1,42
 298 488 298 488 274 455 c 128,-1,43
 250 422 250 422 235 376 c 128,-1,44
 220 330 220 330 220 274 c 0,45,46
 220 203 220 203 245.5 164.5 c 128,-1,47
 271 126 271 126 316 126 c 0,32,33
EndSplineSet
Validated: 1
EndChar

StartChar: uni01EA
Encoding: 490 490 166
Width: 670
GlyphClass: 2
Flags: W
AnchorPoint: "Anchor-1" 434 682 basechar 0
LayerCount: 2
Fore
SplineSet
272 -226 m 0,0,1
 228 -226 228 -226 201 -205 c 128,-1,2
 174 -184 174 -184 174 -146 c 0,3,4
 174 -123 174 -123 182.5 -102 c 128,-1,5
 191 -81 191 -81 204 -63.5 c 128,-1,6
 217 -46 217 -46 232 -32 c 128,-1,7
 247 -18 247 -18 260 -8 c 1,8,9
 166 9 166 9 111 77.5 c 128,-1,10
 56 146 56 146 56 264 c 0,11,12
 56 355 56 355 84.5 428.5 c 128,-1,13
 113 502 113 502 159.5 554 c 128,-1,14
 206 606 206 606 266.5 634 c 128,-1,15
 327 662 327 662 392 662 c 0,16,17
 448 662 448 662 494.5 643.5 c 128,-1,18
 541 625 541 625 574 590 c 128,-1,19
 607 555 607 555 625.5 503.5 c 128,-1,20
 644 452 644 452 644 386 c 0,21,22
 644 245 644 245 578 148.5 c 128,-1,23
 512 52 512 52 384 -4 c 0,24,25
 337 -25 337 -25 317.5 -49 c 128,-1,26
 298 -73 298 -73 298 -94 c 0,27,28
 298 -109 298 -109 308 -116.5 c 128,-1,29
 318 -124 318 -124 332 -124 c 0,30,31
 343 -124 343 -124 356 -116 c 1,32,-1
 386 -192 l 1,33,34
 363 -207 363 -207 331 -216.5 c 128,-1,35
 299 -226 299 -226 272 -226 c 0,0,1
316 126 m 0,36,37
 344 126 344 126 373 144 c 128,-1,38
 402 162 402 162 426 195 c 128,-1,39
 450 228 450 228 465 274 c 128,-1,40
 480 320 480 320 480 376 c 0,41,42
 480 447 480 447 454.5 485.5 c 128,-1,43
 429 524 429 524 384 524 c 0,44,45
 356 524 356 524 327 506 c 128,-1,46
 298 488 298 488 274 455 c 128,-1,47
 250 422 250 422 235 376 c 128,-1,48
 220 330 220 330 220 274 c 0,49,50
 220 203 220 203 245.5 164.5 c 128,-1,51
 271 126 271 126 316 126 c 0,36,37
EndSplineSet
Validated: 1
Ligature2: "'ccmp' Glyph Composition/Decomposition in Latin lookup 6 subtable" O uni0328
EndChar

StartChar: uni1E9E
Encoding: 7838 7838 180
Width: 686
Flags: W
LayerCount: 2
Fore
SplineSet
431 -12 m 0,0,1
 381 -12 381 -12 334 5 c 128,-1,2
 287 22 287 22 249 60 c 1,3,-1
 338 160 l 1,4,5
 351 145 351 145 371.5 130.5 c 128,-1,6
 392 116 392 116 418 116 c 0,7,8
 442 116 442 116 461 133.5 c 128,-1,9
 480 151 480 151 480 181 c 0,10,11
 480 206 480 206 451 231.5 c 128,-1,12
 422 257 422 257 362 274 c 1,13,-1
 370 366 l 1,14,-1
 490 480 l 1,15,16
 479 512 479 512 453 528 c 128,-1,17
 427 544 427 544 392 544 c 0,18,19
 344 544 344 544 311 505 c 128,-1,20
 278 466 278 466 264 398 c 2,21,-1
 186 0 l 1,22,-1
 26 0 l 1,23,-1
 112 428 l 2,24,25
 122 478 122 478 143.5 522.5 c 128,-1,26
 165 567 165 567 200 600 c 128,-1,27
 235 633 235 633 285 652.5 c 128,-1,28
 335 672 335 672 402 672 c 0,29,30
 449 672 449 672 492 659.5 c 128,-1,31
 535 647 535 647 568.5 621.5 c 128,-1,32
 602 596 602 596 622.5 556 c 128,-1,33
 643 516 643 516 646 462 c 1,34,-1
 524 352 l 1,35,36
 549 339 549 339 570.5 323 c 128,-1,37
 592 307 592 307 608.5 287 c 128,-1,38
 625 267 625 267 634.5 243 c 128,-1,39
 644 219 644 219 644 189 c 0,40,41
 644 146 644 146 628.5 109.5 c 128,-1,42
 613 73 613 73 585 46 c 128,-1,43
 557 19 557 19 517.5 3.5 c 128,-1,44
 478 -12 478 -12 431 -12 c 0,0,1
EndSplineSet
Validated: 1
EndChar

StartChar: Uogonek
Encoding: 370 370 202
Width: 654
GlyphClass: 2
Flags: W
AnchorPoint: "Anchor-1" 428 682 basechar 0
LayerCount: 2
Fore
SplineSet
662 650 m 1,0,-1
 588 286 l 2,1,2
 576 219 576 219 558 171.5 c 128,-1,3
 540 124 540 124 514.5 90 c 128,-1,4
 489 56 489 56 455.5 33 c 128,-1,5
 422 10 422 10 378 -6 c 0,6,7
 327 -24 327 -24 305.5 -48.5 c 128,-1,8
 284 -73 284 -73 284 -94 c 0,9,10
 284 -109 284 -109 294 -116.5 c 128,-1,11
 304 -124 304 -124 318 -124 c 0,12,13
 329 -124 329 -124 342 -116 c 1,14,-1
 372 -192 l 1,15,16
 349 -207 349 -207 317 -216.5 c 128,-1,17
 285 -226 285 -226 258 -226 c 0,18,19
 214 -226 214 -226 187 -205 c 128,-1,20
 160 -184 160 -184 160 -146 c 0,21,22
 160 -124 160 -124 169 -102.5 c 128,-1,23
 178 -81 178 -81 191.5 -62.5 c 128,-1,24
 205 -44 205 -44 220 -29.5 c 128,-1,25
 235 -15 235 -15 248 -6 c 1,26,27
 162 9 162 9 118 65 c 128,-1,28
 74 121 74 121 74 222 c 0,29,30
 74 245 74 245 78.5 275.5 c 128,-1,31
 83 306 83 306 88 332 c 2,32,-1
 152 650 l 1,33,-1
 312 650 l 1,34,-1
 242 300 l 2,35,36
 239 280 239 280 236.5 262 c 128,-1,37
 234 244 234 244 234 226 c 0,38,39
 234 176 234 176 252 151 c 128,-1,40
 270 126 270 126 320 126 c 0,41,42
 363 126 363 126 389 162 c 128,-1,43
 415 198 415 198 432 282 c 2,44,-1
 506 650 l 1,45,-1
 662 650 l 1,0,-1
EndSplineSet
Validated: 1
Ligature2: "'ccmp' Glyph Composition/Decomposition in Latin lookup 6 subtable" U uni0328
EndChar

StartChar: Uhorn
Encoding: 431 431 203
Width: 680
GlyphClass: 2
Flags: W
AnchorPoint: "Anchor-3" 296 -22 basechar 0
AnchorPoint: "Anchor-1" 428 682 basechar 0
LayerCount: 2
Fore
SplineSet
88 332 m 2,0,-1
 152 650 l 1,1,-1
 312 650 l 1,2,-1
 242 300 l 2,3,4
 239 280 239 280 236.5 262 c 128,-1,5
 234 244 234 244 234 226 c 0,6,7
 234 176 234 176 252 151 c 128,-1,8
 270 126 270 126 320 126 c 0,9,10
 363 126 363 126 389 162 c 128,-1,11
 415 198 415 198 432 282 c 2,12,-1
 506 650 l 1,13,-1
 599 650 l 1,14,15
 637 655 637 655 655.5 674 c 128,-1,16
 674 693 674 693 674 722 c 0,17,18
 674 734 674 734 670.5 746.5 c 128,-1,19
 667 759 667 759 662 772 c 1,20,-1
 780 808 l 1,21,22
 798 767 798 767 798 730 c 0,23,24
 798 675 798 675 762 641.5 c 128,-1,25
 726 608 726 608 651 594 c 1,26,-1
 588 286 l 2,27,28
 558 132 558 132 493 60 c 128,-1,29
 428 -12 428 -12 316 -12 c 0,30,31
 194 -12 194 -12 134 44.5 c 128,-1,32
 74 101 74 101 74 222 c 0,33,34
 74 245 74 245 78.5 275.5 c 128,-1,35
 83 306 83 306 88 332 c 2,0,-1
EndSplineSet
Validated: 1
EndChar

StartChar: Eth
Encoding: 208 208 225
Width: 644
Flags: W
LayerCount: 2
Fore
SplineSet
34 300 m 1,0,-1
 48 370 l 1,1,-1
 119 376 l 1,2,-1
 174 650 l 1,3,-1
 326 650 l 2,4,5
 394 650 394 650 448.5 634.5 c 128,-1,6
 503 619 503 619 540.5 587.5 c 128,-1,7
 578 556 578 556 598 508 c 128,-1,8
 618 460 618 460 618 394 c 0,9,10
 618 295 618 295 590.5 221 c 128,-1,11
 563 147 563 147 514.5 98 c 128,-1,12
 466 49 466 49 400 24.5 c 128,-1,13
 334 0 334 0 258 0 c 2,14,-1
 44 0 l 1,15,-1
 104 300 l 1,16,-1
 34 300 l 1,0,-1
230 128 m 1,17,-1
 254 128 l 2,18,19
 294 128 294 128 330.5 141.5 c 128,-1,20
 367 155 367 155 394.5 185.5 c 128,-1,21
 422 216 422 216 438 264.5 c 128,-1,22
 454 313 454 313 454 384 c 0,23,24
 454 422 454 422 444 448.5 c 128,-1,25
 434 475 434 475 416.5 491.5 c 128,-1,26
 399 508 399 508 374.5 515 c 128,-1,27
 350 522 350 522 322 522 c 2,28,-1
 308 522 l 1,29,-1
 279 376 l 1,30,-1
 394 376 l 1,31,-1
 378 300 l 1,32,-1
 264 300 l 1,33,-1
 230 128 l 1,17,-1
EndSplineSet
Validated: 1
EndChar

StartChar: Thorn
Encoding: 222 222 226
Width: 608
Flags: W
LayerCount: 2
Fore
SplineSet
26 0 m 1,0,-1
 156 660 l 1,1,-1
 316 660 l 1,2,-1
 296 560 l 1,3,-1
 374 560 l 2,4,5
 418 560 418 560 457 550.5 c 128,-1,6
 496 541 496 541 524.5 520 c 128,-1,7
 553 499 553 499 569.5 465 c 128,-1,8
 586 431 586 431 586 382 c 0,9,10
 586 311 586 311 560.5 261.5 c 128,-1,11
 535 212 535 212 492.5 181 c 128,-1,12
 450 150 450 150 394.5 136 c 128,-1,13
 339 122 339 122 278 122 c 2,14,-1
 208 122 l 1,15,-1
 184 0 l 1,16,-1
 26 0 l 1,0,-1
234 248 m 1,17,-1
 296 248 l 2,18,19
 359 248 359 248 393.5 276 c 128,-1,20
 428 304 428 304 428 358 c 0,21,22
 428 397 428 397 405.5 415.5 c 128,-1,23
 383 434 383 434 342 434 c 2,24,-1
 270 434 l 1,25,-1
 234 248 l 1,17,-1
EndSplineSet
Validated: 1
EndChar

StartChar: uni018F
Encoding: 399 399 227
Width: 680
GlyphClass: 2
Flags: W
AnchorPoint: "Anchor-3" 333 -22 basechar 0
AnchorPoint: "Anchor-1" 483 682 basechar 0
LayerCount: 2
Fore
SplineSet
308 -12 m 0,0,1
 252 -12 252 -12 207 6 c 128,-1,2
 162 24 162 24 130.5 58 c 128,-1,3
 99 92 99 92 82.5 140 c 128,-1,4
 66 188 66 188 66 248 c 0,5,6
 66 267 66 267 67.5 284 c 128,-1,7
 69 301 69 301 72 317 c 128,-1,8
 75 333 75 333 79.5 349 c 128,-1,9
 84 365 84 365 90 384 c 1,10,-1
 496 384 l 1,11,-1
 496 386 l 2,12,13
 496 458 496 458 471.5 497 c 128,-1,14
 447 536 447 536 388 536 c 0,15,16
 343 536 343 536 312 519.5 c 128,-1,17
 281 503 281 503 254 482 c 1,18,-1
 188 590 l 1,19,20
 229 626 229 626 282.5 649 c 128,-1,21
 336 672 336 672 408 672 c 0,22,23
 529 672 529 672 592.5 600.5 c 128,-1,24
 656 529 656 529 656 402 c 0,25,26
 656 310 656 310 628 233.5 c 128,-1,27
 600 157 600 157 552.5 102.5 c 128,-1,28
 505 48 505 48 441.5 18 c 128,-1,29
 378 -12 378 -12 308 -12 c 0,0,1
320 124 m 0,30,31
 369 124 369 124 412 162.5 c 128,-1,32
 455 201 455 201 478 268 c 1,33,-1
 216 268 l 1,34,35
 211 233 211 233 217.5 206.5 c 128,-1,36
 224 180 224 180 239 161.5 c 128,-1,37
 254 143 254 143 275 133.5 c 128,-1,38
 296 124 296 124 320 124 c 0,30,31
EndSplineSet
Validated: 33
EndChar

StartChar: aogonek
Encoding: 261 261 249
Width: 558
GlyphClass: 2
Flags: W
AnchorPoint: "Anchor-0" 324 522 basechar 0
LayerCount: 2
Fore
SplineSet
322 -212 m 0,0,1
 283 -212 283 -212 257.5 -193 c 128,-1,2
 232 -174 232 -174 232 -136 c 0,3,4
 232 -111 232 -111 242 -89.5 c 128,-1,5
 252 -68 252 -68 266 -50.5 c 128,-1,6
 280 -33 280 -33 295 -20.5 c 128,-1,7
 310 -8 310 -8 320 0 c 1,8,-1
 320 62 l 1,9,-1
 318 62 l 1,10,11
 285 27 285 27 244.5 7.5 c 128,-1,12
 204 -12 204 -12 168 -12 c 0,13,14
 102 -12 102 -12 65 35.5 c 128,-1,15
 28 83 28 83 28 172 c 0,16,17
 28 243 28 243 50 305 c 128,-1,18
 72 367 72 367 109 413 c 128,-1,19
 146 459 146 459 194 485.5 c 128,-1,20
 242 512 242 512 294 512 c 0,21,22
 326 512 326 512 355 495.5 c 128,-1,23
 384 479 384 479 398 450 c 1,24,-1
 400 450 l 1,25,-1
 422 500 l 1,26,-1
 550 500 l 1,27,-1
 450 0 l 1,28,29
 402 -12 402 -12 374 -36 c 128,-1,30
 346 -60 346 -60 346 -90 c 0,31,32
 346 -104 346 -104 356 -111 c 128,-1,33
 366 -118 366 -118 380 -118 c 0,34,35
 393 -118 393 -118 410 -108 c 1,36,-1
 436 -172 l 1,37,38
 413 -189 413 -189 381 -200.5 c 128,-1,39
 349 -212 349 -212 322 -212 c 0,0,1
240 118 m 0,40,41
 260 118 260 118 284 130.5 c 128,-1,42
 308 143 308 143 328 184 c 1,43,-1
 360 344 l 1,44,45
 351 364 351 364 335.5 373 c 128,-1,46
 320 382 320 382 306 382 c 0,47,48
 284 382 284 382 264 368 c 128,-1,49
 244 354 244 354 228.5 329 c 128,-1,50
 213 304 213 304 203.5 269 c 128,-1,51
 194 234 194 234 194 192 c 0,52,53
 194 153 194 153 206.5 135.5 c 128,-1,54
 219 118 219 118 240 118 c 0,40,41
EndSplineSet
Validated: 1
Substitution2: "'ss02' Style Set 2 in Latin lookup 21 subtable" aogonek.a
Ligature2: "'ccmp' Glyph Composition/Decomposition in Latin lookup 6 subtable" a uni0328
Substitution2: "'aalt' Access All Alternates in Latin lookup 0 subtable" aogonek.a
EndChar

StartChar: ae
Encoding: 230 230 250
Width: 752
Flags: W
LayerCount: 2
Fore
SplineSet
18 114 m 0,0,1
 18 169 18 169 42 207 c 128,-1,2
 66 245 66 245 106.5 268 c 128,-1,3
 147 291 147 291 201 301.5 c 128,-1,4
 255 312 255 312 316 314 c 1,5,-1
 316 326 l 2,6,7
 316 359 316 359 300.5 373.5 c 128,-1,8
 285 388 285 388 256 388 c 0,9,10
 229 388 229 388 198.5 378.5 c 128,-1,11
 168 369 168 369 132 352 c 1,12,-1
 98 462 l 1,13,14
 145 485 145 485 195 498.5 c 128,-1,15
 245 512 245 512 296 512 c 0,16,17
 381 512 381 512 418 456 c 1,18,19
 450 483 450 483 486 497.5 c 128,-1,20
 522 512 522 512 558 512 c 0,21,22
 604 512 604 512 635.5 497 c 128,-1,23
 667 482 667 482 686.5 456 c 128,-1,24
 706 430 706 430 715 395.5 c 128,-1,25
 724 361 724 361 724 322 c 0,26,27
 724 303 724 303 720.5 284 c 128,-1,28
 717 265 717 265 712.5 248.5 c 128,-1,29
 708 232 708 232 703.5 219.5 c 128,-1,30
 699 207 699 207 696 202 c 1,31,-1
 436 202 l 1,32,33
 435 177 435 177 442 159.5 c 128,-1,34
 449 142 449 142 462 130.5 c 128,-1,35
 475 119 475 119 493 113.5 c 128,-1,36
 511 108 511 108 532 108 c 0,37,38
 552 108 552 108 574.5 118 c 128,-1,39
 597 128 597 128 614 140 c 1,40,-1
 670 40 l 1,41,42
 641 19 641 19 597 3.5 c 128,-1,43
 553 -12 553 -12 496 -12 c 0,44,45
 443 -12 443 -12 401 10 c 128,-1,46
 359 32 359 32 337 63 c 1,47,48
 294 28 294 28 251 8 c 128,-1,49
 208 -12 208 -12 154 -12 c 0,50,51
 125 -12 125 -12 100 -3 c 128,-1,52
 75 6 75 6 57 22.5 c 128,-1,53
 39 39 39 39 28.5 62 c 128,-1,54
 18 85 18 85 18 114 c 0,0,1
448 298 m 1,55,-1
 590 298 l 1,56,57
 592 309 592 309 593 315 c 128,-1,58
 594 321 594 321 594 330 c 0,59,60
 594 356 594 356 582 373 c 128,-1,61
 570 390 570 390 538 390 c 0,62,63
 512 390 512 390 487.5 368 c 128,-1,64
 463 346 463 346 448 298 c 1,55,-1
296 218 m 1,65,66
 230 216 230 216 202 195.5 c 128,-1,67
 174 175 174 175 174 146 c 0,68,69
 174 129 174 129 186.5 119.5 c 128,-1,70
 199 110 199 110 220 110 c 0,71,72
 238 110 238 110 258 122 c 128,-1,73
 278 134 278 134 298 158 c 1,74,75
 296 172 296 172 295 186 c 128,-1,76
 294 200 294 200 296 218 c 1,65,66
EndSplineSet
Validated: 33
EndChar

StartChar: dcroat
Encoding: 273 273 259
Width: 556
Flags: W
LayerCount: 2
Fore
SplineSet
168 -12 m 0,0,1
 102 -12 102 -12 65 35.5 c 128,-1,2
 28 83 28 83 28 172 c 0,3,4
 28 235 28 235 50 293 c 128,-1,5
 72 351 72 351 109 395 c 128,-1,6
 146 439 146 439 194 465.5 c 128,-1,7
 242 492 242 492 294 492 c 0,8,9
 326 492 326 492 350 477 c 128,-1,10
 374 462 374 462 386 436 c 1,11,-1
 388 436 l 1,12,-1
 398 530 l 1,13,-1
 402 552 l 1,14,-1
 264 552 l 1,15,-1
 278 628 l 1,16,-1
 417 628 l 1,17,-1
 430 696 l 1,18,-1
 590 696 l 1,19,-1
 576 628 l 1,20,-1
 642 628 l 1,21,-1
 626 558 l 1,22,-1
 561 553 l 1,23,-1
 450 0 l 1,24,-1
 320 0 l 1,25,-1
 320 62 l 1,26,-1
 318 62 l 1,27,28
 285 27 285 27 244.5 7.5 c 128,-1,29
 204 -12 204 -12 168 -12 c 0,0,1
240 118 m 0,30,31
 259 118 259 118 283 130.5 c 128,-1,32
 307 143 307 143 328 184 c 1,33,-1
 356 324 l 1,34,35
 348 344 348 344 334 353 c 128,-1,36
 320 362 320 362 306 362 c 0,37,38
 284 362 284 362 264 348 c 128,-1,39
 244 334 244 334 228.5 310.5 c 128,-1,40
 213 287 213 287 203.5 256.5 c 128,-1,41
 194 226 194 226 194 192 c 0,42,43
 194 153 194 153 206.5 135.5 c 128,-1,44
 219 118 219 118 240 118 c 0,30,31
EndSplineSet
Validated: 1
EndChar

StartChar: eogonek
Encoding: 281 281 276
Width: 502
GlyphClass: 2
Flags: W
AnchorPoint: "Anchor-0" 326 522 basechar 0
LayerCount: 2
Fore
SplineSet
166 -136 m 0,0,1
 166 -111 166 -111 176 -90 c 128,-1,2
 186 -69 186 -69 199 -53 c 128,-1,3
 212 -37 212 -37 224 -26.5 c 128,-1,4
 236 -16 236 -16 240 -12 c 1,5,-1
 236 -12 l 2,6,7
 189 -12 189 -12 150.5 3 c 128,-1,8
 112 18 112 18 84.5 46 c 128,-1,9
 57 74 57 74 41.5 114 c 128,-1,10
 26 154 26 154 26 204 c 0,11,12
 26 273 26 273 51 329.5 c 128,-1,13
 76 386 76 386 116.5 426.5 c 128,-1,14
 157 467 157 467 207.5 489.5 c 128,-1,15
 258 512 258 512 308 512 c 0,16,17
 354 512 354 512 385.5 497 c 128,-1,18
 417 482 417 482 436.5 456 c 128,-1,19
 456 430 456 430 465 395.5 c 128,-1,20
 474 361 474 361 474 322 c 0,21,22
 474 303 474 303 470.5 284 c 128,-1,23
 467 265 467 265 462.5 248.5 c 128,-1,24
 458 232 458 232 453.5 219.5 c 128,-1,25
 449 207 449 207 446 202 c 1,26,-1
 176 202 l 1,27,28
 178 152 178 152 207 130 c 128,-1,29
 236 108 236 108 280 108 c 0,30,31
 301 108 301 108 324 118 c 128,-1,32
 347 128 347 128 364 140 c 1,33,-1
 420 40 l 1,34,35
 374 19 374 19 346.5 0 c 128,-1,36
 319 -19 319 -19 304 -35.5 c 128,-1,37
 289 -52 289 -52 284.5 -66 c 128,-1,38
 280 -80 280 -80 280 -90 c 0,39,40
 280 -104 280 -104 290 -111 c 128,-1,41
 300 -118 300 -118 314 -118 c 0,42,43
 327 -118 327 -118 344 -108 c 1,44,-1
 370 -172 l 1,45,46
 347 -189 347 -189 315 -200.5 c 128,-1,47
 283 -212 283 -212 256 -212 c 0,48,49
 217 -212 217 -212 191.5 -193 c 128,-1,50
 166 -174 166 -174 166 -136 c 0,0,1
188 298 m 1,51,-1
 340 298 l 1,52,53
 342 304 342 304 343 312.5 c 128,-1,54
 344 321 344 321 344 330 c 0,55,56
 344 356 344 356 332 373 c 128,-1,57
 320 390 320 390 288 390 c 0,58,59
 259 390 259 390 232 368 c 128,-1,60
 205 346 205 346 188 298 c 1,51,-1
EndSplineSet
Validated: 1
Ligature2: "'ccmp' Glyph Composition/Decomposition in Latin lookup 6 subtable" e uni0328
EndChar

StartChar: hbar
Encoding: 295 295 287
Width: 556
Flags: W
LayerCount: 2
Fore
SplineSet
8 0 m 1,0,-1
 119 552 l 1,1,-1
 52 552 l 1,2,-1
 66 622 l 1,3,-1
 134 628 l 1,4,-1
 148 696 l 1,5,-1
 308 696 l 1,6,-1
 294 628 l 1,7,-1
 450 628 l 1,8,-1
 434 552 l 1,9,-1
 278 552 l 1,10,-1
 270 514 l 1,11,-1
 246 426 l 1,12,-1
 250 426 l 1,13,14
 280 453 280 453 318.5 472.5 c 128,-1,15
 357 492 357 492 402 492 c 0,16,17
 464 492 464 492 492 459.5 c 128,-1,18
 520 427 520 427 520 362 c 0,19,20
 520 345 520 345 518.5 326.5 c 128,-1,21
 517 308 517 308 512 290 c 2,22,-1
 454 0 l 1,23,-1
 294 0 l 1,24,-1
 348 270 l 2,25,26
 351 284 351 284 353.5 294.5 c 128,-1,27
 356 305 356 305 356 314 c 0,28,29
 356 335 356 335 345 345.5 c 128,-1,30
 334 356 334 356 314 356 c 0,31,32
 293 356 293 356 273 342.5 c 128,-1,33
 253 329 253 329 226 300 c 1,34,-1
 168 0 l 1,35,-1
 8 0 l 1,0,-1
EndSplineSet
Validated: 1
EndChar

StartChar: iogonek
Encoding: 303 303 297
Width: 276
GlyphClass: 3
Flags: W
LayerCount: 2
Fore
SplineSet
52 -212 m 0,0,1
 13 -212 13 -212 -12.5 -193 c 128,-1,2
 -38 -174 -38 -174 -38 -136 c 0,3,4
 -38 -111 -38 -111 -27.5 -89.5 c 128,-1,5
 -17 -68 -17 -68 -2.5 -50 c 128,-1,6
 12 -32 12 -32 27.5 -19.5 c 128,-1,7
 43 -7 43 -7 54 0 c 1,8,-1
 8 0 l 1,9,-1
 108 500 l 1,10,-1
 268 500 l 1,11,-1
 168 0 l 1,12,13
 117 -17 117 -17 96.5 -40.5 c 128,-1,14
 76 -64 76 -64 76 -90 c 0,15,16
 76 -104 76 -104 86 -111 c 128,-1,17
 96 -118 96 -118 110 -118 c 0,18,19
 123 -118 123 -118 140 -108 c 1,20,-1
 166 -172 l 1,21,22
 143 -189 143 -189 111 -200.5 c 128,-1,23
 79 -212 79 -212 52 -212 c 0,0,1
214 564 m 0,24,25
 198 564 198 564 183 568.5 c 128,-1,26
 168 573 168 573 156 582 c 128,-1,27
 144 591 144 591 137 605 c 128,-1,28
 130 619 130 619 130 638 c 0,29,30
 130 656 130 656 137.5 672.5 c 128,-1,31
 145 689 145 689 158 701 c 128,-1,32
 171 713 171 713 188.5 720.5 c 128,-1,33
 206 728 206 728 226 728 c 0,34,35
 242 728 242 728 257 723 c 128,-1,36
 272 718 272 718 284 709 c 128,-1,37
 296 700 296 700 303 686 c 128,-1,38
 310 672 310 672 310 654 c 0,39,40
 310 615 310 615 282.5 589.5 c 128,-1,41
 255 564 255 564 214 564 c 0,24,25
EndSplineSet
Validated: 1
Substitution2: "Single Substitution lookup 26 subtable" iogonek.d
Ligature2: "'ccmp' Glyph Composition/Decomposition in Latin lookup 6 subtable" i uni0328
EndChar

StartChar: iogonek.d
Encoding: 65539 -1 298
Width: 276
GlyphClass: 2
Flags: W
AnchorPoint: "Anchor-0" 198 522 basechar 0
LayerCount: 2
Fore
SplineSet
52 -212 m 0,0,1
 13 -212 13 -212 -12.5 -193 c 128,-1,2
 -38 -174 -38 -174 -38 -136 c 0,3,4
 -38 -111 -38 -111 -27.5 -89.5 c 128,-1,5
 -17 -68 -17 -68 -2.5 -50 c 128,-1,6
 12 -32 12 -32 27.5 -19.5 c 128,-1,7
 43 -7 43 -7 54 0 c 1,8,-1
 8 0 l 1,9,-1
 108 500 l 1,10,-1
 268 500 l 1,11,-1
 168 0 l 1,12,13
 117 -17 117 -17 96.5 -40.5 c 128,-1,14
 76 -64 76 -64 76 -90 c 0,15,16
 76 -104 76 -104 86 -111 c 128,-1,17
 96 -118 96 -118 110 -118 c 0,18,19
 123 -118 123 -118 140 -108 c 1,20,-1
 166 -172 l 1,21,22
 143 -189 143 -189 111 -200.5 c 128,-1,23
 79 -212 79 -212 52 -212 c 0,0,1
EndSplineSet
Validated: 1
Ligature2: "Ligature Substitution lookup 25 subtable" i uni0328
EndChar

StartChar: dotlessi
Encoding: 305 305 299
Width: 276
GlyphClass: 2
Flags: W
AnchorPoint: "Anchor-5" 80 0 basechar 0
AnchorPoint: "Anchor-3" 94 -22 basechar 0
AnchorPoint: "Anchor-0" 198 522 basechar 0
LayerCount: 2
Fore
SplineSet
8 0 m 1,0,-1
 108 500 l 1,1,-1
 268 500 l 1,2,-1
 168 0 l 1,3,-1
 8 0 l 1,0,-1
EndSplineSet
Validated: 1
EndChar

StartChar: kgreenlandic
Encoding: 312 312 302
Width: 544
Flags: W
LayerCount: 2
Fore
SplineSet
8 0 m 1,0,-1
 106 500 l 1,1,-1
 266 500 l 1,2,-1
 232 320 l 1,3,-1
 236 320 l 1,4,-1
 400 500 l 1,5,-1
 576 500 l 1,6,-1
 370 278 l 1,7,-1
 488 0 l 1,8,-1
 328 0 l 1,9,-1
 260 186 l 1,10,-1
 192 118 l 1,11,-1
 168 0 l 1,12,-1
 8 0 l 1,0,-1
EndSplineSet
Validated: 1
EndChar

StartChar: lslash
Encoding: 322 322 310
Width: 298
Flags: W
LayerCount: 2
Fore
SplineSet
160 -12 m 0,0,1
 98 -12 98 -12 72 17.5 c 128,-1,2
 46 47 46 47 46 98 c 0,3,4
 46 113 46 113 47.5 129 c 128,-1,5
 49 145 49 145 54 166 c 2,6,-1
 75 270 l 1,7,-1
 28 246 l 1,8,-1
 -8 340 l 1,9,-1
 99 393 l 1,10,-1
 160 696 l 1,11,-1
 320 696 l 1,12,-1
 275 471 l 1,13,-1
 324 500 l 1,14,-1
 362 406 l 1,15,-1
 250 347 l 1,16,-1
 212 160 l 2,17,18
 210 152 210 152 210 148.5 c 128,-1,19
 210 145 210 145 210 141 c 0,20,21
 210 127 210 127 216 121.5 c 128,-1,22
 222 116 222 116 230 116 c 0,23,24
 235 116 235 116 238.5 116 c 128,-1,25
 242 116 242 116 248 118 c 1,26,-1
 242 0 l 1,27,28
 228 -5 228 -5 207.5 -8.5 c 128,-1,29
 187 -12 187 -12 160 -12 c 0,0,1
EndSplineSet
Validated: 1
Substitution2: "'ss01' Style Set 1 in Latin lookup 20 subtable" lslash.a
Substitution2: "'aalt' Access All Alternates in Latin lookup 0 subtable" lslash.a
EndChar

StartChar: oslash
Encoding: 248 248 335
Width: 540
GlyphClass: 2
Flags: W
AnchorPoint: "Anchor-0" 334 522 basechar 0
LayerCount: 2
Fore
SplineSet
226 -12 m 0,0,1
 153 -12 153 -12 101 28 c 1,2,-1
 48 -26 l 1,3,-1
 0 20 l 1,4,-1
 56 78 l 1,5,6
 42 102 42 102 34 131.5 c 128,-1,7
 26 161 26 161 26 196 c 0,8,9
 26 269 26 269 51 327.5 c 128,-1,10
 76 386 76 386 116.5 427 c 128,-1,11
 157 468 157 468 207.5 490 c 128,-1,12
 258 512 258 512 310 512 c 0,13,14
 385 512 385 512 438 470 c 1,15,-1
 490 524 l 1,16,-1
 540 480 l 1,17,-1
 481 420 l 1,18,19
 510 371 510 371 510 304 c 0,20,21
 510 230 510 230 485 171.5 c 128,-1,22
 460 113 460 113 419.5 72.5 c 128,-1,23
 379 32 379 32 328.5 10 c 128,-1,24
 278 -12 278 -12 226 -12 c 0,0,1
298 388 m 0,25,26
 266 388 266 388 243 370 c 128,-1,27
 220 352 220 352 205 324 c 128,-1,28
 190 296 190 296 183 263.5 c 128,-1,29
 176 231 176 231 176 201 c 1,30,-1
 339 369 l 1,31,32
 323 388 323 388 298 388 c 0,25,26
238 112 m 0,33,34
 271 112 271 112 294 130 c 128,-1,35
 317 148 317 148 332 175 c 128,-1,36
 347 202 347 202 353.5 234 c 128,-1,37
 360 266 360 266 360 295 c 1,38,-1
 198 128 l 1,39,40
 212 112 212 112 238 112 c 0,33,34
EndSplineSet
Validated: 1
EndChar

StartChar: oe
Encoding: 339 339 336
Width: 792
GlyphClass: 2
Flags: W
AnchorPoint: "Anchor-0" 440 502 basechar 0
LayerCount: 2
Fore
SplineSet
216 -12 m 0,0,1
 173 -12 173 -12 138 3 c 128,-1,2
 103 18 103 18 78 45.5 c 128,-1,3
 53 73 53 73 39.5 111 c 128,-1,4
 26 149 26 149 26 196 c 0,5,6
 26 269 26 269 50.5 327.5 c 128,-1,7
 75 386 75 386 114 427 c 128,-1,8
 153 468 153 468 202 490 c 128,-1,9
 251 512 251 512 300 512 c 0,10,11
 353 512 353 512 384 490.5 c 128,-1,12
 415 469 415 469 438 428 c 1,13,14
 473 469 473 469 515 490.5 c 128,-1,15
 557 512 557 512 598 512 c 0,16,17
 644 512 644 512 675.5 497 c 128,-1,18
 707 482 707 482 726.5 456 c 128,-1,19
 746 430 746 430 755 395.5 c 128,-1,20
 764 361 764 361 764 322 c 0,21,22
 764 303 764 303 760.5 284 c 128,-1,23
 757 265 757 265 752.5 248.5 c 128,-1,24
 748 232 748 232 743.5 219.5 c 128,-1,25
 739 207 739 207 736 202 c 1,26,-1
 476 202 l 1,27,28
 478 152 478 152 504.5 130 c 128,-1,29
 531 108 531 108 570 108 c 0,30,31
 591 108 591 108 614 118 c 128,-1,32
 637 128 637 128 654 140 c 1,33,-1
 710 40 l 1,34,35
 680 19 680 19 633 3.5 c 128,-1,36
 586 -12 586 -12 524 -12 c 0,37,38
 480 -12 480 -12 444.5 10 c 128,-1,39
 409 32 409 32 386 74 c 1,40,41
 350 32 350 32 305.5 10 c 128,-1,42
 261 -12 261 -12 216 -12 c 0,0,1
244 116 m 0,43,44
 263 116 263 116 280.5 130 c 128,-1,45
 298 144 298 144 310.5 168.5 c 128,-1,46
 323 193 323 193 330.5 227 c 128,-1,47
 338 261 338 261 338 302 c 0,48,49
 338 340 338 340 324.5 362 c 128,-1,50
 311 384 311 384 282 384 c 0,51,52
 264 384 264 384 247 370 c 128,-1,53
 230 356 230 356 217 331.5 c 128,-1,54
 204 307 204 307 196 272.5 c 128,-1,55
 188 238 188 238 188 198 c 0,56,57
 188 160 188 160 201.5 138 c 128,-1,58
 215 116 215 116 244 116 c 0,43,44
488 298 m 1,59,-1
 630 298 l 1,60,61
 632 304 632 304 633 312.5 c 128,-1,62
 634 321 634 321 634 330 c 0,63,64
 634 356 634 356 622 373 c 128,-1,65
 610 390 610 390 578 390 c 0,66,67
 552 390 552 390 527.5 368 c 128,-1,68
 503 346 503 346 488 298 c 1,59,-1
EndSplineSet
Validated: 1
EndChar

StartChar: ohorn
Encoding: 417 417 337
Width: 546
GlyphClass: 2
Flags: W
AnchorPoint: "Anchor-3" 202 -22 basechar 0
AnchorPoint: "Anchor-0" 314 522 basechar 0
LayerCount: 2
Fore
SplineSet
226 -12 m 0,0,1
 181 -12 181 -12 144 3 c 128,-1,2
 107 18 107 18 81 45.5 c 128,-1,3
 55 73 55 73 40.5 111 c 128,-1,4
 26 149 26 149 26 196 c 0,5,6
 26 269 26 269 51 327.5 c 128,-1,7
 76 386 76 386 116.5 427 c 128,-1,8
 157 468 157 468 207.5 490 c 128,-1,9
 258 512 258 512 310 512 c 256,10,11
 362 512 362 512 406 490 c 1,12,13
 422 494 422 494 435 504.5 c 128,-1,14
 448 515 448 515 457 530 c 128,-1,15
 466 545 466 545 471 563 c 128,-1,16
 476 581 476 581 476 600 c 0,17,18
 476 609 476 609 473 624 c 128,-1,19
 470 639 470 639 466 648 c 1,20,-1
 584 684 l 1,21,22
 592 667 592 667 596 646 c 128,-1,23
 600 625 600 625 600 608 c 0,24,25
 600 578 600 578 592 550 c 128,-1,26
 584 522 584 522 568 499.5 c 128,-1,27
 552 477 552 477 527.5 460 c 128,-1,28
 503 443 503 443 470 436 c 1,29,30
 510 382 510 382 510 304 c 0,31,32
 510 231 510 231 485 172.5 c 128,-1,33
 460 114 460 114 419.5 73 c 128,-1,34
 379 32 379 32 328.5 10 c 128,-1,35
 278 -12 278 -12 226 -12 c 0,0,1
244 116 m 0,36,37
 266 116 266 116 285 130 c 128,-1,38
 304 144 304 144 318 168.5 c 128,-1,39
 332 193 332 193 340 227 c 128,-1,40
 348 261 348 261 348 302 c 0,41,42
 348 340 348 340 334.5 362 c 128,-1,43
 321 384 321 384 292 384 c 0,44,45
 270 384 270 384 251 370 c 128,-1,46
 232 356 232 356 218 331.5 c 128,-1,47
 204 307 204 307 196 272.5 c 128,-1,48
 188 238 188 238 188 198 c 0,49,50
 188 160 188 160 201.5 138 c 128,-1,51
 215 116 215 116 244 116 c 0,36,37
EndSplineSet
Validated: 1
EndChar

StartChar: uni1EE1
Encoding: 7905 7905 341
Width: 546
Flags: W
LayerCount: 2
Fore
SplineSet
350 572 m 0,0,1
 328 572 328 572 312 580.5 c 128,-1,2
 296 589 296 589 282.5 599.5 c 128,-1,3
 269 610 269 610 257 619 c 128,-1,4
 245 628 245 628 232 628 c 0,5,6
 221 628 221 628 212 618.5 c 128,-1,7
 203 609 203 609 198 582 c 1,8,-1
 100 588 l 1,9,10
 114 673 114 673 149.5 709.5 c 128,-1,11
 185 746 185 746 236 746 c 0,12,13
 258 746 258 746 274 737 c 128,-1,14
 290 728 290 728 303.5 717.5 c 128,-1,15
 317 707 317 707 328.5 698.5 c 128,-1,16
 340 690 340 690 354 690 c 0,17,18
 365 690 365 690 374 699.5 c 128,-1,19
 383 709 383 709 388 736 c 1,20,-1
 486 730 l 1,21,22
 472 645 472 645 436.5 608.5 c 128,-1,23
 401 572 401 572 350 572 c 0,0,1
226 -12 m 0,24,25
 181 -12 181 -12 144 3 c 128,-1,26
 107 18 107 18 81 45.5 c 128,-1,27
 55 73 55 73 40.5 111 c 128,-1,28
 26 149 26 149 26 196 c 0,29,30
 26 269 26 269 51 327.5 c 128,-1,31
 76 386 76 386 116.5 427 c 128,-1,32
 157 468 157 468 207.5 490 c 128,-1,33
 258 512 258 512 310 512 c 256,34,35
 362 512 362 512 406 490 c 1,36,37
 422 494 422 494 435 504.5 c 128,-1,38
 448 515 448 515 457 530 c 128,-1,39
 466 545 466 545 471 563 c 128,-1,40
 476 581 476 581 476 600 c 0,41,42
 476 609 476 609 473 624 c 128,-1,43
 470 639 470 639 466 648 c 1,44,-1
 584 684 l 1,45,46
 592 667 592 667 596 646 c 128,-1,47
 600 625 600 625 600 608 c 0,48,49
 600 578 600 578 592 550 c 128,-1,50
 584 522 584 522 568 499.5 c 128,-1,51
 552 477 552 477 527.5 460 c 128,-1,52
 503 443 503 443 470 436 c 1,53,54
 510 382 510 382 510 304 c 0,55,56
 510 231 510 231 485 172.5 c 128,-1,57
 460 114 460 114 419.5 73 c 128,-1,58
 379 32 379 32 328.5 10 c 128,-1,59
 278 -12 278 -12 226 -12 c 0,24,25
244 116 m 0,60,61
 266 116 266 116 285 130 c 128,-1,62
 304 144 304 144 318 168.5 c 128,-1,63
 332 193 332 193 340 227 c 128,-1,64
 348 261 348 261 348 302 c 0,65,66
 348 340 348 340 334.5 362 c 128,-1,67
 321 384 321 384 292 384 c 0,68,69
 270 384 270 384 251 370 c 128,-1,70
 232 356 232 356 218 331.5 c 128,-1,71
 204 307 204 307 196 272.5 c 128,-1,72
 188 238 188 238 188 198 c 0,73,74
 188 160 188 160 201.5 138 c 128,-1,75
 215 116 215 116 244 116 c 0,60,61
EndSplineSet
Validated: 1
EndChar

StartChar: uni01EB
Encoding: 491 491 343
Width: 540
GlyphClass: 2
Flags: W
AnchorPoint: "Anchor-0" 334 522 basechar 0
LayerCount: 2
Fore
SplineSet
186 -212 m 0,0,1
 147 -212 147 -212 121.5 -193 c 128,-1,2
 96 -174 96 -174 96 -136 c 0,3,4
 96 -111 96 -111 106.5 -89.5 c 128,-1,5
 117 -68 117 -68 130.5 -51 c 128,-1,6
 144 -34 144 -34 157.5 -22.5 c 128,-1,7
 171 -11 171 -11 178 -6 c 1,8,9
 110 9 110 9 68 60.5 c 128,-1,10
 26 112 26 112 26 196 c 0,11,12
 26 269 26 269 51 327.5 c 128,-1,13
 76 386 76 386 116.5 427 c 128,-1,14
 157 468 157 468 207.5 490 c 128,-1,15
 258 512 258 512 310 512 c 0,16,17
 352 512 352 512 388.5 498 c 128,-1,18
 425 484 425 484 452 457.5 c 128,-1,19
 479 431 479 431 494.5 392 c 128,-1,20
 510 353 510 353 510 304 c 0,21,22
 510 239 510 239 493 189.5 c 128,-1,23
 476 140 476 140 447 103 c 128,-1,24
 418 66 418 66 379.5 40.5 c 128,-1,25
 341 15 341 15 298 -2 c 0,26,27
 250 -22 250 -22 230 -46.5 c 128,-1,28
 210 -71 210 -71 210 -90 c 0,29,30
 210 -104 210 -104 220 -111 c 128,-1,31
 230 -118 230 -118 244 -118 c 0,32,33
 257 -118 257 -118 274 -108 c 1,34,-1
 300 -172 l 1,35,36
 277 -189 277 -189 245 -200.5 c 128,-1,37
 213 -212 213 -212 186 -212 c 0,0,1
244 116 m 0,38,39
 266 116 266 116 285 130 c 128,-1,40
 304 144 304 144 318 168.5 c 128,-1,41
 332 193 332 193 340 227 c 128,-1,42
 348 261 348 261 348 302 c 0,43,44
 348 340 348 340 334.5 362 c 128,-1,45
 321 384 321 384 292 384 c 0,46,47
 270 384 270 384 251 370 c 128,-1,48
 232 356 232 356 218 331.5 c 128,-1,49
 204 307 204 307 196 272.5 c 128,-1,50
 188 238 188 238 188 198 c 0,51,52
 188 160 188 160 201.5 138 c 128,-1,53
 215 116 215 116 244 116 c 0,38,39
EndSplineSet
Validated: 1
Ligature2: "'ccmp' Glyph Composition/Decomposition in Latin lookup 6 subtable" o uni0328
EndChar

StartChar: germandbls
Encoding: 223 223 357
Width: 630
Flags: W
LayerCount: 2
Fore
SplineSet
388 -12 m 0,0,1
 349 -12 349 -12 311 -2.5 c 128,-1,2
 273 7 273 7 238 30 c 1,3,-1
 302 136 l 1,4,5
 320 124 320 124 341 115 c 128,-1,6
 362 106 362 106 386 106 c 0,7,8
 409 106 409 106 421.5 119.5 c 128,-1,9
 434 133 434 133 434 154 c 256,10,11
 434 175 434 175 413.5 192 c 128,-1,12
 393 209 393 209 369 228.5 c 128,-1,13
 345 248 345 248 324.5 274 c 128,-1,14
 304 300 304 300 304 338 c 0,15,16
 304 370 304 370 321 392.5 c 128,-1,17
 338 415 338 415 358 435 c 128,-1,18
 378 455 378 455 395 476.5 c 128,-1,19
 412 498 412 498 412 528 c 0,20,21
 412 554 412 554 399.5 568 c 128,-1,22
 387 582 387 582 358 582 c 0,23,24
 339 582 339 582 323.5 573 c 128,-1,25
 308 564 308 564 296 548.5 c 128,-1,26
 284 533 284 533 275.5 512.5 c 128,-1,27
 267 492 267 492 262 468 c 2,28,-1
 168 0 l 1,29,-1
 8 0 l 1,30,-1
 108 498 l 2,31,32
 117 543 117 543 138 581.5 c 128,-1,33
 159 620 159 620 191 648 c 128,-1,34
 223 676 223 676 266.5 692 c 128,-1,35
 310 708 310 708 364 708 c 0,36,37
 401 708 401 708 437.5 699 c 128,-1,38
 474 690 474 690 502.5 671 c 128,-1,39
 531 652 531 652 548.5 622.5 c 128,-1,40
 566 593 566 593 566 552 c 256,41,42
 566 511 566 511 549.5 484.5 c 128,-1,43
 533 458 533 458 513 438 c 128,-1,44
 493 418 493 418 476.5 401.5 c 128,-1,45
 460 385 460 385 460 366 c 256,46,47
 460 347 460 347 479 330 c 128,-1,48
 498 313 498 313 521 292 c 128,-1,49
 544 271 544 271 563 242 c 128,-1,50
 582 213 582 213 582 170 c 0,51,52
 582 132 582 132 567 98.5 c 128,-1,53
 552 65 552 65 525.5 40.5 c 128,-1,54
 499 16 499 16 463.5 2 c 128,-1,55
 428 -12 428 -12 388 -12 c 0,0,1
EndSplineSet
Validated: 1
EndChar

StartChar: uogonek
Encoding: 371 371 380
Width: 552
GlyphClass: 2
Flags: W
AnchorPoint: "Anchor-0" 332 522 basechar 0
LayerCount: 2
Fore
SplineSet
316 -212 m 0,0,1
 277 -212 277 -212 251.5 -193 c 128,-1,2
 226 -174 226 -174 226 -136 c 0,3,4
 226 -111 226 -111 236 -89.5 c 128,-1,5
 246 -68 246 -68 260 -50.5 c 128,-1,6
 274 -33 274 -33 289 -20.5 c 128,-1,7
 304 -8 304 -8 314 0 c 1,8,-1
 314 64 l 1,9,-1
 310 64 l 1,10,11
 278 34 278 34 236.5 11 c 128,-1,12
 195 -12 195 -12 150 -12 c 0,13,14
 88 -12 88 -12 60 20.5 c 128,-1,15
 32 53 32 53 32 118 c 0,16,17
 32 152 32 152 40 190 c 2,18,-1
 102 500 l 1,19,-1
 262 500 l 1,20,-1
 204 210 l 2,21,22
 201 196 201 196 198.5 185.5 c 128,-1,23
 196 175 196 175 196 166 c 0,24,25
 196 145 196 145 207 134.5 c 128,-1,26
 218 124 218 124 238 124 c 256,27,28
 258 124 258 124 277 137.5 c 128,-1,29
 296 151 296 151 320 180 c 1,30,-1
 382 500 l 1,31,-1
 542 500 l 1,32,-1
 444 0 l 1,33,34
 396 -12 396 -12 368 -36 c 128,-1,35
 340 -60 340 -60 340 -90 c 0,36,37
 340 -104 340 -104 350 -111 c 128,-1,38
 360 -118 360 -118 374 -118 c 0,39,40
 387 -118 387 -118 404 -108 c 1,41,-1
 430 -172 l 1,42,43
 407 -189 407 -189 375 -200.5 c 128,-1,44
 343 -212 343 -212 316 -212 c 0,0,1
EndSplineSet
Validated: 1
Ligature2: "'ccmp' Glyph Composition/Decomposition in Latin lookup 6 subtable" u uni0328
EndChar

StartChar: uhorn
Encoding: 432 432 381
Width: 576
GlyphClass: 2
Flags: W
AnchorPoint: "Anchor-3" 250 -30 basechar 0
AnchorPoint: "Anchor-0" 332 522 basechar 0
LayerCount: 2
Fore
SplineSet
310 64 m 1,0,1
 278 34 278 34 236.5 11 c 128,-1,2
 195 -12 195 -12 150 -12 c 0,3,4
 88 -12 88 -12 60 20.5 c 128,-1,5
 32 53 32 53 32 118 c 0,6,7
 32 152 32 152 40 190 c 2,8,-1
 102 500 l 1,9,-1
 262 500 l 1,10,-1
 204 210 l 2,11,12
 201 196 201 196 198.5 185.5 c 128,-1,13
 196 175 196 175 196 166 c 0,14,15
 196 145 196 145 207 134.5 c 128,-1,16
 218 124 218 124 238 124 c 256,17,18
 258 124 258 124 277 137.5 c 128,-1,19
 296 151 296 151 320 180 c 1,20,-1
 382 500 l 1,21,-1
 456 500 l 1,22,23
 489 505 489 505 508.5 533 c 128,-1,24
 528 561 528 561 528 600 c 0,25,26
 528 609 528 609 525 624 c 128,-1,27
 522 639 522 639 518 648 c 1,28,-1
 636 684 l 1,29,30
 644 667 644 667 648 646 c 128,-1,31
 652 625 652 625 652 608 c 0,32,33
 652 551 652 551 623.5 507.5 c 128,-1,34
 595 464 595 464 532 446 c 1,35,-1
 444 0 l 1,36,-1
 314 0 l 1,37,-1
 314 64 l 1,38,-1
 310 64 l 1,0,1
EndSplineSet
Validated: 1
EndChar

StartChar: eth
Encoding: 240 240 403
Width: 542
Flags: W
LayerCount: 2
Fore
SplineSet
226 -12 m 0,0,1
 186 -12 186 -12 150.5 1.5 c 128,-1,2
 115 15 115 15 88 40.5 c 128,-1,3
 61 66 61 66 45.5 102.5 c 128,-1,4
 30 139 30 139 30 186 c 0,5,6
 30 235 30 235 45 283.5 c 128,-1,7
 60 332 60 332 89 371 c 128,-1,8
 118 410 118 410 160.5 434 c 128,-1,9
 203 458 203 458 258 458 c 0,10,11
 287 458 287 458 311.5 446.5 c 128,-1,12
 336 435 336 435 353 412 c 1,13,14
 344 481 344 481 312 533 c 1,15,-1
 168 476 l 1,16,-1
 138 550 l 1,17,-1
 258 597 l 1,18,19
 242 611 242 611 223.5 624.5 c 128,-1,20
 205 638 205 638 184 652 c 1,21,-1
 256 744 l 1,22,23
 331 706 331 706 388 649 c 1,24,-1
 532 706 l 1,25,-1
 562 632 l 1,26,-1
 440 584 l 1,27,28
 471 536 471 536 487.5 480.5 c 128,-1,29
 504 425 504 425 504 360 c 0,30,31
 504 292 504 292 487.5 225.5 c 128,-1,32
 471 159 471 159 437 106.5 c 128,-1,33
 403 54 403 54 350.5 21 c 128,-1,34
 298 -12 298 -12 226 -12 c 0,0,1
240 116 m 0,35,36
 286 116 286 116 315.5 165.5 c 128,-1,37
 345 215 345 215 353 295 c 1,38,39
 342 313 342 313 323 325.5 c 128,-1,40
 304 338 304 338 280 338 c 0,41,42
 253 338 253 338 233 325.5 c 128,-1,43
 213 313 213 313 200 293 c 128,-1,44
 187 273 187 273 180.5 248 c 128,-1,45
 174 223 174 223 174 198 c 0,46,47
 174 163 174 163 190.5 139.5 c 128,-1,48
 207 116 207 116 240 116 c 0,35,36
EndSplineSet
Validated: 1
EndChar

StartChar: thorn
Encoding: 254 254 404
Width: 560
GlyphClass: 2
Flags: W
AnchorPoint: "Anchor-3" 244 -22 basechar 0
AnchorPoint: "Anchor-0" 238 730 basechar 0
LayerCount: 2
Fore
SplineSet
-28 -176 m 1,0,-1
 148 696 l 1,1,-1
 308 696 l 1,2,-1
 278 550 l 1,3,-1
 252 458 l 1,4,-1
 254 458 l 1,5,6
 286 484 286 484 320.5 498 c 128,-1,7
 355 512 355 512 390 512 c 0,8,9
 456 512 456 512 493 464.5 c 128,-1,10
 530 417 530 417 530 328 c 0,11,12
 530 257 530 257 508 195 c 128,-1,13
 486 133 486 133 449 87 c 128,-1,14
 412 41 412 41 364 14.5 c 128,-1,15
 316 -12 316 -12 264 -12 c 0,16,17
 235 -12 235 -12 210 2 c 128,-1,18
 185 16 185 16 170 42 c 1,19,-1
 168 42 l 1,20,-1
 156 -52 l 1,21,-1
 132 -176 l 1,22,-1
 -28 -176 l 1,0,-1
252 118 m 0,23,24
 274 118 274 118 294 132 c 128,-1,25
 314 146 314 146 329.5 171 c 128,-1,26
 345 196 345 196 354.5 231 c 128,-1,27
 364 266 364 266 364 308 c 0,28,29
 364 347 364 347 351.5 364.5 c 128,-1,30
 339 382 339 382 318 382 c 0,31,32
 298 382 298 382 275 370.5 c 128,-1,33
 252 359 252 359 234 326 c 1,34,-1
 200 156 l 1,35,36
 208 136 208 136 222.5 127 c 128,-1,37
 237 118 237 118 252 118 c 0,23,24
EndSplineSet
Validated: 1
EndChar

StartChar: uni0237
Encoding: 567 567 405
Width: 278
GlyphClass: 2
Flags: W
AnchorPoint: "Anchor-0" 198 522 basechar 0
LayerCount: 2
Fore
SplineSet
-30 -188 m 0,0,1
 -57 -188 -57 -188 -82 -183 c 128,-1,2
 -107 -178 -107 -178 -134 -164 c 1,3,-1
 -86 -50 l 1,4,5
 -65 -62 -65 -62 -44 -62 c 0,6,7
 -20 -62 -20 -62 -8.5 -45.5 c 128,-1,8
 3 -29 3 -29 12 10 c 2,9,-1
 110 500 l 1,10,-1
 270 500 l 1,11,-1
 170 2 l 2,12,13
 162 -37 162 -37 147 -71.5 c 128,-1,14
 132 -106 132 -106 108 -132 c 128,-1,15
 84 -158 84 -158 50 -173 c 128,-1,16
 16 -188 16 -188 -30 -188 c 0,0,1
EndSplineSet
Validated: 1
EndChar

StartChar: uni0259
Encoding: 601 601 407
Width: 498
Flags: W
LayerCount: 2
Fore
SplineSet
468 296 m 0,0,1
 468 227 468 227 443 170 c 128,-1,2
 418 113 418 113 377.5 72.5 c 128,-1,3
 337 32 337 32 286.5 10 c 128,-1,4
 236 -12 236 -12 186 -12 c 0,5,6
 140 -12 140 -12 108.5 3 c 128,-1,7
 77 18 77 18 57.5 44 c 128,-1,8
 38 70 38 70 29 104.5 c 128,-1,9
 20 139 20 139 20 178 c 0,10,11
 20 210 20 210 28.5 243 c 128,-1,12
 37 276 37 276 48 294 c 1,13,-1
 318 294 l 1,14,15
 316 350 316 350 292.5 371 c 128,-1,16
 269 392 269 392 234 392 c 0,17,18
 216 392 216 392 191.5 384 c 128,-1,19
 167 376 167 376 144 364 c 1,20,-1
 98 466 l 1,21,22
 142 489 142 489 184.5 500.5 c 128,-1,23
 227 512 227 512 274 512 c 0,24,25
 317 512 317 512 352.5 498.5 c 128,-1,26
 388 485 388 485 413.5 458 c 128,-1,27
 439 431 439 431 453.5 390.5 c 128,-1,28
 468 350 468 350 468 296 c 0,0,1
206 110 m 0,29,30
 235 110 235 110 262 130 c 128,-1,31
 289 150 289 150 306 198 c 1,32,-1
 154 198 l 1,33,34
 152 190 152 190 151 184 c 128,-1,35
 150 178 150 178 150 170 c 0,36,37
 150 144 150 144 162 127 c 128,-1,38
 174 110 174 110 206 110 c 0,29,30
EndSplineSet
Validated: 1
Substitution2: "'sups' Superscript in Latin lookup 12 subtable" uni0259.sups
Substitution2: "'aalt' Access All Alternates in Latin lookup 0 subtable" uni0259.sups
EndChar

StartChar: f_f
Encoding: 64256 64256 409
Width: 654
GlyphClass: 3
Flags: W
LayerCount: 2
Fore
SplineSet
346 0 m 1,0,-1
 422 376 l 1,1,-1
 269 376 l 1,2,-1
 194 0 l 1,3,-1
 34 0 l 1,4,-1
 110 376 l 1,5,-1
 46 376 l 1,6,-1
 70 494 l 1,7,-1
 135 499 l 1,8,-1
 136 504 l 2,9,10
 143 543 143 543 158.5 578 c 128,-1,11
 174 613 174 613 199 640 c 128,-1,12
 224 667 224 667 259.5 682.5 c 128,-1,13
 295 698 295 698 342 698 c 0,14,15
 403 698 403 698 456 670 c 1,16,-1
 406 558 l 1,17,18
 398 563 398 563 385 567.5 c 128,-1,19
 372 572 372 572 360 572 c 0,20,21
 347 572 347 572 337 570 c 128,-1,22
 327 568 327 568 319 561.5 c 128,-1,23
 311 555 311 555 305.5 542.5 c 128,-1,24
 300 530 300 530 296 510 c 2,25,-1
 294 500 l 1,26,-1
 447 500 l 1,27,-1
 450 514 l 2,28,29
 457 553 457 553 472.5 588 c 128,-1,30
 488 623 488 623 513 650 c 128,-1,31
 538 677 538 677 573.5 692.5 c 128,-1,32
 609 708 609 708 656 708 c 0,33,34
 717 708 717 708 770 680 c 1,35,-1
 720 568 l 1,36,37
 712 573 712 573 699 577.5 c 128,-1,38
 686 582 686 582 674 582 c 0,39,40
 661 582 661 582 651 580 c 128,-1,41
 641 578 641 578 633 571.5 c 128,-1,42
 625 565 625 565 619.5 552.5 c 128,-1,43
 614 540 614 540 610 520 c 2,44,-1
 606 500 l 1,45,-1
 688 500 l 1,46,-1
 664 376 l 1,47,-1
 581 376 l 1,48,-1
 506 0 l 1,49,-1
 346 0 l 1,0,-1
EndSplineSet
Validated: 1
Ligature2: "'liga' Standard Ligatures in Latin lookup 24 subtable" f f
EndChar

StartChar: f_t
Encoding: 65540 -1 410
Width: 684
GlyphClass: 3
Flags: W
LayerCount: 2
Fore
SplineSet
34 0 m 1,0,-1
 110 376 l 1,1,-1
 46 376 l 1,2,-1
 70 494 l 1,3,-1
 135 499 l 1,4,-1
 138 514 l 2,5,6
 145 553 145 553 160.5 588 c 128,-1,7
 176 623 176 623 201 650 c 128,-1,8
 226 677 226 677 261.5 692.5 c 128,-1,9
 297 708 297 708 344 708 c 0,10,11
 405 708 405 708 458 680 c 1,12,-1
 408 568 l 1,13,14
 400 573 400 573 387 577.5 c 128,-1,15
 374 582 374 582 362 582 c 0,16,17
 349 582 349 582 339 580 c 128,-1,18
 329 578 329 578 321 571.5 c 128,-1,19
 313 565 313 565 307.5 552.5 c 128,-1,20
 302 540 302 540 298 520 c 2,21,-1
 294 500 l 1,22,-1
 438 500 l 1,23,-1
 482 628 l 1,24,-1
 616 628 l 1,25,-1
 592 500 l 1,26,-1
 700 500 l 1,27,-1
 676 376 l 1,28,-1
 564 376 l 1,29,-1
 526 188 l 2,30,31
 524 179 524 179 524 171.5 c 128,-1,32
 524 164 524 164 524 156 c 0,33,34
 524 112 524 112 572 112 c 0,35,36
 588 112 588 112 608 122 c 1,37,-1
 636 10 l 1,38,39
 615 2 615 2 583.5 -5 c 128,-1,40
 552 -12 552 -12 510 -12 c 0,41,42
 470 -12 470 -12 441.5 -1.5 c 128,-1,43
 413 9 413 9 395 27.5 c 128,-1,44
 377 46 377 46 368.5 71.5 c 128,-1,45
 360 97 360 97 360 128 c 256,46,47
 360 159 360 159 368 194 c 2,48,-1
 406 376 l 1,49,-1
 269 376 l 1,50,-1
 194 0 l 1,51,-1
 34 0 l 1,0,-1
EndSplineSet
Validated: 1
Ligature2: "'liga' Standard Ligatures in Latin lookup 24 subtable" f t
EndChar

StartChar: I.a
Encoding: 65541 -1 411
Width: 310
GlyphClass: 2
Flags: W
LayerCount: 2
Fore
SplineSet
26 0 m 1,0,-1
 156 650 l 1,1,-1
 316 650 l 1,2,-1
 186 0 l 1,3,-1
 26 0 l 1,0,-1
EndSplineSet
Validated: 1
EndChar

StartChar: Iogonek.a
Encoding: 65552 -1 422
Width: 310
GlyphClass: 2
Flags: W
AnchorPoint: "Anchor-1" 284 682 basechar 0
LayerCount: 2
Fore
SplineSet
64 -226 m 0,0,1
 20 -226 20 -226 -7 -205 c 128,-1,2
 -34 -184 -34 -184 -34 -146 c 0,3,4
 -34 -120 -34 -120 -23 -96.5 c 128,-1,5
 -12 -73 -12 -73 3.5 -53.5 c 128,-1,6
 19 -34 19 -34 36 -20.5 c 128,-1,7
 53 -7 53 -7 64 0 c 1,8,-1
 26 0 l 1,9,-1
 156 650 l 1,10,-1
 316 650 l 1,11,-1
 186 0 l 1,12,13
 135 -17 135 -17 112.5 -45 c 128,-1,14
 90 -73 90 -73 90 -94 c 0,15,16
 90 -109 90 -109 100 -116.5 c 128,-1,17
 110 -124 110 -124 124 -124 c 0,18,19
 135 -124 135 -124 148 -116 c 1,20,-1
 178 -192 l 1,21,22
 155 -207 155 -207 123 -216.5 c 128,-1,23
 91 -226 91 -226 64 -226 c 0,0,1
EndSplineSet
Validated: 1
EndChar

StartChar: a.a
Encoding: 65553 -1 423
Width: 522
GlyphClass: 2
Flags: W
AnchorPoint: "Anchor-5" 320 0 basechar 0
AnchorPoint: "Anchor-3" 228 -22 basechar 0
AnchorPoint: "Anchor-0" 314 522 basechar 0
LayerCount: 2
Fore
SplineSet
18 114 m 0,0,1
 18 169 18 169 42 207 c 128,-1,2
 66 245 66 245 106.5 268 c 128,-1,3
 147 291 147 291 201 301.5 c 128,-1,4
 255 312 255 312 316 314 c 1,5,6
 318 319 318 319 318 322 c 128,-1,7
 318 325 318 325 318 328 c 0,8,9
 318 361 318 361 302 374.5 c 128,-1,10
 286 388 286 388 260 388 c 0,11,12
 230 388 230 388 204 379 c 128,-1,13
 178 370 178 370 142 352 c 1,14,-1
 94 462 l 1,15,16
 141 485 141 485 193 498.5 c 128,-1,17
 245 512 245 512 296 512 c 0,18,19
 382 512 382 512 429 470.5 c 128,-1,20
 476 429 476 429 476 344 c 0,21,22
 476 327 476 327 474.5 309 c 128,-1,23
 473 291 473 291 468 270 c 2,24,-1
 414 0 l 1,25,-1
 285 0 l 1,26,-1
 282 48 l 1,27,-1
 278 48 l 1,28,29
 254 24 254 24 218 6 c 128,-1,30
 182 -12 182 -12 144 -12 c 0,31,32
 118 -12 118 -12 95 -3 c 128,-1,33
 72 6 72 6 55 22.5 c 128,-1,34
 38 39 38 39 28 62 c 128,-1,35
 18 85 18 85 18 114 c 0,0,1
298 218 m 1,36,37
 230 216 230 216 202 195.5 c 128,-1,38
 174 175 174 175 174 146 c 0,39,40
 174 129 174 129 186.5 119.5 c 128,-1,41
 199 110 199 110 220 110 c 0,42,43
 238 110 238 110 252.5 119 c 128,-1,44
 267 128 267 128 282 142 c 1,45,-1
 298 218 l 1,36,37
EndSplineSet
Validated: 1
EndChar

StartChar: aogonek.a
Encoding: 65575 -1 445
Width: 522
GlyphClass: 2
Flags: W
AnchorPoint: "Anchor-0" 314 522 basechar 0
LayerCount: 2
Fore
SplineSet
285 0 m 1,0,-1
 282 48 l 1,1,-1
 278 48 l 1,2,3
 254 24 254 24 218 6 c 128,-1,4
 182 -12 182 -12 144 -12 c 0,5,6
 118 -12 118 -12 95 -3 c 128,-1,7
 72 6 72 6 55 22.5 c 128,-1,8
 38 39 38 39 28 62 c 128,-1,9
 18 85 18 85 18 114 c 0,10,11
 18 169 18 169 42 207 c 128,-1,12
 66 245 66 245 106.5 268 c 128,-1,13
 147 291 147 291 201 301.5 c 128,-1,14
 255 312 255 312 316 314 c 1,15,16
 318 319 318 319 318 322 c 128,-1,17
 318 325 318 325 318 328 c 0,18,19
 318 361 318 361 302 374.5 c 128,-1,20
 286 388 286 388 260 388 c 0,21,22
 230 388 230 388 204 379 c 128,-1,23
 178 370 178 370 142 352 c 1,24,-1
 94 462 l 1,25,26
 141 485 141 485 193 498.5 c 128,-1,27
 245 512 245 512 296 512 c 0,28,29
 382 512 382 512 429 470.5 c 128,-1,30
 476 429 476 429 476 344 c 0,31,32
 476 327 476 327 474.5 309 c 128,-1,33
 473 291 473 291 468 270 c 2,34,-1
 414 0 l 1,35,36
 366 -12 366 -12 338 -36 c 128,-1,37
 310 -60 310 -60 310 -90 c 0,38,39
 310 -104 310 -104 320 -111 c 128,-1,40
 330 -118 330 -118 344 -118 c 0,41,42
 357 -118 357 -118 374 -108 c 1,43,-1
 400 -172 l 1,44,45
 377 -189 377 -189 345 -200.5 c 128,-1,46
 313 -212 313 -212 286 -212 c 0,47,48
 247 -212 247 -212 221.5 -193 c 128,-1,49
 196 -174 196 -174 196 -136 c 0,50,51
 196 -111 196 -111 206 -89.5 c 128,-1,52
 216 -68 216 -68 230.5 -50.5 c 128,-1,53
 245 -33 245 -33 260 -20.5 c 128,-1,54
 275 -8 275 -8 285 0 c 1,0,-1
298 218 m 1,55,56
 230 216 230 216 202 195.5 c 128,-1,57
 174 175 174 175 174 146 c 0,58,59
 174 129 174 129 186.5 119.5 c 128,-1,60
 199 110 199 110 220 110 c 0,61,62
 238 110 238 110 252.5 119 c 128,-1,63
 267 128 267 128 282 142 c 1,64,-1
 298 218 l 1,55,56
EndSplineSet
Validated: 1
EndChar

StartChar: g.a
Encoding: 65576 -1 446
Width: 512
GlyphClass: 2
Flags: W
AnchorPoint: "Anchor-3" 156 -230 basechar 0
AnchorPoint: "Anchor-0" 294 522 basechar 0
LayerCount: 2
Fore
SplineSet
174 -206 m 0,0,1
 145 -206 145 -206 110 -202 c 128,-1,2
 75 -198 75 -198 43.5 -186 c 128,-1,3
 12 -174 12 -174 -9 -150.5 c 128,-1,4
 -30 -127 -30 -127 -30 -88 c 0,5,6
 -30 -47 -30 -47 -2.5 -19.5 c 128,-1,7
 25 8 25 8 69 26 c 1,8,-1
 69 30 l 1,9,10
 57 42 57 42 49.5 59 c 128,-1,11
 42 76 42 76 42 98 c 0,12,13
 42 130 42 130 63 155.5 c 128,-1,14
 84 181 84 181 116 196 c 1,15,-1
 116 200 l 1,16,17
 90 223 90 223 75 250.5 c 128,-1,18
 60 278 60 278 60 316 c 0,19,20
 60 359 60 359 77.5 395 c 128,-1,21
 95 431 95 431 125 457 c 128,-1,22
 155 483 155 483 194.5 497.5 c 128,-1,23
 234 512 234 512 278 512 c 0,24,25
 299 512 299 512 316 509 c 128,-1,26
 333 506 333 506 350 500 c 1,27,-1
 540 500 l 1,28,-1
 518 382 l 1,29,-1
 452 382 l 1,30,31
 455 371 455 371 455.5 362 c 128,-1,32
 456 353 456 353 456 342 c 0,33,34
 456 300 456 300 439.5 266 c 128,-1,35
 423 232 423 232 394 208 c 128,-1,36
 365 184 365 184 324.5 171 c 128,-1,37
 284 158 284 158 236 158 c 0,38,39
 222 158 222 158 210 159 c 128,-1,40
 198 160 198 160 190 162 c 1,41,42
 182 157 182 157 177 149 c 128,-1,43
 172 141 172 141 172 132 c 0,44,45
 172 124 172 124 174.5 118 c 128,-1,46
 177 112 177 112 184.5 108 c 128,-1,47
 192 104 192 104 207 101 c 128,-1,48
 222 98 222 98 248 95 c 0,49,50
 305 87 305 87 342 76.5 c 128,-1,51
 379 66 379 66 401 51.5 c 128,-1,52
 423 37 423 37 431.5 18.5 c 128,-1,53
 440 0 440 0 440 -24 c 0,54,55
 440 -70 440 -70 416 -104.5 c 128,-1,56
 392 -139 392 -139 354 -161.5 c 128,-1,57
 316 -184 316 -184 268.5 -195 c 128,-1,58
 221 -206 221 -206 174 -206 c 0,0,1
252 254 m 0,59,60
 268 254 268 254 280.5 262 c 128,-1,61
 293 270 293 270 302 283.5 c 128,-1,62
 311 297 311 297 315.5 313 c 128,-1,63
 320 329 320 329 320 346 c 0,64,65
 320 375 320 375 307.5 389.5 c 128,-1,66
 295 404 295 404 274 404 c 0,67,68
 258 404 258 404 245.5 396 c 128,-1,69
 233 388 233 388 224 374.5 c 128,-1,70
 215 361 215 361 210.5 344.5 c 128,-1,71
 206 328 206 328 206 312 c 0,72,73
 206 283 206 283 218.5 268.5 c 128,-1,74
 231 254 231 254 252 254 c 0,59,60
190 -108 m 0,75,76
 231 -108 231 -108 256.5 -96.5 c 128,-1,77
 282 -85 282 -85 282 -64 c 0,78,79
 282 -54 282 -54 275 -46.5 c 128,-1,80
 268 -39 268 -39 257 -34.5 c 128,-1,81
 246 -30 246 -30 231.5 -27 c 128,-1,82
 217 -24 217 -24 202 -22 c 0,83,84
 179 -19 179 -19 144 -10 c 1,85,86
 130 -20 130 -20 118 -31.5 c 128,-1,87
 106 -43 106 -43 106 -60 c 0,88,89
 106 -84 106 -84 125.5 -96 c 128,-1,90
 145 -108 145 -108 190 -108 c 0,75,76
EndSplineSet
Validated: 1
EndChar

StartChar: l.a
Encoding: 65584 -1 454
Width: 276
GlyphClass: 2
Flags: W
AnchorPoint: "Anchor-3" 90 -22 basechar 0
AnchorPoint: "Anchor-0" 240 730 basechar 0
LayerCount: 2
Fore
SplineSet
8 0 m 1,0,-1
 148 696 l 1,1,-1
 308 696 l 1,2,-1
 168 0 l 1,3,-1
 8 0 l 1,0,-1
EndSplineSet
Validated: 1
EndChar

StartChar: lslash.a
Encoding: 65592 -1 462
Width: 298
Flags: W
LayerCount: 2
Fore
SplineSet
28 246 m 1,0,-1
 -8 340 l 1,1,-1
 99 393 l 1,2,-1
 160 696 l 1,3,-1
 320 696 l 1,4,-1
 275 472 l 1,5,-1
 324 500 l 1,6,-1
 362 406 l 1,7,-1
 250 347 l 1,8,-1
 180 0 l 1,9,-1
 20 0 l 1,10,-1
 74 270 l 1,11,-1
 28 246 l 1,0,-1
EndSplineSet
Validated: 1
EndChar

StartChar: ampersand
Encoding: 38 38 463
Width: 652
Flags: W
LayerCount: 2
Fore
SplineSet
208 -12 m 0,0,1
 114 -12 114 -12 64 34 c 128,-1,2
 14 80 14 80 14 154 c 0,3,4
 14 194 14 194 26 225 c 128,-1,5
 38 256 38 256 58 280.5 c 128,-1,6
 78 305 78 305 104.5 324 c 128,-1,7
 131 343 131 343 160 359 c 1,8,9
 140 416 140 416 140 466 c 0,10,11
 140 506 140 506 156 541.5 c 128,-1,12
 172 577 172 577 200 604 c 128,-1,13
 228 631 228 631 266 646.5 c 128,-1,14
 304 662 304 662 348 662 c 0,15,16
 417 662 417 662 454.5 624.5 c 128,-1,17
 492 587 492 587 492 522 c 0,18,19
 492 486 492 486 477.5 456.5 c 128,-1,20
 463 427 463 427 440 403 c 128,-1,21
 417 379 417 379 387.5 358.5 c 128,-1,22
 358 338 358 338 327 320 c 1,23,24
 347 291 347 291 371 264.5 c 128,-1,25
 395 238 395 238 421 215 c 1,26,27
 452 250 452 250 475 288.5 c 128,-1,28
 498 327 498 327 516 372 c 1,29,-1
 660 372 l 1,30,31
 632 312 632 312 597.5 256 c 128,-1,32
 563 200 563 200 517 147 c 1,33,34
 543 134 543 134 567 126.5 c 128,-1,35
 591 119 591 119 610 114 c 1,36,-1
 548 -12 l 1,37,38
 475 2 475 2 406 47 c 1,39,40
 363 18 363 18 314 3 c 128,-1,41
 265 -12 265 -12 208 -12 c 0,0,1
272 470 m 0,42,43
 272 457 272 457 274 444.5 c 128,-1,44
 276 432 276 432 279 419 c 1,45,46
 318 440 318 440 343.5 464.5 c 128,-1,47
 369 489 369 489 369 525 c 0,48,49
 369 558 369 558 338 558 c 0,50,51
 313 558 313 558 292.5 535 c 128,-1,52
 272 512 272 512 272 470 c 0,42,43
236 108 m 0,53,54
 274 108 274 108 311 125 c 1,55,56
 255 181 255 181 214 248 c 1,57,58
 193 231 193 231 180.5 212 c 128,-1,59
 168 193 168 193 168 170 c 0,60,61
 168 143 168 143 185.5 125.5 c 128,-1,62
 203 108 203 108 236 108 c 0,53,54
EndSplineSet
Validated: 1
EndChar

StartChar: zero
Encoding: 48 48 464
Width: 520
Flags: W
LayerCount: 2
Fore
SplineSet
224 -12 m 0,0,1
 185 -12 185 -12 150.5 1.5 c 128,-1,2
 116 15 116 15 90.5 43.5 c 128,-1,3
 65 72 65 72 50.5 116 c 128,-1,4
 36 160 36 160 36 220 c 0,5,6
 36 332 36 332 62 412.5 c 128,-1,7
 88 493 88 493 129 545 c 128,-1,8
 170 597 170 597 221 621.5 c 128,-1,9
 272 646 272 646 322 646 c 0,10,11
 361 646 361 646 395 632 c 128,-1,12
 429 618 429 618 454 589.5 c 128,-1,13
 479 561 479 561 493.5 517 c 128,-1,14
 508 473 508 473 508 412 c 0,15,16
 508 300 508 300 482.5 220 c 128,-1,17
 457 140 457 140 416.5 88.5 c 128,-1,18
 376 37 376 37 325 12.5 c 128,-1,19
 274 -12 274 -12 224 -12 c 0,0,1
234 110 m 0,20,21
 256 110 256 110 279 133.5 c 128,-1,22
 302 157 302 157 320.5 199 c 128,-1,23
 339 241 339 241 350.5 300 c 128,-1,24
 362 359 362 359 362 430 c 0,25,26
 362 485 362 485 348 504.5 c 128,-1,27
 334 524 334 524 312 524 c 0,28,29
 289 524 289 524 266.5 500.5 c 128,-1,30
 244 477 244 477 225.5 434.5 c 128,-1,31
 207 392 207 392 195.5 332.5 c 128,-1,32
 184 273 184 273 184 202 c 0,33,34
 184 174 184 174 187.5 156.5 c 128,-1,35
 191 139 191 139 197.5 128.5 c 128,-1,36
 204 118 204 118 213.5 114 c 128,-1,37
 223 110 223 110 234 110 c 0,20,21
EndSplineSet
Validated: 1
Substitution2: "'zero' Slashed Zero in Latin lookup 18 subtable" zero.0
Substitution2: "'ss05' Style Set 5 in Latin lookup 17 subtable" zero.0s
Substitution2: "'onum' Oldstyle Figures in Latin lookup 16 subtable" zero.tnum
Substitution2: "'pnum' Proportional Numbers in Latin lookup 15 subtable" zero.pnum
Substitution2: "'subs' Subscript in Latin lookup 14 subtable" zero.subs
Substitution2: "'sups' Superscript in Latin lookup 13 subtable" zero.sups
Substitution2: "'dnom' Denominators in Latin lookup 9 subtable" zero.dnom
Substitution2: "'numr' Numerators in Latin lookup 8 subtable" zero.numr
AlternateSubs2: "'aalt' Access All Alternates in Latin lookup 1 subtable" zero.numr zero.dnom zero.sups zero.subs zero.pnum zero.tnum
EndChar

StartChar: one
Encoding: 49 49 465
Width: 520
Flags: W
LayerCount: 2
Fore
SplineSet
16 0 m 1,0,-1
 42 128 l 1,1,-1
 170 128 l 1,2,-1
 240 474 l 1,3,-1
 124 474 l 1,4,-1
 144 574 l 1,5,6
 200 583 200 583 238 597 c 128,-1,7
 276 611 276 611 314 634 c 1,8,-1
 432 634 l 1,9,-1
 330 128 l 1,10,-1
 442 128 l 1,11,-1
 416 0 l 1,12,-1
 16 0 l 1,0,-1
EndSplineSet
Validated: 1
Substitution2: "'onum' Oldstyle Figures in Latin lookup 16 subtable" one.tnum
Substitution2: "'pnum' Proportional Numbers in Latin lookup 15 subtable" one.pnum
Substitution2: "'subs' Subscript in Latin lookup 14 subtable" one.subs
Substitution2: "'sups' Superscript in Latin lookup 13 subtable" one.sups
Substitution2: "'dnom' Denominators in Latin lookup 9 subtable" one.dnom
Substitution2: "'numr' Numerators in Latin lookup 8 subtable" one.numr
AlternateSubs2: "'aalt' Access All Alternates in Latin lookup 1 subtable" one.numr one.dnom one.sups one.subs one.pnum one.tnum
EndChar

StartChar: two
Encoding: 50 50 466
Width: 520
Flags: W
LayerCount: 2
Fore
SplineSet
-14 0 m 1,0,-1
 4 90 l 1,1,2
 74 147 74 147 134.5 196 c 128,-1,3
 195 245 195 245 239.5 289 c 128,-1,4
 284 333 284 333 309 373.5 c 128,-1,5
 334 414 334 414 334 454 c 0,6,7
 334 484 334 484 317 502 c 128,-1,8
 300 520 300 520 268 520 c 0,9,10
 242 520 242 520 221 507 c 128,-1,11
 200 494 200 494 174 474 c 1,12,-1
 98 566 l 1,13,14
 193 646 193 646 288 646 c 0,15,16
 334 646 334 646 371.5 633.5 c 128,-1,17
 409 621 409 621 435.5 598 c 128,-1,18
 462 575 462 575 476 542.5 c 128,-1,19
 490 510 490 510 490 470 c 0,20,21
 490 423 490 423 472.5 382 c 128,-1,22
 455 341 455 341 423.5 301 c 128,-1,23
 392 261 392 261 349.5 220.5 c 128,-1,24
 307 180 307 180 258 134 c 1,25,-1
 450 134 l 1,26,-1
 424 0 l 1,27,-1
 -14 0 l 1,0,-1
EndSplineSet
Validated: 1
Substitution2: "'onum' Oldstyle Figures in Latin lookup 16 subtable" two.tnum
Substitution2: "'pnum' Proportional Numbers in Latin lookup 15 subtable" two.pnum
Substitution2: "'subs' Subscript in Latin lookup 14 subtable" two.subs
Substitution2: "'sups' Superscript in Latin lookup 13 subtable" two.sups
Substitution2: "'dnom' Denominators in Latin lookup 9 subtable" two.dnom
Substitution2: "'numr' Numerators in Latin lookup 8 subtable" two.numr
AlternateSubs2: "'aalt' Access All Alternates in Latin lookup 1 subtable" two.numr two.dnom two.sups two.subs two.pnum two.tnum
EndChar

StartChar: three
Encoding: 51 51 467
Width: 520
Flags: W
LayerCount: 2
Fore
SplineSet
208 -12 m 0,0,1
 179 -12 179 -12 149 -6 c 128,-1,2
 119 0 119 0 89.5 13.5 c 128,-1,3
 60 27 60 27 32.5 49.5 c 128,-1,4
 5 72 5 72 -18 104 c 1,5,-1
 82 186 l 1,6,7
 108 151 108 151 141.5 133.5 c 128,-1,8
 175 116 175 116 204 116 c 0,9,10
 249 116 249 116 274.5 134.5 c 128,-1,11
 300 153 300 153 300 188 c 0,12,13
 300 207 300 207 294 221.5 c 128,-1,14
 288 236 288 236 271.5 246 c 128,-1,15
 255 256 255 256 226.5 261 c 128,-1,16
 198 266 198 266 154 266 c 1,17,-1
 176 378 l 1,18,19
 222 378 222 378 252.5 384.5 c 128,-1,20
 283 391 283 391 300.5 402.5 c 128,-1,21
 318 414 318 414 325 429.5 c 128,-1,22
 332 445 332 445 332 464 c 0,23,24
 332 490 332 490 314 505 c 128,-1,25
 296 520 296 520 264 520 c 0,26,27
 243 520 243 520 222.5 511 c 128,-1,28
 202 502 202 502 172 484 c 1,29,-1
 96 586 l 1,30,31
 147 621 147 621 195 633.5 c 128,-1,32
 243 646 243 646 294 646 c 0,33,34
 338 646 338 646 375 635 c 128,-1,35
 412 624 412 624 439 603.5 c 128,-1,36
 466 583 466 583 481 554 c 128,-1,37
 496 525 496 525 496 490 c 0,38,39
 496 430 496 430 467.5 389 c 128,-1,40
 439 348 439 348 364 322 c 1,41,-1
 364 318 l 1,42,43
 415 297 415 297 437.5 262 c 128,-1,44
 460 227 460 227 460 186 c 0,45,46
 460 137 460 137 440.5 100 c 128,-1,47
 421 63 421 63 387 38 c 128,-1,48
 353 13 353 13 307 0.5 c 128,-1,49
 261 -12 261 -12 208 -12 c 0,0,1
EndSplineSet
Validated: 1
Substitution2: "'onum' Oldstyle Figures in Latin lookup 16 subtable" three.tnum
Substitution2: "'pnum' Proportional Numbers in Latin lookup 15 subtable" three.pnum
Substitution2: "'subs' Subscript in Latin lookup 14 subtable" three.subs
Substitution2: "'sups' Superscript in Latin lookup 13 subtable" three.sups
Substitution2: "'dnom' Denominators in Latin lookup 9 subtable" three.dnom
Substitution2: "'numr' Numerators in Latin lookup 8 subtable" three.numr
AlternateSubs2: "'aalt' Access All Alternates in Latin lookup 1 subtable" three.numr three.dnom three.sups three.subs three.pnum three.tnum
EndChar

StartChar: four
Encoding: 52 52 468
Width: 520
Flags: W
LayerCount: 2
Fore
SplineSet
384 0 m 1,0,-1
 238 0 l 1,1,-1
 267 146 l 1,2,-1
 8 146 l 1,3,-1
 30 258 l 1,4,-1
 316 634 l 1,5,-1
 510 634 l 1,6,-1
 437 268 l 1,7,-1
 506 268 l 1,8,-1
 482 146 l 1,9,-1
 413 146 l 1,10,-1
 384 0 l 1,0,-1
184 268 m 1,11,-1
 291 268 l 1,12,-1
 308 354 l 2,13,14
 316 390 316 390 325 427 c 128,-1,15
 334 464 334 464 342 500 c 1,16,-1
 338 500 l 1,17,18
 320 470 320 470 303 439 c 128,-1,19
 286 408 286 408 266 380 c 2,20,-1
 184 268 l 1,11,-1
EndSplineSet
Validated: 1
Substitution2: "'onum' Oldstyle Figures in Latin lookup 16 subtable" four.tnum
Substitution2: "'pnum' Proportional Numbers in Latin lookup 15 subtable" four.pnum
Substitution2: "'subs' Subscript in Latin lookup 14 subtable" four.subs
Substitution2: "'sups' Superscript in Latin lookup 13 subtable" four.sups
Substitution2: "'dnom' Denominators in Latin lookup 9 subtable" four.dnom
Substitution2: "'numr' Numerators in Latin lookup 8 subtable" four.numr
AlternateSubs2: "'aalt' Access All Alternates in Latin lookup 1 subtable" four.numr four.dnom four.sups four.subs four.pnum four.tnum
EndChar

StartChar: five
Encoding: 53 53 469
Width: 520
Flags: W
LayerCount: 2
Fore
SplineSet
208 -12 m 0,0,1
 151 -12 151 -12 95 13.5 c 128,-1,2
 39 39 39 39 -8 104 c 1,3,-1
 92 186 l 1,4,5
 144 116 144 116 210 116 c 0,6,7
 249 116 249 116 278.5 142 c 128,-1,8
 308 168 308 168 308 216 c 0,9,10
 308 254 308 254 288 273 c 128,-1,11
 268 292 268 292 232 292 c 0,12,13
 221 292 221 292 212 291 c 128,-1,14
 203 290 203 290 193.5 287 c 128,-1,15
 184 284 184 284 172 278.5 c 128,-1,16
 160 273 160 273 144 264 c 1,17,-1
 86 312 l 1,18,-1
 164 634 l 1,19,-1
 522 634 l 1,20,-1
 496 500 l 1,21,-1
 276 500 l 1,22,-1
 248 400 l 1,23,24
 262 406 262 406 274 408 c 128,-1,25
 286 410 286 410 300 410 c 0,26,27
 336 410 336 410 367 399 c 128,-1,28
 398 388 398 388 421 367 c 128,-1,29
 444 346 444 346 457 314.5 c 128,-1,30
 470 283 470 283 470 242 c 0,31,32
 470 183 470 183 447.5 136 c 128,-1,33
 425 89 425 89 388.5 56 c 128,-1,34
 352 23 352 23 304.5 5.5 c 128,-1,35
 257 -12 257 -12 208 -12 c 0,0,1
EndSplineSet
Validated: 1
Substitution2: "'onum' Oldstyle Figures in Latin lookup 16 subtable" five.tnum
Substitution2: "'pnum' Proportional Numbers in Latin lookup 15 subtable" five.pnum
Substitution2: "'subs' Subscript in Latin lookup 14 subtable" five.subs
Substitution2: "'sups' Superscript in Latin lookup 13 subtable" five.sups
Substitution2: "'dnom' Denominators in Latin lookup 9 subtable" five.dnom
Substitution2: "'numr' Numerators in Latin lookup 8 subtable" five.numr
AlternateSubs2: "'aalt' Access All Alternates in Latin lookup 1 subtable" five.numr five.dnom five.sups five.subs five.pnum five.tnum
EndChar

StartChar: six
Encoding: 54 54 470
Width: 520
Flags: W
LayerCount: 2
Fore
SplineSet
256 -12 m 0,0,1
 209 -12 209 -12 171 4.5 c 128,-1,2
 133 21 133 21 106 51.5 c 128,-1,3
 79 82 79 82 64.5 124.5 c 128,-1,4
 50 167 50 167 50 218 c 0,5,6
 50 315 50 315 74 394.5 c 128,-1,7
 98 474 98 474 141.5 529.5 c 128,-1,8
 185 585 185 585 245 615.5 c 128,-1,9
 305 646 305 646 376 646 c 0,10,11
 407 646 407 646 433 637.5 c 128,-1,12
 459 629 459 629 479 615.5 c 128,-1,13
 499 602 499 602 514 586 c 128,-1,14
 529 570 529 570 540 556 c 1,15,-1
 440 472 l 1,16,17
 426 492 426 492 409 505 c 128,-1,18
 392 518 392 518 366 518 c 0,19,20
 315 518 315 518 273.5 476.5 c 128,-1,21
 232 435 232 435 212 345 c 1,22,23
 225 358 225 358 240 368.5 c 128,-1,24
 255 379 255 379 271 386 c 128,-1,25
 287 393 287 393 301.5 396.5 c 128,-1,26
 316 400 316 400 328 400 c 0,27,28
 361 400 361 400 390 390.5 c 128,-1,29
 419 381 419 381 440 361 c 128,-1,30
 461 341 461 341 473.5 309.5 c 128,-1,31
 486 278 486 278 486 234 c 0,32,33
 486 188 486 188 469 143.5 c 128,-1,34
 452 99 452 99 422 64.5 c 128,-1,35
 392 30 392 30 349.5 9 c 128,-1,36
 307 -12 307 -12 256 -12 c 0,0,1
264 106 m 0,37,38
 284 106 284 106 298.5 117.5 c 128,-1,39
 313 129 313 129 322 146 c 128,-1,40
 331 163 331 163 335.5 183 c 128,-1,41
 340 203 340 203 340 221 c 0,42,43
 340 255 340 255 325.5 273.5 c 128,-1,44
 311 292 311 292 284 292 c 0,45,46
 266 292 266 292 245 280 c 128,-1,47
 224 268 224 268 199 237 c 1,48,49
 198 228 198 228 198 219 c 128,-1,50
 198 210 198 210 198 201 c 0,51,52
 198 153 198 153 216.5 129.5 c 128,-1,53
 235 106 235 106 264 106 c 0,37,38
EndSplineSet
Validated: 1
Substitution2: "'onum' Oldstyle Figures in Latin lookup 16 subtable" six.tnum
Substitution2: "'pnum' Proportional Numbers in Latin lookup 15 subtable" six.pnum
Substitution2: "'subs' Subscript in Latin lookup 14 subtable" six.subs
Substitution2: "'sups' Superscript in Latin lookup 13 subtable" six.sups
Substitution2: "'dnom' Denominators in Latin lookup 9 subtable" six.dnom
Substitution2: "'numr' Numerators in Latin lookup 8 subtable" six.numr
AlternateSubs2: "'aalt' Access All Alternates in Latin lookup 1 subtable" six.numr six.dnom six.sups six.subs six.pnum six.tnum
EndChar

StartChar: seven
Encoding: 55 55 471
Width: 520
Flags: W
LayerCount: 2
Fore
SplineSet
92 0 m 1,0,1
 137 160 137 160 197 283.5 c 128,-1,2
 257 407 257 407 350 500 c 1,3,-1
 96 500 l 1,4,-1
 122 634 l 1,5,-1
 554 634 l 1,6,-1
 534 534 l 1,7,8
 463 469 463 469 416.5 402 c 128,-1,9
 370 335 370 335 339 267.5 c 128,-1,10
 308 200 308 200 289 132.5 c 128,-1,11
 270 65 270 65 256 0 c 1,12,-1
 92 0 l 1,0,1
EndSplineSet
Validated: 1
Substitution2: "'onum' Oldstyle Figures in Latin lookup 16 subtable" seven.tnum
Substitution2: "'pnum' Proportional Numbers in Latin lookup 15 subtable" seven.pnum
Substitution2: "'subs' Subscript in Latin lookup 14 subtable" seven.subs
Substitution2: "'sups' Superscript in Latin lookup 13 subtable" seven.sups
Substitution2: "'dnom' Denominators in Latin lookup 9 subtable" seven.dnom
Substitution2: "'numr' Numerators in Latin lookup 8 subtable" seven.numr
AlternateSubs2: "'aalt' Access All Alternates in Latin lookup 1 subtable" seven.numr seven.dnom seven.sups seven.subs seven.pnum seven.tnum
EndChar

StartChar: eight
Encoding: 56 56 472
Width: 520
Flags: W
LayerCount: 2
Fore
SplineSet
238 -12 m 0,0,1
 204 -12 204 -12 168.5 -2.5 c 128,-1,2
 133 7 133 7 104 27 c 128,-1,3
 75 47 75 47 56.5 78.5 c 128,-1,4
 38 110 38 110 38 154 c 0,5,6
 38 185 38 185 48 212 c 128,-1,7
 58 239 58 239 76 261 c 128,-1,8
 94 283 94 283 118 299 c 128,-1,9
 142 315 142 315 170 326 c 1,10,-1
 170 330 l 1,11,12
 116 387 116 387 116 460 c 0,13,14
 116 503 116 503 133 537.5 c 128,-1,15
 150 572 150 572 179.5 596 c 128,-1,16
 209 620 209 620 247.5 633 c 128,-1,17
 286 646 286 646 330 646 c 0,18,19
 362 646 362 646 394 637.5 c 128,-1,20
 426 629 426 629 451.5 611 c 128,-1,21
 477 593 477 593 492.5 564.5 c 128,-1,22
 508 536 508 536 508 496 c 0,23,24
 508 439 508 439 478.5 396.5 c 128,-1,25
 449 354 449 354 398 328 c 1,26,-1
 398 324 l 1,27,28
 434 300 434 300 454 263 c 128,-1,29
 474 226 474 226 474 178 c 0,30,31
 474 134 474 134 455 99 c 128,-1,32
 436 64 436 64 403.5 39.5 c 128,-1,33
 371 15 371 15 328 1.5 c 128,-1,34
 285 -12 285 -12 238 -12 c 0,0,1
328 372 m 1,35,36
 346 390 346 390 359 414.5 c 128,-1,37
 372 439 372 439 372 472 c 0,38,39
 372 498 372 498 360.5 516 c 128,-1,40
 349 534 349 534 318 534 c 0,41,42
 292 534 292 534 274 516.5 c 128,-1,43
 256 499 256 499 256 466 c 0,44,45
 256 435 256 435 274 413.5 c 128,-1,46
 292 392 292 392 328 372 c 1,35,36
250 98 m 0,47,48
 281 98 281 98 304.5 117.5 c 128,-1,49
 328 137 328 137 328 178 c 0,50,51
 328 210 328 210 303.5 232 c 128,-1,52
 279 254 279 254 234 280 c 1,53,54
 211 262 211 262 195.5 234.5 c 128,-1,55
 180 207 180 207 180 172 c 0,56,57
 180 143 180 143 197 120.5 c 128,-1,58
 214 98 214 98 250 98 c 0,47,48
EndSplineSet
Validated: 1
Substitution2: "'onum' Oldstyle Figures in Latin lookup 16 subtable" eight.tnum
Substitution2: "'pnum' Proportional Numbers in Latin lookup 15 subtable" eight.pnum
Substitution2: "'subs' Subscript in Latin lookup 14 subtable" eight.subs
Substitution2: "'sups' Superscript in Latin lookup 13 subtable" eight.sups
Substitution2: "'dnom' Denominators in Latin lookup 9 subtable" eight.dnom
Substitution2: "'numr' Numerators in Latin lookup 8 subtable" eight.numr
AlternateSubs2: "'aalt' Access All Alternates in Latin lookup 1 subtable" eight.numr eight.dnom eight.sups eight.subs eight.pnum eight.tnum
EndChar

StartChar: nine
Encoding: 57 57 473
Width: 520
Flags: W
LayerCount: 2
Fore
SplineSet
264 342 m 0,0,1
 282 342 282 342 303 354 c 128,-1,2
 324 366 324 366 349 397 c 1,3,4
 350 406 350 406 350 415 c 128,-1,5
 350 424 350 424 350 433 c 0,6,7
 350 481 350 481 331.5 504.5 c 128,-1,8
 313 528 313 528 284 528 c 0,9,10
 264 528 264 528 249.5 516.5 c 128,-1,11
 235 505 235 505 226 488 c 128,-1,12
 217 471 217 471 212.5 451 c 128,-1,13
 208 431 208 431 208 413 c 0,14,15
 208 379 208 379 222.5 360.5 c 128,-1,16
 237 342 237 342 264 342 c 0,0,1
172 -12 m 0,17,18
 140 -12 140 -12 114.5 -3.5 c 128,-1,19
 89 5 89 5 69 18.5 c 128,-1,20
 49 32 49 32 33.5 48 c 128,-1,21
 18 64 18 64 8 78 c 1,22,-1
 108 162 l 1,23,24
 122 142 122 142 139 129 c 128,-1,25
 156 116 156 116 182 116 c 0,26,27
 233 116 233 116 274.5 157.5 c 128,-1,28
 316 199 316 199 336 289 c 1,29,30
 323 276 323 276 308 265.5 c 128,-1,31
 293 255 293 255 277 248 c 128,-1,32
 261 241 261 241 246.5 237.5 c 128,-1,33
 232 234 232 234 220 234 c 0,34,35
 187 234 187 234 158 243.5 c 128,-1,36
 129 253 129 253 108 273 c 128,-1,37
 87 293 87 293 74.5 324.5 c 128,-1,38
 62 356 62 356 62 400 c 0,39,40
 62 446 62 446 79 490.5 c 128,-1,41
 96 535 96 535 126 569.5 c 128,-1,42
 156 604 156 604 198.5 625 c 128,-1,43
 241 646 241 646 292 646 c 0,44,45
 339 646 339 646 377 629.5 c 128,-1,46
 415 613 415 613 442 582.5 c 128,-1,47
 469 552 469 552 483.5 509.5 c 128,-1,48
 498 467 498 467 498 416 c 0,49,50
 498 318 498 318 474 239 c 128,-1,51
 450 160 450 160 406.5 104.5 c 128,-1,52
 363 49 363 49 303 18.5 c 128,-1,53
 243 -12 243 -12 172 -12 c 0,17,18
EndSplineSet
Validated: 1
Substitution2: "'onum' Oldstyle Figures in Latin lookup 16 subtable" nine.tnum
Substitution2: "'pnum' Proportional Numbers in Latin lookup 15 subtable" nine.pnum
Substitution2: "'subs' Subscript in Latin lookup 14 subtable" nine.subs
Substitution2: "'sups' Superscript in Latin lookup 13 subtable" nine.sups
Substitution2: "'dnom' Denominators in Latin lookup 9 subtable" nine.dnom
Substitution2: "'numr' Numerators in Latin lookup 8 subtable" nine.numr
AlternateSubs2: "'aalt' Access All Alternates in Latin lookup 1 subtable" nine.numr nine.dnom nine.sups nine.subs nine.pnum nine.tnum
EndChar

StartChar: zero.pnum
Encoding: 65593 -1 474
Width: 556
Flags: W
LayerCount: 2
Fore
SplineSet
234 -12 m 0,0,1
 193 -12 193 -12 157 1.5 c 128,-1,2
 121 15 121 15 94 43.5 c 128,-1,3
 67 72 67 72 51.5 116 c 128,-1,4
 36 160 36 160 36 220 c 0,5,6
 36 332 36 332 63 412.5 c 128,-1,7
 90 493 90 493 132.5 545 c 128,-1,8
 175 597 175 597 227.5 621.5 c 128,-1,9
 280 646 280 646 332 646 c 0,10,11
 373 646 373 646 409 632 c 128,-1,12
 445 618 445 618 471.5 589.5 c 128,-1,13
 498 561 498 561 513 517 c 128,-1,14
 528 473 528 473 528 412 c 0,15,16
 528 300 528 300 501.5 220 c 128,-1,17
 475 140 475 140 433 88.5 c 128,-1,18
 391 37 391 37 338.5 12.5 c 128,-1,19
 286 -12 286 -12 234 -12 c 0,0,1
244 110 m 0,20,21
 268 110 268 110 292.5 133.5 c 128,-1,22
 317 157 317 157 337 199 c 128,-1,23
 357 241 357 241 369.5 300 c 128,-1,24
 382 359 382 359 382 430 c 0,25,26
 382 485 382 485 365.5 504.5 c 128,-1,27
 349 524 349 524 322 524 c 0,28,29
 298 524 298 524 273.5 500.5 c 128,-1,30
 249 477 249 477 229 434.5 c 128,-1,31
 209 392 209 392 196.5 332.5 c 128,-1,32
 184 273 184 273 184 202 c 0,33,34
 184 174 184 174 188.5 156.5 c 128,-1,35
 193 139 193 139 200.5 128.5 c 128,-1,36
 208 118 208 118 219 114 c 128,-1,37
 230 110 230 110 244 110 c 0,20,21
EndSplineSet
Validated: 1
Substitution2: "'zero' Slashed Zero in Latin lookup 18 subtable" zero.0p
Substitution2: "'ss05' Style Set 5 in Latin lookup 17 subtable" zero.0ps
Substitution2: "'onum' Oldstyle Figures in Latin lookup 16 subtable" zero.onum
Substitution2: "'aalt' Access All Alternates in Latin lookup 0 subtable" zero.onum
EndChar

StartChar: one.pnum
Encoding: 65594 -1 475
Width: 392
Flags: W
LayerCount: 2
Fore
SplineSet
80 0 m 1,0,-1
 176 474 l 1,1,-1
 60 474 l 1,2,-1
 80 574 l 1,3,4
 136 583 136 583 174 597 c 128,-1,5
 212 611 212 611 250 634 c 1,6,-1
 368 634 l 1,7,-1
 240 0 l 1,8,-1
 80 0 l 1,0,-1
EndSplineSet
Validated: 1
Substitution2: "'onum' Oldstyle Figures in Latin lookup 16 subtable" one.onum
Substitution2: "'aalt' Access All Alternates in Latin lookup 0 subtable" one.onum
EndChar

StartChar: two.pnum
Encoding: 65595 -1 476
Width: 500
Flags: W
LayerCount: 2
Fore
SplineSet
-14 0 m 1,0,-1
 4 90 l 1,1,2
 72 147 72 147 130.5 196 c 128,-1,3
 189 245 189 245 232 289 c 128,-1,4
 275 333 275 333 299.5 373.5 c 128,-1,5
 324 414 324 414 324 454 c 0,6,7
 324 484 324 484 309.5 502 c 128,-1,8
 295 520 295 520 268 520 c 0,9,10
 242 520 242 520 221 507 c 128,-1,11
 200 494 200 494 174 474 c 1,12,-1
 98 566 l 1,13,14
 193 646 193 646 288 646 c 0,15,16
 331 646 331 646 366.5 633.5 c 128,-1,17
 402 621 402 621 427.5 598 c 128,-1,18
 453 575 453 575 466.5 542.5 c 128,-1,19
 480 510 480 510 480 470 c 0,20,21
 480 423 480 423 463 382 c 128,-1,22
 446 341 446 341 416 301 c 128,-1,23
 386 261 386 261 345.5 220.5 c 128,-1,24
 305 180 305 180 258 134 c 1,25,-1
 440 134 l 1,26,-1
 414 0 l 1,27,-1
 -14 0 l 1,0,-1
EndSplineSet
Validated: 1
Substitution2: "'onum' Oldstyle Figures in Latin lookup 16 subtable" two.onum
Substitution2: "'aalt' Access All Alternates in Latin lookup 0 subtable" two.onum
EndChar

StartChar: seven.pnum
Encoding: 65600 -1 481
Width: 490
Flags: W
LayerCount: 2
Fore
SplineSet
80 0 m 1,0,1
 125 160 125 160 183 283.5 c 128,-1,2
 241 407 241 407 328 500 c 1,3,-1
 84 500 l 1,4,-1
 110 634 l 1,5,-1
 532 634 l 1,6,-1
 512 534 l 1,7,8
 445 469 445 469 400 402 c 128,-1,9
 355 335 355 335 325 267.5 c 128,-1,10
 295 200 295 200 276.5 132.5 c 128,-1,11
 258 65 258 65 244 0 c 1,12,-1
 80 0 l 1,0,1
EndSplineSet
Validated: 1
Substitution2: "'onum' Oldstyle Figures in Latin lookup 16 subtable" seven.onum
Substitution2: "'aalt' Access All Alternates in Latin lookup 0 subtable" seven.onum
EndChar

StartChar: zero.tnum
Encoding: 65603 -1 484
Width: 520
Flags: W
LayerCount: 2
Fore
SplineSet
222 -12 m 0,0,1
 177 -12 177 -12 141.5 3.5 c 128,-1,2
 106 19 106 19 81 47.5 c 128,-1,3
 56 76 56 76 43 116 c 128,-1,4
 30 156 30 156 30 206 c 0,5,6
 30 277 30 277 48 346.5 c 128,-1,7
 66 416 66 416 101 470.5 c 128,-1,8
 136 525 136 525 188 558.5 c 128,-1,9
 240 592 240 592 308 592 c 0,10,11
 353 592 353 592 388.5 576.5 c 128,-1,12
 424 561 424 561 449 532.5 c 128,-1,13
 474 504 474 504 487 463.5 c 128,-1,14
 500 423 500 423 500 374 c 0,15,16
 500 303 500 303 482 233.5 c 128,-1,17
 464 164 464 164 429 109.5 c 128,-1,18
 394 55 394 55 342 21.5 c 128,-1,19
 290 -12 290 -12 222 -12 c 0,0,1
236 110 m 0,20,21
 261 110 261 110 282 133 c 128,-1,22
 303 156 303 156 318 192.5 c 128,-1,23
 333 229 333 229 341.5 274.5 c 128,-1,24
 350 320 350 320 350 364 c 0,25,26
 350 415 350 415 337 442.5 c 128,-1,27
 324 470 324 470 294 470 c 0,28,29
 269 470 269 470 248 447 c 128,-1,30
 227 424 227 424 212 387.5 c 128,-1,31
 197 351 197 351 188.5 305.5 c 128,-1,32
 180 260 180 260 180 216 c 0,33,34
 180 165 180 165 193 137.5 c 128,-1,35
 206 110 206 110 236 110 c 0,20,21
EndSplineSet
Validated: 1
Substitution2: "'pnum' Proportional Numbers in Latin lookup 15 subtable" zero.onum
Substitution2: "'aalt' Access All Alternates in Latin lookup 0 subtable" zero.onum
EndChar

StartChar: one.tnum
Encoding: 65604 -1 485
Width: 520
Flags: W
LayerCount: 2
Fore
SplineSet
16 0 m 1,0,-1
 42 128 l 1,1,-1
 170 128 l 1,2,-1
 228 420 l 1,3,-1
 112 420 l 1,4,-1
 132 520 l 1,5,6
 188 529 188 529 226 543 c 128,-1,7
 264 557 264 557 302 580 c 1,8,-1
 420 580 l 1,9,-1
 330 128 l 1,10,-1
 442 128 l 1,11,-1
 416 0 l 1,12,-1
 16 0 l 1,0,-1
EndSplineSet
Validated: 1
Substitution2: "'pnum' Proportional Numbers in Latin lookup 15 subtable" one.onum
Substitution2: "'aalt' Access All Alternates in Latin lookup 0 subtable" one.onum
EndChar

StartChar: two.tnum
Encoding: 65605 -1 486
Width: 520
Flags: W
LayerCount: 2
Fore
SplineSet
-14 0 m 1,0,-1
 4 90 l 1,1,2
 71 139 71 139 128.5 181.5 c 128,-1,3
 186 224 186 224 227.5 261.5 c 128,-1,4
 269 299 269 299 292.5 333 c 128,-1,5
 316 367 316 367 316 400 c 0,6,7
 316 430 316 430 299 448 c 128,-1,8
 282 466 282 466 250 466 c 0,9,10
 224 466 224 466 203 453 c 128,-1,11
 182 440 182 440 156 420 c 1,12,-1
 80 512 l 1,13,14
 127 550 127 550 174.5 571 c 128,-1,15
 222 592 222 592 270 592 c 0,16,17
 316 592 316 592 353.5 579.5 c 128,-1,18
 391 567 391 567 417.5 544 c 128,-1,19
 444 521 444 521 458 488.5 c 128,-1,20
 472 456 472 456 472 416 c 0,21,22
 472 378 472 378 455.5 343.5 c 128,-1,23
 439 309 439 309 410.5 275 c 128,-1,24
 382 241 382 241 343 206.5 c 128,-1,25
 304 172 304 172 258 134 c 1,26,-1
 450 134 l 1,27,-1
 424 0 l 1,28,-1
 -14 0 l 1,0,-1
EndSplineSet
Validated: 1
Substitution2: "'pnum' Proportional Numbers in Latin lookup 15 subtable" two.onum
Substitution2: "'aalt' Access All Alternates in Latin lookup 0 subtable" two.onum
EndChar

StartChar: three.tnum
Encoding: 65606 -1 487
Width: 520
Flags: W
LayerCount: 2
Fore
SplineSet
198 -92 m 0,0,1
 169 -92 169 -92 139 -86 c 128,-1,2
 109 -80 109 -80 79.5 -66.5 c 128,-1,3
 50 -53 50 -53 22.5 -30.5 c 128,-1,4
 -5 -8 -5 -8 -28 24 c 1,5,-1
 72 106 l 1,6,7
 95 71 95 71 126 53.5 c 128,-1,8
 157 36 157 36 184 36 c 0,9,10
 229 36 229 36 254.5 60.5 c 128,-1,11
 280 85 280 85 280 124 c 0,12,13
 280 143 280 143 274 157.5 c 128,-1,14
 268 172 268 172 253 182 c 128,-1,15
 238 192 238 192 211.5 197 c 128,-1,16
 185 202 185 202 144 202 c 1,17,-1
 166 314 l 1,18,19
 211 314 211 314 240.5 321 c 128,-1,20
 270 328 270 328 288 341 c 128,-1,21
 306 354 306 354 313 371.5 c 128,-1,22
 320 389 320 389 320 410 c 0,23,24
 320 436 320 436 301.5 451 c 128,-1,25
 283 466 283 466 254 466 c 0,26,27
 233 466 233 466 212.5 457 c 128,-1,28
 192 448 192 448 162 430 c 1,29,-1
 86 532 l 1,30,31
 137 567 137 567 185 579.5 c 128,-1,32
 233 592 233 592 284 592 c 0,33,34
 328 592 328 592 365 581 c 128,-1,35
 402 570 402 570 428.5 549.5 c 128,-1,36
 455 529 455 529 469.5 500 c 128,-1,37
 484 471 484 471 484 436 c 0,38,39
 484 373 484 373 450.5 329 c 128,-1,40
 417 285 417 285 354 258 c 1,41,-1
 354 254 l 1,42,43
 440 210 440 210 440 116 c 0,44,45
 440 66 440 66 421.5 27.5 c 128,-1,46
 403 -11 403 -11 370 -37.5 c 128,-1,47
 337 -64 337 -64 293 -78 c 128,-1,48
 249 -92 249 -92 198 -92 c 0,0,1
EndSplineSet
Validated: 1
Substitution2: "'pnum' Proportional Numbers in Latin lookup 15 subtable" three.onum
Substitution2: "'aalt' Access All Alternates in Latin lookup 0 subtable" three.onum
EndChar

StartChar: four.tnum
Encoding: 65607 -1 488
Width: 520
Flags: W
LayerCount: 2
Fore
SplineSet
226 -80 m 1,0,-1
 258 80 l 1,1,-1
 0 80 l 1,2,-1
 22 192 l 1,3,-1
 310 580 l 1,4,-1
 504 580 l 1,5,-1
 428 202 l 1,6,-1
 498 202 l 1,7,-1
 474 80 l 1,8,-1
 404 80 l 1,9,-1
 372 -80 l 1,10,-1
 226 -80 l 1,0,-1
176 202 m 1,11,-1
 282 202 l 1,12,-1
 302 300 l 2,13,14
 310 336 310 336 319 373 c 128,-1,15
 328 410 328 410 336 446 c 1,16,-1
 332 446 l 1,17,18
 314 416 314 416 297 385 c 128,-1,19
 280 354 280 354 260 326 c 2,20,-1
 176 202 l 1,11,-1
EndSplineSet
Validated: 1
Substitution2: "'pnum' Proportional Numbers in Latin lookup 15 subtable" four.onum
Substitution2: "'aalt' Access All Alternates in Latin lookup 0 subtable" four.onum
EndChar

StartChar: five.tnum
Encoding: 65608 -1 489
Width: 520
Flags: W
LayerCount: 2
Fore
SplineSet
188 -90 m 0,0,1
 131 -90 131 -90 75 -64.5 c 128,-1,2
 19 -39 19 -39 -28 26 c 1,3,-1
 72 108 l 1,4,5
 124 38 124 38 190 38 c 0,6,7
 229 38 229 38 258.5 65 c 128,-1,8
 288 92 288 92 288 140 c 0,9,10
 288 182 288 182 268 203 c 128,-1,11
 248 224 248 224 212 224 c 0,12,13
 201 224 201 224 192 223 c 128,-1,14
 183 222 183 222 173.5 219 c 128,-1,15
 164 216 164 216 152 210.5 c 128,-1,16
 140 205 140 205 124 196 c 1,17,-1
 66 244 l 1,18,-1
 148 580 l 1,19,-1
 506 580 l 1,20,-1
 480 446 l 1,21,-1
 260 446 l 1,22,-1
 228 332 l 1,23,24
 242 338 242 338 254 340 c 128,-1,25
 266 342 266 342 280 342 c 0,26,27
 316 342 316 342 347 331 c 128,-1,28
 378 320 378 320 401 297.5 c 128,-1,29
 424 275 424 275 437 242 c 128,-1,30
 450 209 450 209 450 166 c 0,31,32
 450 107 450 107 427.5 59.5 c 128,-1,33
 405 12 405 12 368.5 -21 c 128,-1,34
 332 -54 332 -54 284.5 -72 c 128,-1,35
 237 -90 237 -90 188 -90 c 0,0,1
EndSplineSet
Validated: 1
Substitution2: "'pnum' Proportional Numbers in Latin lookup 15 subtable" five.onum
Substitution2: "'aalt' Access All Alternates in Latin lookup 0 subtable" five.onum
EndChar

StartChar: seven.tnum
Encoding: 65610 -1 491
Width: 520
Flags: W
LayerCount: 2
Fore
SplineSet
74 -80 m 1,0,1
 119 88 119 88 181 219 c 128,-1,2
 243 350 243 350 336 446 c 1,3,-1
 82 446 l 1,4,-1
 108 580 l 1,5,-1
 540 580 l 1,6,-1
 520 480 l 1,7,8
 449 413 449 413 401.5 343 c 128,-1,9
 354 273 354 273 322 201.5 c 128,-1,10
 290 130 290 130 270.5 59 c 128,-1,11
 251 -12 251 -12 238 -80 c 1,12,-1
 74 -80 l 1,0,1
EndSplineSet
Validated: 1
Substitution2: "'pnum' Proportional Numbers in Latin lookup 15 subtable" seven.onum
Substitution2: "'aalt' Access All Alternates in Latin lookup 0 subtable" seven.onum
EndChar

StartChar: nine.tnum
Encoding: 65612 -1 493
Width: 520
Flags: W
LayerCount: 2
Fore
SplineSet
252 268 m 0,0,1
 273 268 273 268 295 279.5 c 128,-1,2
 317 291 317 291 344 323 c 1,3,4
 345 337 345 337 345.5 350.5 c 128,-1,5
 346 364 346 364 346 379 c 0,6,7
 346 427 346 427 327.5 450.5 c 128,-1,8
 309 474 309 474 280 474 c 0,9,10
 257 474 257 474 241 461.5 c 128,-1,11
 225 449 225 449 214.5 430.5 c 128,-1,12
 204 412 204 412 199 390 c 128,-1,13
 194 368 194 368 194 349 c 0,14,15
 194 311 194 311 208.5 289.5 c 128,-1,16
 223 268 223 268 252 268 c 0,0,1
158 -90 m 0,17,18
 126 -90 126 -90 100.5 -81.5 c 128,-1,19
 75 -73 75 -73 55 -59.5 c 128,-1,20
 35 -46 35 -46 19.5 -30 c 128,-1,21
 4 -14 4 -14 -6 0 c 1,22,-1
 94 84 l 1,23,24
 108 64 108 64 125 51 c 128,-1,25
 142 38 142 38 168 38 c 0,26,27
 219 38 219 38 262.5 80 c 128,-1,28
 306 122 306 122 328 211 c 1,29,30
 300 187 300 187 266.5 173.5 c 128,-1,31
 233 160 233 160 208 160 c 0,32,33
 175 160 175 160 146 170 c 128,-1,34
 117 180 117 180 95 201.5 c 128,-1,35
 73 223 73 223 60.5 256 c 128,-1,36
 48 289 48 289 48 336 c 0,37,38
 48 384 48 384 65.5 430 c 128,-1,39
 83 476 83 476 114.5 512 c 128,-1,40
 146 548 146 548 190.5 570 c 128,-1,41
 235 592 235 592 288 592 c 0,42,43
 335 592 335 592 373 575.5 c 128,-1,44
 411 559 411 559 438 528.5 c 128,-1,45
 465 498 465 498 479.5 455.5 c 128,-1,46
 494 413 494 413 494 362 c 0,47,48
 494 260 494 260 469 176.5 c 128,-1,49
 444 93 444 93 399.5 34 c 128,-1,50
 355 -25 355 -25 293 -57.5 c 128,-1,51
 231 -90 231 -90 158 -90 c 0,17,18
EndSplineSet
Validated: 1
Substitution2: "'pnum' Proportional Numbers in Latin lookup 15 subtable" nine.onum
Substitution2: "'aalt' Access All Alternates in Latin lookup 0 subtable" nine.onum
EndChar

StartChar: one.onum
Encoding: 65614 -1 495
Width: 388
Flags: W
LayerCount: 2
Fore
SplineSet
88 0 m 1,0,-1
 172 420 l 1,1,-1
 56 420 l 1,2,-1
 76 520 l 1,3,4
 132 529 132 529 170 543 c 128,-1,5
 208 557 208 557 246 580 c 1,6,-1
 364 580 l 1,7,-1
 248 0 l 1,8,-1
 88 0 l 1,0,-1
EndSplineSet
Validated: 1
EndChar

StartChar: two.onum
Encoding: 65615 -1 496
Width: 486
Flags: W
LayerCount: 2
Fore
SplineSet
-14 0 m 1,0,-1
 4 90 l 1,1,2
 67 139 67 139 121 181.5 c 128,-1,3
 175 224 175 224 215 261.5 c 128,-1,4
 255 299 255 299 277.5 333 c 128,-1,5
 300 367 300 367 300 400 c 0,6,7
 300 430 300 430 286.5 448 c 128,-1,8
 273 466 273 466 250 466 c 0,9,10
 224 466 224 466 203 453 c 128,-1,11
 182 440 182 440 156 420 c 1,12,-1
 80 512 l 1,13,14
 127 550 127 550 174.5 571 c 128,-1,15
 222 592 222 592 270 592 c 0,16,17
 312 592 312 592 346.5 579.5 c 128,-1,18
 381 567 381 567 405 544 c 128,-1,19
 429 521 429 521 442.5 488.5 c 128,-1,20
 456 456 456 456 456 416 c 0,21,22
 456 378 456 378 440 343.5 c 128,-1,23
 424 309 424 309 396.5 275 c 128,-1,24
 369 241 369 241 331 206.5 c 128,-1,25
 293 172 293 172 250 134 c 1,26,-1
 424 134 l 1,27,-1
 398 0 l 1,28,-1
 -14 0 l 1,0,-1
EndSplineSet
Validated: 1
EndChar

StartChar: seven.onum
Encoding: 65620 -1 501
Width: 490
Flags: W
LayerCount: 2
Fore
SplineSet
64 -80 m 1,0,1
 109 89 109 89 169 220 c 128,-1,2
 229 351 229 351 322 446 c 1,3,-1
 76 446 l 1,4,-1
 102 580 l 1,5,-1
 526 580 l 1,6,-1
 506 480 l 1,7,8
 435 415 435 415 388.5 345 c 128,-1,9
 342 275 342 275 311 203.5 c 128,-1,10
 280 132 280 132 261 60.5 c 128,-1,11
 242 -11 242 -11 228 -80 c 1,12,-1
 64 -80 l 1,0,1
EndSplineSet
Validated: 1
EndChar

StartChar: period
Encoding: 46 46 504
Width: 310
Flags: W
LayerCount: 2
Fore
SplineSet
104 -12 m 0,0,1
 68 -12 68 -12 46 11 c 128,-1,2
 24 34 24 34 24 72 c 0,3,4
 24 92 24 92 32 112 c 128,-1,5
 40 132 40 132 54.5 148 c 128,-1,6
 69 164 69 164 89 174 c 128,-1,7
 109 184 109 184 134 184 c 0,8,9
 170 184 170 184 192 160 c 128,-1,10
 214 136 214 136 214 100 c 0,11,12
 214 79 214 79 206 59 c 128,-1,13
 198 39 198 39 183.5 23 c 128,-1,14
 169 7 169 7 149 -2.5 c 128,-1,15
 129 -12 129 -12 104 -12 c 0,0,1
EndSplineSet
Validated: 1
Substitution2: "'subs' Subscript in Latin lookup 14 subtable" period.subs
Substitution2: "'sups' Superscript in Latin lookup 13 subtable" period.sups
Substitution2: "'dnom' Denominators in Latin lookup 9 subtable" period.dnom
Substitution2: "'numr' Numerators in Latin lookup 8 subtable" period.numr
AlternateSubs2: "'aalt' Access All Alternates in Latin lookup 1 subtable" period.numr period.dnom period.sups period.subs
EndChar

StartChar: comma
Encoding: 44 44 505
Width: 310
Flags: W
LayerCount: 2
Fore
SplineSet
-10 -196 m 1,0,-1
 -26 -110 l 1,1,2
 36 -93 36 -93 68.5 -63 c 128,-1,3
 101 -33 101 -33 111 2 c 1,4,5
 74 4 74 4 50 24.5 c 128,-1,6
 26 45 26 45 26 82 c 0,7,8
 26 102 26 102 33 120.5 c 128,-1,9
 40 139 40 139 53.5 153 c 128,-1,10
 67 167 67 167 86.5 175.5 c 128,-1,11
 106 184 106 184 130 184 c 0,12,13
 175 184 175 184 199.5 155.5 c 128,-1,14
 224 127 224 127 224 76 c 0,15,16
 224 24 224 24 208 -21 c 128,-1,17
 192 -66 192 -66 162 -101.5 c 128,-1,18
 132 -137 132 -137 88.5 -161.5 c 128,-1,19
 45 -186 45 -186 -10 -196 c 1,0,-1
EndSplineSet
Validated: 1
Substitution2: "'subs' Subscript in Latin lookup 14 subtable" comma.subs
Substitution2: "'sups' Superscript in Latin lookup 13 subtable" comma.sups
Substitution2: "'dnom' Denominators in Latin lookup 9 subtable" comma.dnom
Substitution2: "'numr' Numerators in Latin lookup 8 subtable" comma.numr
AlternateSubs2: "'aalt' Access All Alternates in Latin lookup 1 subtable" comma.numr comma.dnom comma.sups comma.subs
EndChar

StartChar: exclam
Encoding: 33 33 509
Width: 350
Flags: W
LayerCount: 2
Fore
SplineSet
120 238 m 1,0,-1
 158 530 l 1,1,-1
 178 670 l 1,2,-1
 338 670 l 1,3,-1
 306 530 l 1,4,-1
 224 238 l 1,5,-1
 120 238 l 1,0,-1
126 -12 m 0,6,7
 90 -12 90 -12 68 11 c 128,-1,8
 46 34 46 34 46 72 c 0,9,10
 46 92 46 92 54 112 c 128,-1,11
 62 132 62 132 76.5 148 c 128,-1,12
 91 164 91 164 111 174 c 128,-1,13
 131 184 131 184 156 184 c 0,14,15
 192 184 192 184 214 160 c 128,-1,16
 236 136 236 136 236 100 c 0,17,18
 236 79 236 79 228 59 c 128,-1,19
 220 39 220 39 205.5 23 c 128,-1,20
 191 7 191 7 171 -2.5 c 128,-1,21
 151 -12 151 -12 126 -12 c 0,6,7
EndSplineSet
Validated: 1
EndChar

StartChar: exclamdown
Encoding: 161 161 510
Width: 350
Flags: W
LayerCount: 2
Fore
SplineSet
16 -170 m 1,0,-1
 48 -30 l 1,1,-1
 130 262 l 1,2,-1
 234 262 l 1,3,-1
 196 -30 l 1,4,-1
 176 -170 l 1,5,-1
 16 -170 l 1,0,-1
198 316 m 0,6,7
 162 316 162 316 140 340 c 128,-1,8
 118 364 118 364 118 400 c 0,9,10
 118 421 118 421 126 441 c 128,-1,11
 134 461 134 461 148.5 477 c 128,-1,12
 163 493 163 493 183 502.5 c 128,-1,13
 203 512 203 512 228 512 c 0,14,15
 264 512 264 512 286 489 c 128,-1,16
 308 466 308 466 308 428 c 0,17,18
 308 408 308 408 300 388 c 128,-1,19
 292 368 292 368 277.5 352 c 128,-1,20
 263 336 263 336 243 326 c 128,-1,21
 223 316 223 316 198 316 c 0,6,7
EndSplineSet
Validated: 1
EndChar

StartChar: question
Encoding: 63 63 511
Width: 458
Flags: W
LayerCount: 2
Fore
SplineSet
146 244 m 1,0,1
 151 283 151 283 165 311.5 c 128,-1,2
 179 340 179 340 198 361.5 c 128,-1,3
 217 383 217 383 238 400 c 128,-1,4
 259 417 259 417 276 432.5 c 128,-1,5
 293 448 293 448 304.5 464.5 c 128,-1,6
 316 481 316 481 316 502 c 0,7,8
 316 526 316 526 301 540 c 128,-1,9
 286 554 286 554 260 554 c 0,10,11
 243 554 243 554 227.5 546 c 128,-1,12
 212 538 212 538 194 520 c 1,13,-1
 114 610 l 1,14,15
 189 682 189 682 280 682 c 0,16,17
 323 682 323 682 358 671.5 c 128,-1,18
 393 661 393 661 418.5 641 c 128,-1,19
 444 621 444 621 458 592 c 128,-1,20
 472 563 472 563 472 526 c 0,21,22
 472 487 472 487 459.5 459.5 c 128,-1,23
 447 432 447 432 427.5 410 c 128,-1,24
 408 388 408 388 385 370 c 128,-1,25
 362 352 362 352 341 332 c 128,-1,26
 320 312 320 312 303.5 288 c 128,-1,27
 287 264 287 264 282 232 c 1,28,-1
 146 244 l 1,0,1
168 -12 m 0,29,30
 132 -12 132 -12 110 11 c 128,-1,31
 88 34 88 34 88 72 c 0,32,33
 88 92 88 92 96 112 c 128,-1,34
 104 132 104 132 118.5 148 c 128,-1,35
 133 164 133 164 153 174 c 128,-1,36
 173 184 173 184 198 184 c 0,37,38
 234 184 234 184 256 160 c 128,-1,39
 278 136 278 136 278 100 c 0,40,41
 278 79 278 79 270 59 c 128,-1,42
 262 39 262 39 247.5 23 c 128,-1,43
 233 7 233 7 213 -2.5 c 128,-1,44
 193 -12 193 -12 168 -12 c 0,29,30
EndSplineSet
Validated: 1
EndChar

StartChar: questiondown
Encoding: 191 191 512
Width: 458
Flags: W
LayerCount: 2
Fore
SplineSet
192 -182 m 0,0,1
 149 -182 149 -182 114 -171.5 c 128,-1,2
 79 -161 79 -161 53.5 -141 c 128,-1,3
 28 -121 28 -121 14 -92 c 128,-1,4
 0 -63 0 -63 0 -26 c 0,5,6
 0 12 0 12 12.5 40 c 128,-1,7
 25 68 25 68 44.5 90 c 128,-1,8
 64 112 64 112 87 130 c 128,-1,9
 110 148 110 148 131 168 c 128,-1,10
 152 188 152 188 168 211.5 c 128,-1,11
 184 235 184 235 190 268 c 1,12,-1
 326 256 l 1,13,14
 321 217 321 217 307 188.5 c 128,-1,15
 293 160 293 160 274 138.5 c 128,-1,16
 255 117 255 117 234 100 c 128,-1,17
 213 83 213 83 196 67.5 c 128,-1,18
 179 52 179 52 167.5 35.5 c 128,-1,19
 156 19 156 19 156 -2 c 0,20,21
 156 -26 156 -26 171 -40 c 128,-1,22
 186 -54 186 -54 212 -54 c 0,23,24
 244 -54 244 -54 278 -20 c 1,25,-1
 358 -110 l 1,26,27
 283 -182 283 -182 192 -182 c 0,0,1
274 316 m 0,28,29
 238 316 238 316 216 340 c 128,-1,30
 194 364 194 364 194 400 c 0,31,32
 194 421 194 421 202 441 c 128,-1,33
 210 461 210 461 224.5 477 c 128,-1,34
 239 493 239 493 259 502.5 c 128,-1,35
 279 512 279 512 304 512 c 0,36,37
 340 512 340 512 362 489 c 128,-1,38
 384 466 384 466 384 428 c 0,39,40
 384 408 384 408 376 388 c 128,-1,41
 368 368 368 368 353.5 352 c 128,-1,42
 339 336 339 336 319 326 c 128,-1,43
 299 316 299 316 274 316 c 0,28,29
EndSplineSet
Validated: 1
EndChar

StartChar: quotesingle
Encoding: 39 39 513
Width: 310
Flags: W
LayerCount: 2
Fore
SplineSet
118 338 m 1,0,-1
 138 530 l 1,1,-1
 158 670 l 1,2,-1
 316 670 l 1,3,-1
 284 530 l 1,4,-1
 222 338 l 1,5,-1
 118 338 l 1,0,-1
EndSplineSet
Validated: 1
EndChar

StartChar: quoteleft
Encoding: 8216 8216 515
Width: 310
Flags: W
LayerCount: 2
Fore
SplineSet
174 324 m 0,0,1
 136 324 136 324 114 352.5 c 128,-1,2
 92 381 92 381 92 432 c 0,3,4
 92 481 92 481 107.5 520.5 c 128,-1,5
 123 560 123 560 148.5 590 c 128,-1,6
 174 620 174 620 208 640.5 c 128,-1,7
 242 661 242 661 280 672 c 1,8,-1
 304 604 l 1,9,10
 274 594 274 594 251.5 578 c 128,-1,11
 229 562 229 562 213.5 545 c 128,-1,12
 198 528 198 528 190 512 c 128,-1,13
 182 496 182 496 182 486 c 1,14,-1
 188 486 l 2,15,16
 223 486 223 486 245.5 467.5 c 128,-1,17
 268 449 268 449 268 416 c 0,18,19
 268 380 268 380 243 352 c 128,-1,20
 218 324 218 324 174 324 c 0,0,1
EndSplineSet
Validated: 1
EndChar

StartChar: quoteright
Encoding: 8217 8217 516
Width: 310
Flags: W
LayerCount: 2
Fore
SplineSet
130 348 m 1,0,-1
 106 416 l 1,1,2
 136 426 136 426 158.5 442 c 128,-1,3
 181 458 181 458 196.5 475 c 128,-1,4
 212 492 212 492 220 507.5 c 128,-1,5
 228 523 228 523 228 534 c 1,6,-1
 222 534 l 2,7,8
 187 534 187 534 164.5 552.5 c 128,-1,9
 142 571 142 571 142 604 c 0,10,11
 142 640 142 640 167 668 c 128,-1,12
 192 696 192 696 236 696 c 0,13,14
 274 696 274 696 296 667.5 c 128,-1,15
 318 639 318 639 318 588 c 0,16,17
 318 539 318 539 302.5 499.5 c 128,-1,18
 287 460 287 460 261.5 430 c 128,-1,19
 236 400 236 400 201.5 379 c 128,-1,20
 167 358 167 358 130 348 c 1,0,-1
EndSplineSet
Validated: 1
EndChar

StartChar: guilsinglleft
Encoding: 8249 8249 521
Width: 280
Flags: W
LayerCount: 2
Fore
SplineSet
144 54 m 1,0,-1
 40 200 l 1,1,-1
 60 312 l 1,2,-1
 212 448 l 1,3,-1
 260 396 l 1,4,-1
 130 246 l 1,5,-1
 206 94 l 1,6,-1
 144 54 l 1,0,-1
EndSplineSet
Validated: 1
EndChar

StartChar: guilsinglright
Encoding: 8250 8250 522
Width: 280
Flags: W
LayerCount: 2
Fore
SplineSet
76 54 m 1,0,-1
 28 106 l 1,1,-1
 158 256 l 1,2,-1
 82 408 l 1,3,-1
 144 448 l 1,4,-1
 248 302 l 1,5,-1
 228 190 l 1,6,-1
 76 54 l 1,0,-1
EndSplineSet
Validated: 1
EndChar

StartChar: hyphen
Encoding: 45 45 525
Width: 328
Flags: W
LayerCount: 2
Fore
SplineSet
32 198 m 1,0,-1
 56 310 l 1,1,-1
 296 310 l 1,2,-1
 272 198 l 1,3,-1
 32 198 l 1,0,-1
EndSplineSet
Validated: 1
EndChar

StartChar: endash
Encoding: 8211 8211 527
Width: 464
Flags: W
LayerCount: 2
Fore
SplineSet
34 202 m 1,0,-1
 54 304 l 1,1,-1
 430 304 l 1,2,-1
 410 202 l 1,3,-1
 34 202 l 1,0,-1
EndSplineSet
Validated: 1
EndChar

StartChar: emdash
Encoding: 8212 8212 528
Width: 772
Flags: W
LayerCount: 2
Fore
SplineSet
34 202 m 1,0,-1
 54 304 l 1,1,-1
 738 304 l 1,2,-1
 718 202 l 1,3,-1
 34 202 l 1,0,-1
EndSplineSet
Validated: 1
EndChar

StartChar: figuredash
Encoding: 8210 8210 529
Width: 520
Flags: W
LayerCount: 2
Fore
SplineSet
34 202 m 1,0,-1
 54 304 l 1,1,-1
 486 304 l 1,2,-1
 466 202 l 1,3,-1
 34 202 l 1,0,-1
EndSplineSet
Validated: 1
EndChar

StartChar: bullet
Encoding: 8226 8226 532
Width: 344
Flags: W
LayerCount: 2
Fore
SplineSet
160 120 m 0,0,1
 107 120 107 120 72.5 155 c 128,-1,2
 38 190 38 190 38 246 c 0,3,4
 38 274 38 274 48.5 302.5 c 128,-1,5
 59 331 59 331 78 353.5 c 128,-1,6
 97 376 97 376 124 390 c 128,-1,7
 151 404 151 404 184 404 c 0,8,9
 237 404 237 404 271.5 369 c 128,-1,10
 306 334 306 334 306 278 c 0,11,12
 306 249 306 249 295.5 221 c 128,-1,13
 285 193 285 193 266 170.5 c 128,-1,14
 247 148 247 148 220 134 c 128,-1,15
 193 120 193 120 160 120 c 0,0,1
EndSplineSet
Validated: 1
EndChar

StartChar: underscore
Encoding: 95 95 533
Width: 480
Flags: W
LayerCount: 2
Fore
SplineSet
-52 -144 m 1,0,-1
 -34 -56 l 1,1,-1
 422 -56 l 1,2,-1
 404 -144 l 1,3,-1
 -52 -144 l 1,0,-1
EndSplineSet
Validated: 1
EndChar

StartChar: parenleft
Encoding: 40 40 534
Width: 344
Flags: W
LayerCount: 2
Fore
SplineSet
112 -180 m 1,0,1
 101 -149 101 -149 90 -111.5 c 128,-1,2
 79 -74 79 -74 70.5 -34 c 128,-1,3
 62 6 62 6 57 47.5 c 128,-1,4
 52 89 52 89 52 130 c 0,5,6
 52 217 52 217 67 295 c 128,-1,7
 82 373 82 373 112 446.5 c 128,-1,8
 142 520 142 520 186 590.5 c 128,-1,9
 230 661 230 661 288 734 c 1,10,-1
 380 688 l 1,11,12
 274 545 274 545 227 403.5 c 128,-1,13
 180 262 180 262 180 120 c 0,14,15
 180 89 180 89 182 55 c 128,-1,16
 184 21 184 21 188 -13.5 c 128,-1,17
 192 -48 192 -48 198.5 -80 c 128,-1,18
 205 -112 205 -112 214 -138 c 1,19,-1
 112 -180 l 1,0,1
EndSplineSet
Validated: 1
Substitution2: "'subs' Subscript in Latin lookup 14 subtable" parenleft.subs
Substitution2: "'sups' Superscript in Latin lookup 13 subtable" parenleft.sups
Substitution2: "'dnom' Denominators in Latin lookup 9 subtable" parenleft.dnom
Substitution2: "'numr' Numerators in Latin lookup 8 subtable" parenleft.numr
AlternateSubs2: "'aalt' Access All Alternates in Latin lookup 1 subtable" parenleft.numr parenleft.dnom parenleft.sups parenleft.subs
EndChar

StartChar: parenright
Encoding: 41 41 535
Width: 346
Flags: W
LayerCount: 2
Fore
SplineSet
64 -180 m 1,0,-1
 -28 -134 l 1,1,2
 78 9 78 9 125 150.5 c 128,-1,3
 172 292 172 292 172 434 c 0,4,5
 172 465 172 465 170 499 c 128,-1,6
 168 533 168 533 164 567.5 c 128,-1,7
 160 602 160 602 153.5 634 c 128,-1,8
 147 666 147 666 138 692 c 1,9,-1
 240 734 l 1,10,11
 251 702 251 702 262 665 c 128,-1,12
 273 628 273 628 281.5 588 c 128,-1,13
 290 548 290 548 295 506 c 128,-1,14
 300 464 300 464 300 424 c 0,15,16
 300 337 300 337 285 259 c 128,-1,17
 270 181 270 181 240 107.5 c 128,-1,18
 210 34 210 34 166 -36.5 c 128,-1,19
 122 -107 122 -107 64 -180 c 1,0,-1
EndSplineSet
Validated: 1
Substitution2: "'subs' Subscript in Latin lookup 14 subtable" parenright.subs
Substitution2: "'sups' Superscript in Latin lookup 13 subtable" parenright.sups
Substitution2: "'dnom' Denominators in Latin lookup 9 subtable" parenright.dnom
Substitution2: "'numr' Numerators in Latin lookup 8 subtable" parenright.numr
AlternateSubs2: "'aalt' Access All Alternates in Latin lookup 1 subtable" parenright.numr parenright.dnom parenright.sups parenright.subs
EndChar

StartChar: bracketleft
Encoding: 91 91 536
Width: 344
Flags: W
LayerCount: 2
Fore
SplineSet
-8 -152 m 1,0,-1
 164 708 l 1,1,-1
 376 708 l 1,2,-1
 360 624 l 1,3,-1
 266 624 l 1,4,-1
 128 -68 l 1,5,-1
 222 -68 l 1,6,-1
 204 -152 l 1,7,-1
 -8 -152 l 1,0,-1
EndSplineSet
Validated: 1
EndChar

StartChar: bracketright
Encoding: 93 93 537
Width: 346
Flags: W
LayerCount: 2
Fore
SplineSet
-22 -152 m 1,0,-1
 -4 -68 l 1,1,-1
 88 -68 l 1,2,-1
 226 624 l 1,3,-1
 134 624 l 1,4,-1
 150 708 l 1,5,-1
 362 708 l 1,6,-1
 190 -152 l 1,7,-1
 -22 -152 l 1,0,-1
EndSplineSet
Validated: 1
EndChar

StartChar: braceleft
Encoding: 123 123 538
Width: 342
Flags: W
LayerCount: 2
Fore
SplineSet
144 -152 m 2,0,1
 88 -152 88 -152 66 -129 c 128,-1,2
 44 -106 44 -106 44 -62 c 0,3,4
 44 -32 44 -32 52 2 c 128,-1,5
 60 36 60 36 69 68 c 128,-1,6
 78 100 78 100 86 127.5 c 128,-1,7
 94 155 94 155 94 172 c 0,8,9
 94 195 94 195 79.5 212.5 c 128,-1,10
 65 230 65 230 24 232 c 1,11,-1
 44 324 l 1,12,13
 69 325 69 325 86.5 332 c 128,-1,14
 104 339 104 339 115.5 350 c 128,-1,15
 127 361 127 361 133 374 c 128,-1,16
 139 387 139 387 142 400 c 0,17,18
 146 423 146 423 148.5 441.5 c 128,-1,19
 151 460 151 460 152.5 478 c 128,-1,20
 154 496 154 496 156.5 516 c 128,-1,21
 159 536 159 536 164 562 c 0,22,23
 172 603 172 603 184 631 c 128,-1,24
 196 659 196 659 213.5 676 c 128,-1,25
 231 693 231 693 255.5 700.5 c 128,-1,26
 280 708 280 708 315 708 c 2,27,-1
 385 708 l 1,28,-1
 367 624 l 1,29,-1
 351 624 l 2,30,31
 323 624 323 624 311 609.5 c 128,-1,32
 299 595 299 595 291 556 c 0,33,34
 283 518 283 518 277.5 481 c 128,-1,35
 272 444 272 444 264 400 c 0,36,37
 252 340 252 340 227 312.5 c 128,-1,38
 202 285 202 285 160 276 c 1,39,-1
 159 272 l 1,40,41
 189 265 189 265 204.5 249 c 128,-1,42
 220 233 220 233 220 198 c 0,43,44
 220 173 220 173 213 141.5 c 128,-1,45
 206 110 206 110 198 77.5 c 128,-1,46
 190 45 190 45 183 15.5 c 128,-1,47
 176 -14 176 -14 176 -34 c 0,48,49
 176 -53 176 -53 183.5 -60.5 c 128,-1,50
 191 -68 191 -68 214 -68 c 2,51,-1
 228 -68 l 1,52,-1
 212 -152 l 1,53,-1
 144 -152 l 2,0,1
EndSplineSet
Validated: 1
EndChar

StartChar: braceright
Encoding: 125 125 539
Width: 346
Flags: W
LayerCount: 2
Fore
SplineSet
-32 -152 m 1,0,-1
 -14 -68 l 1,1,-1
 2 -68 l 2,2,3
 30 -68 30 -68 42 -53.5 c 128,-1,4
 54 -39 54 -39 62 0 c 0,5,6
 70 38 70 38 75.5 75 c 128,-1,7
 81 112 81 112 89 156 c 0,8,9
 101 216 101 216 126 243.5 c 128,-1,10
 151 271 151 271 193 280 c 1,11,-1
 194 284 l 1,12,13
 164 291 164 291 148.5 307 c 128,-1,14
 133 323 133 323 133 358 c 0,15,16
 133 383 133 383 140 414.5 c 128,-1,17
 147 446 147 446 155 478.5 c 128,-1,18
 163 511 163 511 170 540.5 c 128,-1,19
 177 570 177 570 177 590 c 0,20,21
 177 609 177 609 169.5 616.5 c 128,-1,22
 162 624 162 624 139 624 c 2,23,-1
 125 624 l 1,24,-1
 141 708 l 1,25,-1
 209 708 l 2,26,27
 265 708 265 708 287 685 c 128,-1,28
 309 662 309 662 309 618 c 0,29,30
 309 588 309 588 301 554 c 128,-1,31
 293 520 293 520 284 488 c 128,-1,32
 275 456 275 456 267 428.5 c 128,-1,33
 259 401 259 401 259 384 c 0,34,35
 259 361 259 361 273.5 343.5 c 128,-1,36
 288 326 288 326 329 324 c 1,37,-1
 309 232 l 1,38,39
 284 231 284 231 266.5 224 c 128,-1,40
 249 217 249 217 237.5 206 c 128,-1,41
 226 195 226 195 220 182 c 128,-1,42
 214 169 214 169 211 156 c 0,43,44
 206 133 206 133 204 114.5 c 128,-1,45
 202 96 202 96 200.5 78 c 128,-1,46
 199 60 199 60 196.5 40 c 128,-1,47
 194 20 194 20 189 -6 c 0,48,49
 181 -47 181 -47 169 -75 c 128,-1,50
 157 -103 157 -103 139.5 -120 c 128,-1,51
 122 -137 122 -137 97 -144.5 c 128,-1,52
 72 -152 72 -152 38 -152 c 2,53,-1
 -32 -152 l 1,0,-1
EndSplineSet
Validated: 1
EndChar

StartChar: slash
Encoding: 47 47 540
Width: 324
Flags: W
LayerCount: 2
Fore
SplineSet
-68 -160 m 1,0,-1
 280 710 l 1,1,-1
 384 710 l 1,2,-1
 34 -160 l 1,3,-1
 -68 -160 l 1,0,-1
EndSplineSet
Validated: 1
Substitution2: "'frac' Diagonal Fractions in Latin lookup 10 subtable" slash.frac
EndChar

StartChar: bar
Encoding: 124 124 541
Width: 264
Flags: W
LayerCount: 2
Fore
SplineSet
86 -250 m 1,0,-1
 86 750 l 1,1,-1
 184 750 l 1,2,-1
 184 -250 l 1,3,-1
 86 -250 l 1,0,-1
EndSplineSet
Validated: 1
EndChar

StartChar: backslash
Encoding: 92 92 542
Width: 324
Flags: W
LayerCount: 2
Fore
SplineSet
144 -160 m 1,0,-1
 84 710 l 1,1,-1
 186 710 l 1,2,-1
 248 -160 l 1,3,-1
 144 -160 l 1,0,-1
EndSplineSet
Validated: 1
EndChar

StartChar: brokenbar
Encoding: 166 166 543
Width: 264
Flags: W
LayerCount: 2
Fore
SplineSet
86 316 m 1,0,-1
 86 750 l 1,1,-1
 184 750 l 1,2,-1
 184 316 l 1,3,-1
 86 316 l 1,0,-1
86 -250 m 1,4,-1
 86 202 l 1,5,-1
 184 202 l 1,6,-1
 184 -250 l 1,7,-1
 86 -250 l 1,4,-1
EndSplineSet
Validated: 1
EndChar

StartChar: asterisk
Encoding: 42 42 544
Width: 452
Flags: W
LayerCount: 2
Fore
SplineSet
172 340 m 1,0,-1
 112 396 l 1,1,-1
 190 498 l 1,2,-1
 92 556 l 1,3,-1
 128 630 l 1,4,-1
 238 596 l 1,5,-1
 272 714 l 1,6,-1
 354 708 l 1,7,-1
 346 586 l 1,8,-1
 464 600 l 1,9,-1
 476 520 l 1,10,-1
 362 480 l 1,11,-1
 400 370 l 1,12,-1
 326 328 l 1,13,-1
 262 424 l 1,14,-1
 172 340 l 1,0,-1
EndSplineSet
Validated: 1
EndChar

StartChar: dagger
Encoding: 8224 8224 545
Width: 508
Flags: W
LayerCount: 2
Fore
SplineSet
124 -80 m 1,0,-1
 236 428 l 1,1,-1
 74 418 l 1,2,-1
 100 546 l 1,3,-1
 256 536 l 1,4,-1
 282 712 l 1,5,-1
 410 712 l 1,6,-1
 364 536 l 1,7,-1
 526 546 l 1,8,-1
 502 418 l 1,9,-1
 344 428 l 1,10,-1
 252 -80 l 1,11,-1
 124 -80 l 1,0,-1
EndSplineSet
Validated: 1
EndChar

StartChar: daggerdbl
Encoding: 8225 8225 546
Width: 508
Flags: W
LayerCount: 2
Fore
SplineSet
124 -80 m 1,0,-1
 168 94 l 1,1,-1
 8 84 l 1,2,-1
 32 212 l 1,3,-1
 190 200 l 1,4,-1
 202 316 l 1,5,-1
 236 432 l 1,6,-1
 74 418 l 1,7,-1
 98 546 l 1,8,-1
 256 536 l 1,9,-1
 282 712 l 1,10,-1
 408 712 l 1,11,-1
 364 536 l 1,12,-1
 526 546 l 1,13,-1
 502 418 l 1,14,-1
 344 432 l 1,15,-1
 330 316 l 1,16,-1
 298 200 l 1,17,-1
 460 212 l 1,18,-1
 434 84 l 1,19,-1
 276 94 l 1,20,-1
 252 -80 l 1,21,-1
 124 -80 l 1,0,-1
EndSplineSet
Validated: 1
EndChar

StartChar: section
Encoding: 167 167 547
Width: 516
Flags: W
LayerCount: 2
Fore
SplineSet
182 330 m 0,0,1
 182 312 182 312 194.5 297.5 c 128,-1,2
 207 283 207 283 227 269.5 c 128,-1,3
 247 256 247 256 271 242 c 128,-1,4
 295 228 295 228 318 212 c 1,5,6
 334 222 334 222 343 236.5 c 128,-1,7
 352 251 352 251 352 274 c 0,8,9
 352 291 352 291 339.5 305 c 128,-1,10
 327 319 327 319 307.5 332.5 c 128,-1,11
 288 346 288 346 264 359.5 c 128,-1,12
 240 373 240 373 217 389 c 1,13,14
 202 380 202 380 192 365.5 c 128,-1,15
 182 351 182 351 182 330 c 0,0,1
196 -88 m 0,16,17
 146 -88 146 -88 92 -65 c 128,-1,18
 38 -42 38 -42 -4 0 c 1,19,-1
 74 98 l 1,20,21
 98 74 98 74 133 52 c 128,-1,22
 168 30 168 30 204 30 c 0,23,24
 252 30 252 30 252 68 c 0,25,26
 252 83 252 83 236.5 96 c 128,-1,27
 221 109 221 109 198.5 123.5 c 128,-1,28
 176 138 176 138 149 155 c 128,-1,29
 122 172 122 172 99.5 194 c 128,-1,30
 77 216 77 216 61.5 244.5 c 128,-1,31
 46 273 46 273 46 312 c 0,32,33
 46 362 46 362 74.5 399.5 c 128,-1,34
 103 437 103 437 148 459 c 1,35,36
 132 488 132 488 132 520 c 0,37,38
 132 557 132 557 145.5 588.5 c 128,-1,39
 159 620 159 620 183 643 c 128,-1,40
 207 666 207 666 241.5 679 c 128,-1,41
 276 692 276 692 318 692 c 0,42,43
 366 692 366 692 412 670.5 c 128,-1,44
 458 649 458 649 496 610 c 1,45,-1
 416 522 l 1,46,47
 396 540 396 540 371.5 556 c 128,-1,48
 347 572 347 572 318 572 c 0,49,50
 300 572 300 572 288 563 c 128,-1,51
 276 554 276 554 276 536 c 0,52,53
 276 522 276 522 292 509 c 128,-1,54
 308 496 308 496 331.5 481 c 128,-1,55
 355 466 355 466 383 448.5 c 128,-1,56
 411 431 411 431 434.5 408.5 c 128,-1,57
 458 386 458 386 474 357.5 c 128,-1,58
 490 329 490 329 490 292 c 0,59,60
 490 237 490 237 462.5 198.5 c 128,-1,61
 435 160 435 160 387 134 c 1,62,63
 396 113 396 113 396 86 c 0,64,65
 396 46 396 46 381.5 14 c 128,-1,66
 367 -18 367 -18 341 -40.5 c 128,-1,67
 315 -63 315 -63 278 -75.5 c 128,-1,68
 241 -88 241 -88 196 -88 c 0,16,17
EndSplineSet
Validated: 1
EndChar

StartChar: paragraph
Encoding: 182 182 548
Width: 636
Flags: W
LayerCount: 2
Fore
SplineSet
320 -80 m 1,0,-1
 464 650 l 1,1,-1
 624 650 l 1,2,-1
 480 -80 l 1,3,-1
 320 -80 l 1,0,-1
282 190 m 2,4,5
 239 190 239 190 200.5 202 c 128,-1,6
 162 214 162 214 132.5 238 c 128,-1,7
 103 262 103 262 85.5 296.5 c 128,-1,8
 68 331 68 331 68 376 c 0,9,10
 68 449 68 449 92.5 501 c 128,-1,11
 117 553 117 553 158.5 586 c 128,-1,12
 200 619 200 619 254.5 634.5 c 128,-1,13
 309 650 309 650 368 650 c 2,14,-1
 410 650 l 1,15,-1
 318 190 l 1,16,-1
 282 190 l 2,4,5
EndSplineSet
Validated: 1
EndChar

StartChar: copyright
Encoding: 169 169 549
Width: 674
Flags: W
LayerCount: 2
Fore
SplineSet
298 -8 m 0,0,1
 239 -8 239 -8 189.5 13 c 128,-1,2
 140 34 140 34 104 71 c 128,-1,3
 68 108 68 108 48 159 c 128,-1,4
 28 210 28 210 28 270 c 0,5,6
 28 351 28 351 56 421.5 c 128,-1,7
 84 492 84 492 134.5 544 c 128,-1,8
 185 596 185 596 254 626 c 128,-1,9
 323 656 323 656 406 656 c 0,10,11
 464 656 464 656 513.5 635 c 128,-1,12
 563 614 563 614 599 577 c 128,-1,13
 635 540 635 540 655.5 489 c 128,-1,14
 676 438 676 438 676 378 c 0,15,16
 676 297 676 297 648 226.5 c 128,-1,17
 620 156 620 156 569.5 104 c 128,-1,18
 519 52 519 52 449.5 22 c 128,-1,19
 380 -8 380 -8 298 -8 c 0,0,1
304 60 m 0,20,21
 367 60 367 60 421.5 84.5 c 128,-1,22
 476 109 476 109 516.5 151 c 128,-1,23
 557 193 557 193 580.5 250 c 128,-1,24
 604 307 604 307 604 372 c 0,25,26
 604 415 604 415 591 454 c 128,-1,27
 578 493 578 493 552.5 523 c 128,-1,28
 527 553 527 553 489 570.5 c 128,-1,29
 451 588 451 588 400 588 c 0,30,31
 337 588 337 588 282 563.5 c 128,-1,32
 227 539 227 539 186.5 497 c 128,-1,33
 146 455 146 455 123 398 c 128,-1,34
 100 341 100 341 100 276 c 0,35,36
 100 233 100 233 112.5 194 c 128,-1,37
 125 155 125 155 150.5 125 c 128,-1,38
 176 95 176 95 214.5 77.5 c 128,-1,39
 253 60 253 60 304 60 c 0,20,21
332 128 m 0,40,41
 260 128 260 128 216 170 c 128,-1,42
 172 212 172 212 172 284 c 0,43,44
 172 337 172 337 192.5 380 c 128,-1,45
 213 423 213 423 245.5 453 c 128,-1,46
 278 483 278 483 318 499.5 c 128,-1,47
 358 516 358 516 398 516 c 0,48,49
 433 516 433 516 460 499 c 128,-1,50
 487 482 487 482 502 464 c 1,51,-1
 436 400 l 1,52,53
 424 414 424 414 411 419 c 128,-1,54
 398 424 398 424 384 424 c 0,55,56
 367 424 367 424 349.5 414.5 c 128,-1,57
 332 405 332 405 318 388.5 c 128,-1,58
 304 372 304 372 295 349 c 128,-1,59
 286 326 286 326 286 298 c 0,60,61
 286 262 286 262 304.5 241 c 128,-1,62
 323 220 323 220 358 220 c 0,63,64
 376 220 376 220 389 225.5 c 128,-1,65
 402 231 402 231 422 244 c 1,66,-1
 466 176 l 1,67,68
 434 150 434 150 400 139 c 128,-1,69
 366 128 366 128 332 128 c 0,40,41
EndSplineSet
Validated: 1
EndChar

StartChar: uni2117
Encoding: 8471 8471 550
Width: 674
Flags: W
LayerCount: 2
Fore
SplineSet
298 -8 m 0,0,1
 239 -8 239 -8 189.5 13 c 128,-1,2
 140 34 140 34 104 71 c 128,-1,3
 68 108 68 108 48 159 c 128,-1,4
 28 210 28 210 28 270 c 0,5,6
 28 351 28 351 56 421.5 c 128,-1,7
 84 492 84 492 134.5 544 c 128,-1,8
 185 596 185 596 254 626 c 128,-1,9
 323 656 323 656 406 656 c 0,10,11
 464 656 464 656 513.5 635 c 128,-1,12
 563 614 563 614 599 577 c 128,-1,13
 635 540 635 540 655.5 489 c 128,-1,14
 676 438 676 438 676 378 c 0,15,16
 676 297 676 297 648 226.5 c 128,-1,17
 620 156 620 156 569.5 104 c 128,-1,18
 519 52 519 52 449.5 22 c 128,-1,19
 380 -8 380 -8 298 -8 c 0,0,1
304 60 m 0,20,21
 367 60 367 60 421.5 84.5 c 128,-1,22
 476 109 476 109 516.5 151 c 128,-1,23
 557 193 557 193 580.5 250 c 128,-1,24
 604 307 604 307 604 372 c 0,25,26
 604 415 604 415 591 454 c 128,-1,27
 578 493 578 493 552.5 523 c 128,-1,28
 527 553 527 553 489 570.5 c 128,-1,29
 451 588 451 588 400 588 c 0,30,31
 337 588 337 588 282 563.5 c 128,-1,32
 227 539 227 539 186.5 497 c 128,-1,33
 146 455 146 455 123 398 c 128,-1,34
 100 341 100 341 100 276 c 0,35,36
 100 233 100 233 112.5 194 c 128,-1,37
 125 155 125 155 150.5 125 c 128,-1,38
 176 95 176 95 214.5 77.5 c 128,-1,39
 253 60 253 60 304 60 c 0,20,21
176 140 m 1,40,-1
 248 504 l 1,41,-1
 390 504 l 2,42,43
 421 504 421 504 448.5 498.5 c 128,-1,44
 476 493 476 493 495.5 480.5 c 128,-1,45
 515 468 515 468 526.5 447.5 c 128,-1,46
 538 427 538 427 538 398 c 0,47,48
 538 354 538 354 520.5 321.5 c 128,-1,49
 503 289 503 289 474.5 268 c 128,-1,50
 446 247 446 247 409.5 236.5 c 128,-1,51
 373 226 373 226 334 226 c 2,52,-1
 306 226 l 1,53,-1
 290 140 l 1,54,-1
 176 140 l 1,40,-1
322 306 m 1,55,-1
 342 306 l 2,56,57
 387 306 387 306 406.5 325.5 c 128,-1,58
 426 345 426 345 426 378 c 0,59,60
 426 401 426 401 410.5 410.5 c 128,-1,61
 395 420 395 420 366 420 c 2,62,-1
 346 420 l 1,63,-1
 322 306 l 1,55,-1
EndSplineSet
Validated: 1
EndChar

StartChar: registered
Encoding: 174 174 551
Width: 458
Flags: W
LayerCount: 2
Fore
SplineSet
262 308 m 0,0,1
 226 308 226 308 193.5 321.5 c 128,-1,2
 161 335 161 335 137 359 c 128,-1,3
 113 383 113 383 98.5 416 c 128,-1,4
 84 449 84 449 84 488 c 0,5,6
 84 531 84 531 99 572.5 c 128,-1,7
 114 614 114 614 142 645.5 c 128,-1,8
 170 677 170 677 209 696.5 c 128,-1,9
 248 716 248 716 296 716 c 0,10,11
 331 716 331 716 363 702.5 c 128,-1,12
 395 689 395 689 419.5 665 c 128,-1,13
 444 641 444 641 458.5 608 c 128,-1,14
 473 575 473 575 474 536 c 0,15,16
 474 492 474 492 458.5 451 c 128,-1,17
 443 410 443 410 415 378.5 c 128,-1,18
 387 347 387 347 348 327.5 c 128,-1,19
 309 308 309 308 262 308 c 0,0,1
266 360 m 0,20,21
 300 360 300 360 328 374 c 128,-1,22
 356 388 356 388 376 411.5 c 128,-1,23
 396 435 396 435 407 466 c 128,-1,24
 418 497 418 497 418 532 c 0,25,26
 418 560 418 560 409 584 c 128,-1,27
 400 608 400 608 383.5 626 c 128,-1,28
 367 644 367 644 343.5 654 c 128,-1,29
 320 664 320 664 292 664 c 0,30,31
 258 664 258 664 230 650 c 128,-1,32
 202 636 202 636 182 612.5 c 128,-1,33
 162 589 162 589 151 557.5 c 128,-1,34
 140 526 140 526 140 492 c 0,35,36
 140 464 140 464 149 440 c 128,-1,37
 158 416 158 416 174.5 398 c 128,-1,38
 191 380 191 380 214 370 c 128,-1,39
 237 360 237 360 266 360 c 0,20,21
180 416 m 1,40,-1
 220 610 l 1,41,-1
 308 610 l 2,42,43
 338 610 338 610 357 594.5 c 128,-1,44
 376 579 376 579 376 552 c 0,45,46
 376 532 376 532 364 514.5 c 128,-1,47
 352 497 352 497 328 488 c 1,48,-1
 352 416 l 1,49,-1
 292 416 l 1,50,-1
 276 474 l 1,51,-1
 252 474 l 1,52,-1
 240 416 l 1,53,-1
 180 416 l 1,40,-1
260 516 m 1,54,-1
 274 516 l 2,55,56
 292 516 292 516 301 525 c 128,-1,57
 310 534 310 534 310 546 c 0,58,59
 310 555 310 555 305 560.5 c 128,-1,60
 300 566 300 566 286 566 c 2,61,-1
 270 566 l 1,62,-1
 260 516 l 1,54,-1
EndSplineSet
Validated: 1
EndChar

StartChar: trademark
Encoding: 8482 8482 552
Width: 668
Flags: W
LayerCount: 2
Fore
SplineSet
108 360 m 1,0,-1
 152 584 l 1,1,-1
 70 584 l 1,2,-1
 88 676 l 1,3,-1
 350 676 l 1,4,-1
 332 584 l 1,5,-1
 254 584 l 1,6,-1
 210 360 l 1,7,-1
 108 360 l 1,0,-1
328 360 m 1,8,-1
 388 676 l 1,9,-1
 502 676 l 1,10,-1
 522 590 l 1,11,-1
 528 522 l 1,12,-1
 532 522 l 1,13,-1
 560 590 l 1,14,-1
 614 676 l 1,15,-1
 730 676 l 1,16,-1
 670 360 l 1,17,-1
 570 360 l 1,18,-1
 588 448 l 1,19,-1
 632 576 l 1,20,-1
 628 576 l 1,21,-1
 530 406 l 1,22,-1
 482 406 l 1,23,-1
 450 576 l 1,24,-1
 446 576 l 1,25,-1
 442 448 l 1,26,-1
 424 360 l 1,27,-1
 328 360 l 1,8,-1
EndSplineSet
Validated: 1
EndChar

StartChar: uni2120
Encoding: 8480 8480 553
Width: 658
Flags: W
LayerCount: 2
Fore
SplineSet
152 348 m 0,0,1
 116 348 116 348 87.5 359.5 c 128,-1,2
 59 371 59 371 30 406 c 1,3,-1
 96 460 l 1,4,5
 127 426 127 426 158 426 c 0,6,7
 192 426 192 426 192 446 c 0,8,9
 192 455 192 455 184 461.5 c 128,-1,10
 176 468 176 468 164 474 c 2,11,-1
 128 492 l 2,12,13
 108 503 108 503 96 523.5 c 128,-1,14
 84 544 84 544 84 574 c 0,15,16
 84 597 84 597 94 617.5 c 128,-1,17
 104 638 104 638 122 653 c 128,-1,18
 140 668 140 668 164.5 677 c 128,-1,19
 189 686 189 686 218 686 c 0,20,21
 253 686 253 686 277.5 672 c 128,-1,22
 302 658 302 658 322 640 c 1,23,-1
 264 580 l 1,24,25
 252 592 252 592 238 601 c 128,-1,26
 224 610 224 610 210 610 c 0,27,28
 193 610 193 610 185.5 603 c 128,-1,29
 178 596 178 596 178 588 c 256,30,31
 178 580 178 580 186 574 c 128,-1,32
 194 568 194 568 208 562 c 2,33,-1
 240 546 l 2,34,35
 261 535 261 535 275.5 515.5 c 128,-1,36
 290 496 290 496 290 464 c 0,37,38
 290 442 290 442 279.5 421.5 c 128,-1,39
 269 401 269 401 250.5 384.5 c 128,-1,40
 232 368 232 368 206.5 358 c 128,-1,41
 181 348 181 348 152 348 c 0,0,1
318 360 m 1,42,-1
 378 676 l 1,43,-1
 492 676 l 1,44,-1
 512 590 l 1,45,-1
 518 522 l 1,46,-1
 522 522 l 1,47,-1
 550 590 l 1,48,-1
 604 676 l 1,49,-1
 720 676 l 1,50,-1
 660 360 l 1,51,-1
 560 360 l 1,52,-1
 578 448 l 1,53,-1
 622 576 l 1,54,-1
 618 576 l 1,55,-1
 520 406 l 1,56,-1
 472 406 l 1,57,-1
 440 576 l 1,58,-1
 436 576 l 1,59,-1
 432 448 l 1,60,-1
 414 360 l 1,61,-1
 318 360 l 1,42,-1
EndSplineSet
Validated: 1
EndChar

StartChar: at
Encoding: 64 64 554
Width: 886
Flags: W
LayerCount: 2
Fore
SplineSet
390 -176 m 0,0,1
 322 -176 322 -176 259 -155.5 c 128,-1,2
 196 -135 196 -135 148 -93 c 128,-1,3
 100 -51 100 -51 71 12.5 c 128,-1,4
 42 76 42 76 42 162 c 0,5,6
 42 270 42 270 80.5 363.5 c 128,-1,7
 119 457 119 457 183.5 526 c 128,-1,8
 248 595 248 595 333 634.5 c 128,-1,9
 418 674 418 674 512 674 c 0,10,11
 592 674 592 674 655 649.5 c 128,-1,12
 718 625 718 625 761.5 582.5 c 128,-1,13
 805 540 805 540 827.5 483 c 128,-1,14
 850 426 850 426 850 362 c 0,15,16
 850 280 850 280 830 219 c 128,-1,17
 810 158 810 158 776 117.5 c 128,-1,18
 742 77 742 77 696.5 56.5 c 128,-1,19
 651 36 651 36 600 36 c 0,20,21
 565 36 565 36 536.5 54 c 128,-1,22
 508 72 508 72 498 110 c 1,23,-1
 494 110 l 1,24,25
 476 81 476 81 444 63.5 c 128,-1,26
 412 46 412 46 382 46 c 0,27,28
 354 46 354 46 330.5 56.5 c 128,-1,29
 307 67 307 67 290 86.5 c 128,-1,30
 273 106 273 106 263.5 133.5 c 128,-1,31
 254 161 254 161 254 194 c 0,32,33
 254 242 254 242 270.5 287 c 128,-1,34
 287 332 287 332 315 367 c 128,-1,35
 343 402 343 402 380.5 423 c 128,-1,36
 418 444 418 444 460 444 c 0,37,38
 483 444 483 444 499.5 433 c 128,-1,39
 516 422 516 422 528 396 c 1,40,-1
 530 396 l 1,41,-1
 546 436 l 1,42,-1
 642 436 l 1,43,-1
 590 212 l 2,44,45
 581 171 581 171 590.5 152.5 c 128,-1,46
 600 134 600 134 630 134 c 0,47,48
 649 134 649 134 670 147 c 128,-1,49
 691 160 691 160 709 186.5 c 128,-1,50
 727 213 727 213 738.5 253 c 128,-1,51
 750 293 750 293 750 346 c 0,52,53
 750 390 750 390 737.5 432.5 c 128,-1,54
 725 475 725 475 695 508 c 128,-1,55
 665 541 665 541 616.5 561.5 c 128,-1,56
 568 582 568 582 496 582 c 0,57,58
 435 582 435 582 373.5 551 c 128,-1,59
 312 520 312 520 262.5 466 c 128,-1,60
 213 412 213 412 181.5 338.5 c 128,-1,61
 150 265 150 265 150 180 c 0,62,63
 150 113 150 113 172.5 64 c 128,-1,64
 195 15 195 15 231 -17 c 128,-1,65
 267 -49 267 -49 312.5 -64.5 c 128,-1,66
 358 -80 358 -80 404 -80 c 0,67,68
 428 -80 428 -80 460 -70.5 c 128,-1,69
 492 -61 492 -61 516 -46 c 1,70,-1
 558 -132 l 1,71,72
 515 -153 515 -153 474 -164.5 c 128,-1,73
 433 -176 433 -176 390 -176 c 0,0,1
416 144 m 0,74,75
 430 144 430 144 442.5 154 c 128,-1,76
 455 164 455 164 472 188 c 1,77,-1
 502 318 l 1,78,79
 490 344 490 344 464 344 c 0,80,81
 444 344 444 344 427.5 330 c 128,-1,82
 411 316 411 316 398.5 295 c 128,-1,83
 386 274 386 274 379 249 c 128,-1,84
 372 224 372 224 372 202 c 0,85,86
 372 175 372 175 382.5 159.5 c 128,-1,87
 393 144 393 144 416 144 c 0,74,75
EndSplineSet
Validated: 33
Substitution2: "'case' Case-Sensitive Forms in Latin lookup 19 subtable" at.case
Substitution2: "'aalt' Access All Alternates in Latin lookup 0 subtable" at.case
EndChar

StartChar: at.case
Encoding: 65623 -1 555
Width: 846
Flags: W
LayerCount: 2
Fore
SplineSet
367 -36 m 0,0,1
 307 -36 307 -36 254.5 -16.5 c 128,-1,2
 202 3 202 3 164 40.5 c 128,-1,3
 126 78 126 78 104 132.5 c 128,-1,4
 82 187 82 187 82 257 c 0,5,6
 82 357 82 357 118.5 439.5 c 128,-1,7
 155 522 155 522 215 580.5 c 128,-1,8
 275 639 275 639 351.5 671.5 c 128,-1,9
 428 704 428 704 507 704 c 0,10,11
 584 704 584 704 640 682.5 c 128,-1,12
 696 661 696 661 733 624 c 128,-1,13
 770 587 770 587 787.5 538 c 128,-1,14
 805 489 805 489 805 434 c 0,15,16
 805 361 805 361 787.5 305.5 c 128,-1,17
 770 250 770 250 739.5 212.5 c 128,-1,18
 709 175 709 175 668 155.5 c 128,-1,19
 627 136 627 136 581 136 c 0,20,21
 549 136 549 136 523 154 c 128,-1,22
 497 172 497 172 489 210 c 1,23,-1
 485 210 l 1,24,25
 468 181 468 181 437 163.5 c 128,-1,26
 406 146 406 146 380 146 c 0,27,28
 329 146 329 146 297.5 184.5 c 128,-1,29
 266 223 266 223 266 286 c 0,30,31
 266 328 266 328 281 368 c 128,-1,32
 296 408 296 408 322 439.5 c 128,-1,33
 348 471 348 471 382.5 490.5 c 128,-1,34
 417 510 417 510 457 510 c 0,35,36
 477 510 477 510 492 499 c 128,-1,37
 507 488 507 488 517 462 c 1,38,-1
 518 462 l 1,39,-1
 536 502 l 1,40,-1
 631 502 l 1,41,-1
 584 312 l 2,42,43
 574 271 574 271 581.5 252.5 c 128,-1,44
 589 234 589 234 615 234 c 0,45,46
 630 234 630 234 646 246.5 c 128,-1,47
 662 259 662 259 676 284 c 128,-1,48
 690 309 690 309 699 344.5 c 128,-1,49
 708 380 708 380 708 427 c 0,50,51
 708 464 708 464 698 498 c 128,-1,52
 688 532 688 532 663.5 558 c 128,-1,53
 639 584 639 584 598.5 600 c 128,-1,54
 558 616 558 616 497 616 c 0,55,56
 443 616 443 616 388 590 c 128,-1,57
 333 564 333 564 288 518 c 128,-1,58
 243 472 243 472 214.5 410.5 c 128,-1,59
 186 349 186 349 186 277 c 0,60,61
 186 221 186 221 201.5 179.5 c 128,-1,62
 217 138 217 138 244 110 c 128,-1,63
 271 82 271 82 308.5 68 c 128,-1,64
 346 54 346 54 390 54 c 0,65,66
 401 54 401 54 416 56 c 128,-1,67
 431 58 431 58 447 61.5 c 128,-1,68
 463 65 463 65 478 70 c 128,-1,69
 493 75 493 75 504 82 c 1,70,-1
 521 2 l 1,71,72
 485 -20 485 -20 443.5 -28 c 128,-1,73
 402 -36 402 -36 367 -36 c 0,0,1
418 244 m 0,74,75
 429 244 429 244 440.5 254 c 128,-1,76
 452 264 452 264 466 288 c 1,77,-1
 487 384 l 1,78,79
 480 410 480 410 457 410 c 0,80,81
 440 410 440 410 426.5 398.5 c 128,-1,82
 413 387 413 387 403 370 c 128,-1,83
 393 353 393 353 388 333 c 128,-1,84
 383 313 383 313 383 296 c 0,85,86
 383 272 383 272 391.5 258 c 128,-1,87
 400 244 400 244 418 244 c 0,74,75
EndSplineSet
Validated: 33
EndChar

StartChar: numbersign
Encoding: 35 35 556
Width: 516
Flags: W
LayerCount: 2
Fore
SplineSet
32 0 m 1,0,-1
 90 182 l 1,1,-1
 16 182 l 1,2,-1
 40 284 l 1,3,-1
 122 284 l 1,4,-1
 154 386 l 1,5,-1
 80 386 l 1,6,-1
 104 488 l 1,7,-1
 186 488 l 1,8,-1
 238 650 l 1,9,-1
 330 650 l 1,10,-1
 278 488 l 1,11,-1
 368 488 l 1,12,-1
 420 650 l 1,13,-1
 512 650 l 1,14,-1
 460 488 l 1,15,-1
 534 488 l 1,16,-1
 510 386 l 1,17,-1
 428 386 l 1,18,-1
 396 284 l 1,19,-1
 470 284 l 1,20,-1
 446 182 l 1,21,-1
 364 182 l 1,22,-1
 306 0 l 1,23,-1
 214 0 l 1,24,-1
 272 182 l 1,25,-1
 182 182 l 1,26,-1
 124 0 l 1,27,-1
 32 0 l 1,0,-1
214 284 m 1,28,-1
 304 284 l 1,29,-1
 336 386 l 1,30,-1
 246 386 l 1,31,-1
 214 284 l 1,28,-1
EndSplineSet
Validated: 1
EndChar

StartChar: zero.dnom
Encoding: 65628 -1 585
Width: 384
Flags: W
LayerCount: 2
Fore
SplineSet
154 -12 m 0,0,1
 125 -12 125 -12 98.5 -1 c 128,-1,2
 72 10 72 10 52.5 31 c 128,-1,3
 33 52 33 52 21.5 82 c 128,-1,4
 10 112 10 112 10 150 c 0,5,6
 10 205 10 205 24.5 251.5 c 128,-1,7
 39 298 39 298 64.5 332 c 128,-1,8
 90 366 90 366 126 385 c 128,-1,9
 162 404 162 404 206 404 c 0,10,11
 235 404 235 404 261.5 392.5 c 128,-1,12
 288 381 288 381 307.5 360 c 128,-1,13
 327 339 327 339 338.5 309 c 128,-1,14
 350 279 350 279 350 242 c 0,15,16
 350 187 350 187 335.5 140.5 c 128,-1,17
 321 94 321 94 295.5 60 c 128,-1,18
 270 26 270 26 233.5 7 c 128,-1,19
 197 -12 197 -12 154 -12 c 0,0,1
164 82 m 0,20,21
 194 82 194 82 216 124 c 128,-1,22
 238 166 238 166 238 240 c 0,23,24
 238 273 238 273 227.5 291.5 c 128,-1,25
 217 310 217 310 196 310 c 0,26,27
 166 310 166 310 144 268 c 128,-1,28
 122 226 122 226 122 152 c 0,29,30
 122 119 122 119 132.5 100.5 c 128,-1,31
 143 82 143 82 164 82 c 0,20,21
EndSplineSet
Validated: 1
EndChar

StartChar: one.dnom
Encoding: 65629 -1 586
Width: 384
Flags: W
LayerCount: 2
Fore
SplineSet
116 0 m 1,0,-1
 172 274 l 1,1,-1
 86 274 l 1,2,-1
 100 346 l 1,3,4
 121 349 121 349 137 353 c 128,-1,5
 153 357 153 357 166.5 362 c 128,-1,6
 180 367 180 367 193 374 c 128,-1,7
 206 381 206 381 220 390 c 1,8,-1
 310 390 l 1,9,-1
 234 0 l 1,10,-1
 116 0 l 1,0,-1
EndSplineSet
Validated: 1
EndChar

StartChar: two.dnom
Encoding: 65630 -1 587
Width: 368
Flags: W
LayerCount: 2
Fore
SplineSet
-8 0 m 1,0,-1
 4 62 l 1,1,2
 102 124 102 124 153 174.5 c 128,-1,3
 204 225 204 225 204 264 c 0,4,5
 204 281 204 281 193.5 291.5 c 128,-1,6
 183 302 183 302 162 302 c 0,7,8
 148 302 148 302 135.5 293 c 128,-1,9
 123 284 123 284 108 270 c 1,10,-1
 44 338 l 1,11,12
 80 370 80 370 111 386 c 128,-1,13
 142 402 142 402 184 402 c 0,14,15
 247 402 247 402 283.5 371 c 128,-1,16
 320 340 320 340 320 286 c 0,17,18
 320 235 320 235 285 189.5 c 128,-1,19
 250 144 250 144 196 98 c 1,20,-1
 296 98 l 1,21,-1
 276 0 l 1,22,-1
 -8 0 l 1,0,-1
EndSplineSet
Validated: 1
EndChar

StartChar: three.dnom
Encoding: 65631 -1 588
Width: 364
Flags: W
LayerCount: 2
Fore
SplineSet
148 -12 m 0,0,1
 92 -12 92 -12 55.5 10 c 128,-1,2
 19 32 19 32 -4 68 c 1,3,-1
 70 122 l 1,4,5
 97 80 97 80 137 80 c 0,6,7
 163 80 163 80 177.5 91 c 128,-1,8
 192 102 192 102 192 120 c 0,9,10
 192 141 192 141 177.5 152.5 c 128,-1,11
 163 164 163 164 114 164 c 1,12,-1
 128 233 l 1,13,14
 154 233 154 233 170 237.5 c 128,-1,15
 186 242 186 242 195 249 c 128,-1,16
 204 256 204 256 207 265 c 128,-1,17
 210 274 210 274 210 283 c 0,18,19
 210 296 210 296 200.5 304 c 128,-1,20
 191 312 191 312 174 312 c 256,21,22
 157 312 157 312 145.5 308 c 128,-1,23
 134 304 134 304 114 290 c 1,24,-1
 66 366 l 1,25,26
 102 387 102 387 133 394.5 c 128,-1,27
 164 402 164 402 201 402 c 0,28,29
 256 402 256 402 291 375 c 128,-1,30
 326 348 326 348 326 304 c 0,31,32
 326 266 326 266 308.5 240.5 c 128,-1,33
 291 215 291 215 250 198 c 1,34,35
 276 183 276 183 290 161.5 c 128,-1,36
 304 140 304 140 304 114 c 0,37,38
 304 84 304 84 291.5 60.5 c 128,-1,39
 279 37 279 37 258 21 c 128,-1,40
 237 5 237 5 208.5 -3.5 c 128,-1,41
 180 -12 180 -12 148 -12 c 0,0,1
EndSplineSet
Validated: 1
EndChar

StartChar: four.dnom
Encoding: 65632 -1 589
Width: 368
Flags: W
LayerCount: 2
Fore
SplineSet
158 0 m 1,0,-1
 175 82 l 1,1,-1
 -12 82 l 1,2,-1
 0 142 l 1,3,-1
 188 390 l 1,4,-1
 334 390 l 1,5,-1
 289 158 l 1,6,-1
 346 158 l 1,7,-1
 330 82 l 1,8,-1
 274 82 l 1,9,-1
 258 0 l 1,10,-1
 158 0 l 1,0,-1
106 158 m 1,11,-1
 190 158 l 1,12,-1
 198 196 l 1,13,-1
 226 320 l 1,14,-1
 222 320 l 1,15,-1
 164 234 l 1,16,-1
 106 158 l 1,11,-1
EndSplineSet
Validated: 1
EndChar

StartChar: five.dnom
Encoding: 65633 -1 590
Width: 364
Flags: W
LayerCount: 2
Fore
SplineSet
144 -12 m 0,0,1
 91 -12 91 -12 55 10 c 128,-1,2
 19 32 19 32 -4 68 c 1,3,-1
 70 122 l 1,4,5
 97 80 97 80 136 80 c 0,6,7
 160 80 160 80 176 94.5 c 128,-1,8
 192 109 192 109 192 130 c 256,9,10
 192 151 192 151 180 161.5 c 128,-1,11
 168 172 168 172 148 172 c 0,12,13
 138 172 138 172 124.5 168.5 c 128,-1,14
 111 165 111 165 96 156 c 1,15,-1
 56 194 l 1,16,-1
 110 390 l 1,17,-1
 342 390 l 1,18,-1
 324 292 l 1,19,-1
 182 292 l 1,20,-1
 168 246 l 1,21,22
 177 249 177 249 185.5 249.5 c 128,-1,23
 194 250 194 250 198 250 c 0,24,25
 245 250 245 250 275.5 219.5 c 128,-1,26
 306 189 306 189 306 136 c 0,27,28
 306 104 306 104 293 77 c 128,-1,29
 280 50 280 50 257.5 30.5 c 128,-1,30
 235 11 235 11 206 -0.5 c 128,-1,31
 177 -12 177 -12 144 -12 c 0,0,1
EndSplineSet
Validated: 1
EndChar

StartChar: six.dnom
Encoding: 65634 -1 591
Width: 364
Flags: W
LayerCount: 2
Fore
SplineSet
152 -12 m 0,0,1
 120 -12 120 -12 94.5 0.5 c 128,-1,2
 69 13 69 13 51 34 c 128,-1,3
 33 55 33 55 23.5 84 c 128,-1,4
 14 113 14 113 14 146 c 0,5,6
 14 209 14 209 32 257 c 128,-1,7
 50 305 50 305 80 337 c 128,-1,8
 110 369 110 369 148.5 385.5 c 128,-1,9
 187 402 187 402 228 402 c 0,10,11
 266 402 266 402 294.5 389 c 128,-1,12
 323 376 323 376 346 350 c 1,13,-1
 284 280 l 1,14,15
 269 295 269 295 255 302.5 c 128,-1,16
 241 310 241 310 218 310 c 0,17,18
 149 310 149 310 130 223 c 1,19,20
 144 234 144 234 163 241 c 128,-1,21
 182 248 182 248 202 248 c 0,22,23
 252 248 252 248 280 219 c 128,-1,24
 308 190 308 190 308 140 c 0,25,26
 308 108 308 108 295.5 80 c 128,-1,27
 283 52 283 52 261.5 31.5 c 128,-1,28
 240 11 240 11 211.5 -0.5 c 128,-1,29
 183 -12 183 -12 152 -12 c 0,0,1
162 80 m 0,30,31
 177 80 177 80 190.5 95 c 128,-1,32
 204 110 204 110 204 136 c 0,33,34
 204 170 204 170 170 170 c 0,35,36
 145 170 145 170 122 150 c 1,37,-1
 122 142 l 2,38,39
 122 106 122 106 133 93 c 128,-1,40
 144 80 144 80 162 80 c 0,30,31
EndSplineSet
Validated: 1
EndChar

StartChar: seven.dnom
Encoding: 65635 -1 592
Width: 368
Flags: W
LayerCount: 2
Fore
SplineSet
56 0 m 1,0,1
 67 44 67 44 82 82.5 c 128,-1,2
 97 121 97 121 116.5 156 c 128,-1,3
 136 191 136 191 160.5 224 c 128,-1,4
 185 257 185 257 216 292 c 1,5,-1
 58 292 l 1,6,-1
 76 390 l 1,7,-1
 364 390 l 1,8,-1
 354 328 l 1,9,10
 313 288 313 288 285 250 c 128,-1,11
 257 212 257 212 237.5 173 c 128,-1,12
 218 134 218 134 204.5 91.5 c 128,-1,13
 191 49 191 49 180 0 c 1,14,-1
 56 0 l 1,0,1
EndSplineSet
Validated: 1
EndChar

StartChar: eight.dnom
Encoding: 65636 -1 593
Width: 366
Flags: W
LayerCount: 2
Fore
SplineSet
142 -12 m 0,0,1
 77 -12 77 -12 40.5 18.5 c 128,-1,2
 4 49 4 49 4 94 c 0,3,4
 4 133 4 133 31.5 162 c 128,-1,5
 59 191 59 191 92 208 c 1,6,-1
 94 212 l 1,7,8
 77 227 77 227 67.5 245.5 c 128,-1,9
 58 264 58 264 58 288 c 0,10,11
 58 313 58 313 70 334 c 128,-1,12
 82 355 82 355 101.5 370 c 128,-1,13
 121 385 121 385 147 393.5 c 128,-1,14
 173 402 173 402 202 402 c 0,15,16
 258 402 258 402 291 374.5 c 128,-1,17
 324 347 324 347 324 302 c 0,18,19
 324 267 324 267 305 241 c 128,-1,20
 286 215 286 215 254 198 c 1,21,-1
 254 194 l 1,22,23
 275 179 275 179 288.5 158 c 128,-1,24
 302 137 302 137 302 108 c 0,25,26
 302 82 302 82 289.5 60.5 c 128,-1,27
 277 39 277 39 255 22.5 c 128,-1,28
 233 6 233 6 204 -3 c 128,-1,29
 175 -12 175 -12 142 -12 c 0,0,1
196 240 m 1,30,31
 210 255 210 255 217 267.5 c 128,-1,32
 224 280 224 280 224 292 c 0,33,34
 224 307 224 307 215 314.5 c 128,-1,35
 206 322 206 322 194 322 c 0,36,37
 179 322 179 322 168.5 313 c 128,-1,38
 158 304 158 304 158 286 c 0,39,40
 158 271 158 271 168.5 260 c 128,-1,41
 179 249 179 249 196 240 c 1,30,31
150 66 m 0,42,43
 173 66 173 66 185.5 78 c 128,-1,44
 198 90 198 90 198 110 c 0,45,46
 198 128 198 128 184 139 c 128,-1,47
 170 150 170 150 150 162 c 1,48,49
 112 140 112 140 112 104 c 0,50,51
 112 90 112 90 122.5 78 c 128,-1,52
 133 66 133 66 150 66 c 0,42,43
EndSplineSet
Validated: 1
EndChar

StartChar: nine.dnom
Encoding: 65637 -1 594
Width: 366
Flags: W
LayerCount: 2
Fore
SplineSet
172 220 m 0,0,1
 197 220 197 220 220 240 c 1,2,-1
 220 248 l 2,3,4
 220 284 220 284 209 297 c 128,-1,5
 198 310 198 310 180 310 c 0,6,7
 165 310 165 310 151.5 295 c 128,-1,8
 138 280 138 280 138 254 c 0,9,10
 138 220 138 220 172 220 c 0,0,1
114 -12 m 0,11,12
 76 -12 76 -12 47.5 1 c 128,-1,13
 19 14 19 14 -4 40 c 1,14,-1
 58 110 l 1,15,16
 73 95 73 95 87 87.5 c 128,-1,17
 101 80 101 80 124 80 c 0,18,19
 192 80 192 80 212 167 c 1,20,21
 198 156 198 156 179 149 c 128,-1,22
 160 142 160 142 140 142 c 0,23,24
 90 142 90 142 62 171 c 128,-1,25
 34 200 34 200 34 250 c 0,26,27
 34 282 34 282 46.5 310 c 128,-1,28
 59 338 59 338 80.5 358.5 c 128,-1,29
 102 379 102 379 130.5 390.5 c 128,-1,30
 159 402 159 402 190 402 c 0,31,32
 222 402 222 402 247.5 389.5 c 128,-1,33
 273 377 273 377 291 356 c 128,-1,34
 309 335 309 335 318.5 306 c 128,-1,35
 328 277 328 277 328 244 c 0,36,37
 328 181 328 181 310 133 c 128,-1,38
 292 85 292 85 262 53 c 128,-1,39
 232 21 232 21 193.5 4.5 c 128,-1,40
 155 -12 155 -12 114 -12 c 0,11,12
EndSplineSet
Validated: 1
EndChar

StartChar: parenleft.dnom
Encoding: 65638 -1 595
Width: 266
Flags: W
LayerCount: 2
Fore
SplineSet
84 -92 m 1,0,1
 64 -47 64 -47 51 3.5 c 128,-1,2
 38 54 38 54 38 110 c 0,3,4
 38 165 38 165 47 211.5 c 128,-1,5
 56 258 56 258 75 301.5 c 128,-1,6
 94 345 94 345 123.5 388.5 c 128,-1,7
 153 432 153 432 194 482 c 1,8,-1
 272 448 l 1,9,10
 210 362 210 362 179 283 c 128,-1,11
 148 204 148 204 148 112 c 0,12,13
 148 71 148 71 154 25.5 c 128,-1,14
 160 -20 160 -20 172 -58 c 1,15,-1
 84 -92 l 1,0,1
EndSplineSet
Validated: 1
EndChar

StartChar: parenright.dnom
Encoding: 65639 -1 596
Width: 264
Flags: W
LayerCount: 2
Fore
SplineSet
48 -92 m 1,0,-1
 -30 -58 l 1,1,2
 32 28 32 28 63 107 c 128,-1,3
 94 186 94 186 94 278 c 0,4,5
 94 319 94 319 88 364.5 c 128,-1,6
 82 410 82 410 70 448 c 1,7,-1
 158 482 l 1,8,9
 178 437 178 437 191 386.5 c 128,-1,10
 204 336 204 336 204 280 c 256,11,12
 204 224 204 224 195 178 c 128,-1,13
 186 132 186 132 167 88.5 c 128,-1,14
 148 45 148 45 118.5 1.5 c 128,-1,15
 89 -42 89 -42 48 -92 c 1,0,-1
EndSplineSet
Validated: 1
EndChar

StartChar: period.dnom
Encoding: 65640 -1 597
Width: 210
Flags: W
LayerCount: 2
Fore
SplineSet
54 -8 m 0,0,1
 28 -8 28 -8 13 8 c 128,-1,2
 -2 24 -2 24 -2 48 c 0,3,4
 -2 81 -2 81 19.5 103.5 c 128,-1,5
 41 126 41 126 74 126 c 0,6,7
 100 126 100 126 115 110 c 128,-1,8
 130 94 130 94 130 70 c 0,9,10
 130 37 130 37 108.5 14.5 c 128,-1,11
 87 -8 87 -8 54 -8 c 0,0,1
EndSplineSet
Validated: 1
EndChar

StartChar: comma.dnom
Encoding: 65641 -1 598
Width: 210
Flags: W
LayerCount: 2
Fore
SplineSet
-24 -132 m 1,0,-1
 -36 -72 l 1,1,2
 5 -60 5 -60 28 -43.5 c 128,-1,3
 51 -27 51 -27 56 2 c 1,4,5
 33 2 33 2 16.5 17 c 128,-1,6
 0 32 0 32 0 56 c 0,7,8
 0 89 0 89 22 107.5 c 128,-1,9
 44 126 44 126 76 126 c 0,10,11
 103 126 103 126 120.5 105.5 c 128,-1,12
 138 85 138 85 138 52 c 0,13,14
 138 -17 138 -17 96 -64 c 128,-1,15
 54 -111 54 -111 -24 -132 c 1,0,-1
EndSplineSet
Validated: 1
EndChar

StartChar: a.sups
Encoding: 7491 7491 616
Width: 369
Flags: W
LayerCount: 2
Fore
SplineSet
74 482 m 0,0,1
 74 529 74 529 89 570.5 c 128,-1,2
 104 612 104 612 128.5 642.5 c 128,-1,3
 153 673 153 673 185 690.5 c 128,-1,4
 217 708 217 708 252 708 c 0,5,6
 273 708 273 708 290 696 c 128,-1,7
 307 684 307 684 316 666 c 1,8,-1
 320 666 l 1,9,-1
 336 700 l 1,10,-1
 426 700 l 1,11,-1
 360 368 l 1,12,-1
 270 368 l 1,13,-1
 270 408 l 1,14,-1
 266 408 l 1,15,16
 245 385 245 385 218.5 372.5 c 128,-1,17
 192 360 192 360 168 360 c 0,18,19
 124 360 124 360 99 391.5 c 128,-1,20
 74 423 74 423 74 482 c 0,0,1
216 450 m 0,21,22
 230 450 230 450 245 458 c 128,-1,23
 260 466 260 466 274 492 c 1,24,-1
 292 594 l 1,25,26
 287 606 287 606 278 612 c 128,-1,27
 269 618 269 618 260 618 c 0,28,29
 246 618 246 618 233.5 609 c 128,-1,30
 221 600 221 600 210.5 584 c 128,-1,31
 200 568 200 568 194 545.5 c 128,-1,32
 188 523 188 523 188 496 c 0,33,34
 188 472 188 472 196 461 c 128,-1,35
 204 450 204 450 216 450 c 0,21,22
EndSplineSet
Validated: 1
Substitution2: "'ss02' Style Set 2 in Latin lookup 21 subtable" a.supa
Substitution2: "'aalt' Access All Alternates in Latin lookup 0 subtable" a.supa
EndChar

StartChar: b.sups
Encoding: 7495 7495 617
Width: 374
Flags: W
LayerCount: 2
Fore
SplineSet
128 368 m 1,0,-1
 38 368 l 1,1,-1
 130 828 l 1,2,-1
 242 828 l 1,3,-1
 223 732 l 1,4,-1
 202 668 l 1,5,-1
 206 668 l 1,6,7
 224 685 224 685 248 696.5 c 128,-1,8
 272 708 272 708 296 708 c 0,9,10
 340 708 340 708 365 676.5 c 128,-1,11
 390 645 390 645 390 586 c 0,12,13
 390 539 390 539 375 497.5 c 128,-1,14
 360 456 360 456 335.5 425.5 c 128,-1,15
 311 395 311 395 278.5 377.5 c 128,-1,16
 246 360 246 360 212 360 c 0,17,18
 191 360 191 360 174 371.5 c 128,-1,19
 157 383 157 383 148 402 c 1,20,-1
 144 402 l 1,21,-1
 128 368 l 1,0,-1
248 618 m 0,22,23
 234 618 234 618 219 610 c 128,-1,24
 204 602 204 602 190 576 c 1,25,-1
 172 474 l 1,26,27
 177 462 177 462 186 456 c 128,-1,28
 195 450 195 450 204 450 c 0,29,30
 217 450 217 450 230 459 c 128,-1,31
 243 468 243 468 253.5 484 c 128,-1,32
 264 500 264 500 270 522.5 c 128,-1,33
 276 545 276 545 276 572 c 0,34,35
 276 596 276 596 268 607 c 128,-1,36
 260 618 260 618 248 618 c 0,22,23
EndSplineSet
Validated: 1
EndChar

StartChar: c.sups
Encoding: 7580 7580 618
Width: 298
Flags: W
LayerCount: 2
Fore
SplineSet
185 360 m 0,0,1
 157 360 157 360 132.5 369 c 128,-1,2
 108 378 108 378 89.5 395 c 128,-1,3
 71 412 71 412 60.5 436.5 c 128,-1,4
 50 461 50 461 50 492 c 0,5,6
 50 536 50 536 65 575 c 128,-1,7
 80 614 80 614 107 643.5 c 128,-1,8
 134 673 134 673 170.5 690.5 c 128,-1,9
 207 708 207 708 250 708 c 0,10,11
 281 708 281 708 305 695.5 c 128,-1,12
 329 683 329 683 344 668 c 1,13,-1
 281 601 l 1,14,15
 273 611 273 611 265 615.5 c 128,-1,16
 257 620 257 620 246 620 c 0,17,18
 228 620 228 620 213 610.5 c 128,-1,19
 198 601 198 601 187 585.5 c 128,-1,20
 176 570 176 570 169.5 549 c 128,-1,21
 163 528 163 528 163 505 c 0,22,23
 163 475 163 475 177 461 c 128,-1,24
 191 447 191 447 210 447 c 0,25,26
 226 447 226 447 235.5 452.5 c 128,-1,27
 245 458 245 458 255 464 c 1,28,-1
 290 395 l 1,29,30
 275 382 275 382 247 371 c 128,-1,31
 219 360 219 360 185 360 c 0,0,1
EndSplineSet
Validated: 1
EndChar

StartChar: d.sups
Encoding: 7496 7496 619
Width: 386
Flags: W
LayerCount: 2
Fore
SplineSet
296 670 m 1,0,-1
 300 736 l 1,1,-1
 318 828 l 1,2,-1
 430 828 l 1,3,-1
 338 368 l 1,4,-1
 248 368 l 1,5,-1
 248 408 l 1,6,-1
 244 408 l 1,7,8
 223 385 223 385 196 372.5 c 128,-1,9
 169 360 169 360 146 360 c 0,10,11
 102 360 102 360 77 391.5 c 128,-1,12
 52 423 52 423 52 482 c 0,13,14
 52 529 52 529 67 570.5 c 128,-1,15
 82 612 82 612 106.5 642.5 c 128,-1,16
 131 673 131 673 163 690.5 c 128,-1,17
 195 708 195 708 230 708 c 0,18,19
 251 708 251 708 267.5 696.5 c 128,-1,20
 284 685 284 685 292 670 c 1,21,-1
 296 670 l 1,0,-1
194 450 m 0,22,23
 208 450 208 450 223 458 c 128,-1,24
 238 466 238 466 252 492 c 1,25,-1
 270 594 l 1,26,27
 265 606 265 606 255.5 612 c 128,-1,28
 246 618 246 618 238 618 c 0,29,30
 224 618 224 618 211.5 609 c 128,-1,31
 199 600 199 600 188.5 584 c 128,-1,32
 178 568 178 568 172 545.5 c 128,-1,33
 166 523 166 523 166 496 c 0,34,35
 166 472 166 472 174 461 c 128,-1,36
 182 450 182 450 194 450 c 0,22,23
EndSplineSet
Validated: 1
EndChar

StartChar: e.sups
Encoding: 7497 7497 620
Width: 336
Flags: W
LayerCount: 2
Fore
SplineSet
50 504 m 0,0,1
 50 549 50 549 67 586.5 c 128,-1,2
 84 624 84 624 111 651 c 128,-1,3
 138 678 138 678 172 693 c 128,-1,4
 206 708 206 708 240 708 c 0,5,6
 271 708 271 708 292 698 c 128,-1,7
 313 688 313 688 326 670.5 c 128,-1,8
 339 653 339 653 345 629.5 c 128,-1,9
 351 606 351 606 351 580 c 0,10,11
 351 555 351 555 344 531.5 c 128,-1,12
 337 508 337 508 332 500 c 1,13,-1
 153 500 l 1,14,15
 155 468 155 468 175 455 c 128,-1,16
 195 442 195 442 225 442 c 0,17,18
 237 442 237 442 249 446.5 c 128,-1,19
 261 451 261 451 277 461 c 1,20,-1
 309 391 l 1,21,22
 280 375 280 375 250 367.5 c 128,-1,23
 220 360 220 360 193 360 c 0,24,25
 129 360 129 360 89.5 398.5 c 128,-1,26
 50 437 50 437 50 504 c 0,0,1
161 566 m 1,27,-1
 259 566 l 1,28,29
 260 571 260 571 260.5 575.5 c 128,-1,30
 261 580 261 580 261 586 c 0,31,32
 261 602 261 602 253.5 613 c 128,-1,33
 246 624 246 624 226 624 c 0,34,35
 208 624 208 624 190 610 c 128,-1,36
 172 596 172 596 161 566 c 1,27,-1
EndSplineSet
Validated: 1
EndChar

StartChar: f.sups
Encoding: 7584 7584 621
Width: 233
Flags: W
LayerCount: 2
Fore
SplineSet
56 368 m 1,0,-1
 106 614 l 1,1,-1
 64 614 l 1,2,-1
 78 694 l 1,3,-1
 123 699 l 1,4,-1
 126 713 l 2,5,6
 131 739 131 739 141.5 762.5 c 128,-1,7
 152 786 152 786 168.5 804 c 128,-1,8
 185 822 185 822 209 832.5 c 128,-1,9
 233 843 233 843 266 843 c 0,10,11
 307 843 307 843 343 824 c 1,12,-1
 309 748 l 1,13,14
 304 751 304 751 295.5 754 c 128,-1,15
 287 757 287 757 279 757 c 0,16,17
 262 757 262 757 252 746.5 c 128,-1,18
 242 736 242 736 237 709 c 2,19,-1
 235 700 l 1,20,-1
 290 700 l 1,21,-1
 272 614 l 1,22,-1
 217 614 l 1,23,-1
 167 368 l 1,24,-1
 56 368 l 1,0,-1
EndSplineSet
Validated: 1
EndChar

StartChar: g.sups
Encoding: 7501 7501 622
Width: 370
Flags: W
LayerCount: 2
Fore
SplineSet
314 700 m 1,0,-1
 404 700 l 1,1,-1
 338 370 l 2,2,3
 322 292 322 292 275.5 256.5 c 128,-1,4
 229 221 229 221 157 221 c 0,5,6
 128 221 128 221 92 231.5 c 128,-1,7
 56 242 56 242 23 266 c 1,8,-1
 67 340 l 1,9,10
 89 327 89 327 112.5 317 c 128,-1,11
 136 307 136 307 160 307 c 0,12,13
 212 307 212 307 232 363 c 2,14,-1
 248 408 l 1,15,-1
 244 408 l 1,16,17
 221 391 221 391 197.5 382 c 128,-1,18
 174 373 174 373 148 373 c 0,19,20
 103 373 103 373 78.5 403 c 128,-1,21
 54 433 54 433 54 489 c 0,22,23
 54 534 54 534 68.5 574 c 128,-1,24
 83 614 83 614 107 644 c 128,-1,25
 131 674 131 674 163 691 c 128,-1,26
 195 708 195 708 230 708 c 0,27,28
 251 708 251 708 268 696 c 128,-1,29
 285 684 285 684 294 666 c 1,30,-1
 298 666 l 1,31,-1
 314 700 l 1,0,-1
196 462 m 0,32,33
 210 462 210 462 224.5 467.5 c 128,-1,34
 239 473 239 473 251 491 c 1,35,-1
 270 594 l 1,36,37
 265 606 265 606 255.5 612 c 128,-1,38
 246 618 246 618 238 618 c 0,39,40
 209 618 209 618 189 586 c 128,-1,41
 169 554 169 554 169 503 c 0,42,43
 169 481 169 481 176.5 471.5 c 128,-1,44
 184 462 184 462 196 462 c 0,32,33
EndSplineSet
Validated: 1
Substitution2: "'ss03' Style Set 3 in Latin lookup 22 subtable" g.supa
Substitution2: "'aalt' Access All Alternates in Latin lookup 0 subtable" g.supa
EndChar

StartChar: h.sups
Encoding: 688 688 623
Width: 375
Flags: W
LayerCount: 2
Fore
SplineSet
38 368 m 1,0,-1
 130 828 l 1,1,-1
 242 828 l 1,2,-1
 223 732 l 1,3,-1
 204 664 l 1,4,-1
 207 664 l 1,5,6
 227 681 227 681 252.5 694.5 c 128,-1,7
 278 708 278 708 308 708 c 0,8,9
 350 708 350 708 369.5 685 c 128,-1,10
 389 662 389 662 389 619 c 0,11,12
 389 608 389 608 387 596 c 128,-1,13
 385 584 385 584 383 573 c 2,14,-1
 342 368 l 1,15,-1
 230 368 l 1,16,-1
 268 559 l 2,17,18
 270 569 270 569 271.5 575.5 c 128,-1,19
 273 582 273 582 273 587 c 0,20,21
 273 614 273 614 247 614 c 0,22,23
 233 614 233 614 220.5 605 c 128,-1,24
 208 596 208 596 191 578 c 1,25,-1
 150 368 l 1,26,-1
 38 368 l 1,0,-1
EndSplineSet
Validated: 1
EndChar

StartChar: i.sups
Encoding: 8305 8305 624
Width: 186
Flags: W
LayerCount: 2
Fore
SplineSet
176 740 m 0,0,1
 153 740 153 740 135.5 752 c 128,-1,2
 118 764 118 764 118 790 c 0,3,4
 118 814 118 814 137.5 832 c 128,-1,5
 157 850 157 850 184 850 c 0,6,7
 207 850 207 850 224.5 838 c 128,-1,8
 242 826 242 826 242 800 c 0,9,10
 242 776 242 776 222.5 758 c 128,-1,11
 203 740 203 740 176 740 c 0,0,1
38 368 m 1,12,-1
 104 700 l 1,13,-1
 216 700 l 1,14,-1
 150 368 l 1,15,-1
 38 368 l 1,12,-1
EndSplineSet
Validated: 1
EndChar

StartChar: j.sups
Encoding: 690 690 625
Width: 187
Flags: W
LayerCount: 2
Fore
SplineSet
14 236 m 0,0,1
 -4 236 -4 236 -21 239 c 128,-1,2
 -38 242 -38 242 -57 251 c 1,3,-1
 -24 328 l 1,4,5
 -9 322 -9 322 4 322 c 0,6,7
 20 322 20 322 26.5 332 c 128,-1,8
 33 342 33 342 38 368 c 2,9,-1
 104 700 l 1,10,-1
 216 700 l 1,11,-1
 148 358 l 2,12,13
 143 332 143 332 133 310 c 128,-1,14
 123 288 123 288 106.5 271.5 c 128,-1,15
 90 255 90 255 67.5 245.5 c 128,-1,16
 45 236 45 236 14 236 c 0,0,1
176 740 m 0,17,18
 153 740 153 740 135.5 752 c 128,-1,19
 118 764 118 764 118 790 c 0,20,21
 118 814 118 814 137.5 832 c 128,-1,22
 157 850 157 850 184 850 c 0,23,24
 207 850 207 850 224.5 838 c 128,-1,25
 242 826 242 826 242 800 c 0,26,27
 242 776 242 776 222.5 758 c 128,-1,28
 203 740 203 740 176 740 c 0,17,18
EndSplineSet
Validated: 1
EndChar

StartChar: k.sups
Encoding: 7503 7503 626
Width: 367
Flags: W
LayerCount: 2
Fore
SplineSet
38 368 m 1,0,-1
 130 828 l 1,1,-1
 242 828 l 1,2,-1
 192 582 l 1,3,-1
 196 582 l 1,4,-1
 300 700 l 1,5,-1
 422 700 l 1,6,-1
 283 551 l 1,7,-1
 364 368 l 1,8,-1
 253 368 l 1,9,-1
 208 488 l 1,10,-1
 166 448 l 1,11,-1
 150 368 l 1,12,-1
 38 368 l 1,0,-1
EndSplineSet
Validated: 1
EndChar

StartChar: l.sups
Encoding: 737 737 627
Width: 186
Flags: W
LayerCount: 2
Fore
SplineSet
61 481 m 2,0,-1
 130 828 l 1,1,-1
 242 828 l 1,2,-1
 171 475 l 2,3,4
 169 469 169 469 169 463 c 0,5,6
 169 452 169 452 173.5 449.5 c 128,-1,7
 178 447 178 447 183 447 c 256,8,9
 188 447 188 447 193 449 c 1,10,-1
 191 368 l 1,11,12
 182 365 182 365 167.5 362.5 c 128,-1,13
 153 360 153 360 135 360 c 0,14,15
 92 360 92 360 74 380 c 128,-1,16
 56 400 56 400 56 435 c 0,17,18
 56 446 56 446 57 456.5 c 128,-1,19
 58 467 58 467 61 481 c 2,0,-1
EndSplineSet
Validated: 1
Substitution2: "'ss01' Style Set 1 in Latin lookup 20 subtable" l.supa
Substitution2: "'aalt' Access All Alternates in Latin lookup 0 subtable" l.supa
EndChar

StartChar: m.sups
Encoding: 7504 7504 628
Width: 560
Flags: W
LayerCount: 2
Fore
SplineSet
39 368 m 1,0,-1
 104 700 l 1,1,-1
 194 700 l 1,2,-1
 194 656 l 1,3,-1
 198 656 l 1,4,5
 221 677 221 677 247.5 692.5 c 128,-1,6
 274 708 274 708 308 708 c 0,7,8
 340 708 340 708 357 692.5 c 128,-1,9
 374 677 374 677 382 651 c 1,10,11
 405 672 405 672 433 690 c 128,-1,12
 461 708 461 708 494 708 c 0,13,14
 536 708 536 708 553.5 685.5 c 128,-1,15
 571 663 571 663 571 618 c 0,16,17
 571 596 571 596 566 571 c 2,18,-1
 525 368 l 1,19,-1
 415 368 l 1,20,-1
 452 558 l 2,21,22
 455 573 455 573 455 589 c 0,23,24
 455 600 455 600 451 607 c 128,-1,25
 447 614 447 614 433 614 c 0,26,27
 424 614 424 614 409.5 605.5 c 128,-1,28
 395 597 395 597 378 578 c 1,29,-1
 337 368 l 1,30,-1
 228 368 l 1,31,-1
 265 558 l 2,32,33
 267 566 267 566 268.5 572.5 c 128,-1,34
 270 579 270 579 270 586 c 0,35,36
 270 614 270 614 244 614 c 0,37,38
 236 614 236 614 221.5 605 c 128,-1,39
 207 596 207 596 191 578 c 1,40,-1
 150 368 l 1,41,-1
 39 368 l 1,0,-1
EndSplineSet
Validated: 1
EndChar

